<svg width="390" height="876" viewBox="0 0 390 876" fill="none" xmlns="http://www.w3.org/2000/svg">
<rect width="390" height="876" fill="#050611"/>
<g filter="url(#filter0_f_535_548)">
<path fill-rule="evenodd" clip-rule="evenodd" d="M-49.4339 860.2C-37.1154 847.586 28.7213 847.689 36.1533 834.643C46.5035 816.474 -18.4669 800.378 -5.13004 782.429C5.69973 767.854 53.3962 756.362 95.2203 755.148C140.093 753.846 168.352 775.312 213.141 776.096C259.342 776.905 307.167 749.821 343.943 759.502C384.02 770.051 334.612 796.234 352.84 812.869C365.127 824.084 426.348 824.054 427.971 836.191C429.741 849.431 363.231 854.727 360.21 867.99C356.556 884.035 417.357 895.567 410.812 911.526C405.203 925.204 361.534 933.017 330.135 941.329C297.17 950.056 262.237 958.42 222.431 961.395C181.812 964.43 140.215 962.142 100.571 958.483C60.3496 954.771 12.4292 952.13 -10.6033 939.887C-34.7502 927.051 -13.9506 908.997 -21.4422 893.623C-27.1048 882.003 -60.4692 871.501 -49.4339 860.2Z" fill="url(#paint0_linear_535_548)" fill-opacity="0.6"/>
</g>
<g filter="url(#filter1_f_535_548)">
<path fill-rule="evenodd" clip-rule="evenodd" d="M-46.4338 -1.79967C-34.1153 -14.4144 31.7214 -14.3107 39.1533 -27.3568C49.5035 -45.5256 -15.4668 -61.6216 -2.13001 -79.5709C8.69976 -94.1461 56.3963 -105.638 98.2203 -106.852C143.093 -108.154 171.352 -86.6881 216.141 -85.904C262.342 -85.0953 310.167 -112.179 346.943 -102.498C387.02 -91.9487 337.612 -65.7662 355.84 -49.1306C368.127 -37.9162 429.348 -37.9458 430.971 -25.8094C432.741 -12.5693 366.231 -7.27289 363.21 5.99029C359.556 22.0356 420.357 33.567 413.812 49.5257C408.203 63.2045 364.534 71.0169 333.135 79.3291C300.17 88.0558 265.237 96.4203 225.431 99.3948C184.812 102.43 143.215 100.142 103.571 96.4832C63.3496 92.7709 15.4292 90.1302 -7.60328 77.8867C-31.7501 65.0508 -10.9506 46.9975 -18.4422 31.6236C-24.1048 20.003 -57.4692 9.50105 -46.4338 -1.79967Z" fill="url(#paint1_linear_535_548)" fill-opacity="0.6"/>
</g>
<g filter="url(#filter2_f_535_548)">
<path fill-rule="evenodd" clip-rule="evenodd" d="M456.535 205.399C469.009 217.859 468.161 283.691 481.122 291.269C499.173 301.824 516.003 237.04 533.8 250.579C548.252 261.573 559.204 309.396 559.945 351.232C560.739 396.116 538.955 424.13 537.665 468.908C536.334 515.097 562.875 563.225 552.779 599.889C541.777 639.844 516.155 590.144 499.314 608.182C487.962 620.342 487.299 681.559 475.145 683.044C461.886 684.665 457.342 618.099 444.114 614.929C428.111 611.093 415.893 671.76 400.009 665.035C386.394 659.272 379.076 615.518 371.12 584.027C362.766 550.965 354.797 515.939 352.273 476.103C349.697 435.452 352.455 393.884 356.562 354.283C360.729 314.106 363.911 266.219 376.414 243.326C389.522 219.326 407.339 240.328 422.797 233.011C434.481 227.48 445.359 194.236 456.535 205.399Z" fill="url(#paint2_linear_535_548)" fill-opacity="0.6"/>
</g>
<g filter="url(#filter3_f_535_548)">
<path fill-rule="evenodd" clip-rule="evenodd" d="M-67.1925 210.399C-79.6671 222.859 -78.8191 288.691 -91.7803 296.269C-109.831 306.824 -126.66 242.04 -144.458 255.579C-158.91 266.573 -169.862 314.396 -170.602 356.232C-171.397 401.116 -149.613 429.13 -148.323 473.908C-146.992 520.097 -173.533 568.225 -163.437 604.889C-152.435 644.844 -126.813 595.144 -109.972 613.182C-98.6197 625.342 -97.9572 686.559 -85.8032 688.044C-72.544 689.665 -67.9998 623.099 -54.7716 619.929C-38.7687 616.093 -26.5506 676.76 -10.6669 670.035C2.94757 664.272 10.2658 620.518 18.2224 589.027C26.5759 555.965 34.5449 520.939 37.0691 481.103C39.645 440.452 36.887 398.884 32.78 359.283C28.6132 319.106 25.4309 271.219 12.9278 248.326C-0.180312 224.326 -17.9973 245.328 -33.4549 238.011C-45.1388 232.48 -56.0173 199.236 -67.1925 210.399Z" fill="url(#paint3_linear_535_548)" fill-opacity="0.6"/>
</g>
<defs>
<filter id="filter0_f_535_548" x="-351.656" y="455.091" width="1079.66" height="807.712" filterUnits="userSpaceOnUse" color-interpolation-filters="sRGB">
<feFlood flood-opacity="0" result="BackgroundImageFix"/>
<feBlend mode="normal" in="SourceGraphic" in2="BackgroundImageFix" result="shape"/>
<feGaussianBlur stdDeviation="150" result="effect1_foregroundBlur_535_548"/>
</filter>
<filter id="filter1_f_535_548" x="-348.656" y="-406.909" width="1079.66" height="807.712" filterUnits="userSpaceOnUse" color-interpolation-filters="sRGB">
<feFlood flood-opacity="0" result="BackgroundImageFix"/>
<feBlend mode="normal" in="SourceGraphic" in2="BackgroundImageFix" result="shape"/>
<feGaussianBlur stdDeviation="150" result="effect1_foregroundBlur_535_548"/>
</filter>
<filter id="filter2_f_535_548" x="51.2745" y="-96.8766" width="808.691" height="1079.95" filterUnits="userSpaceOnUse" color-interpolation-filters="sRGB">
<feFlood flood-opacity="0" result="BackgroundImageFix"/>
<feBlend mode="normal" in="SourceGraphic" in2="BackgroundImageFix" result="shape"/>
<feGaussianBlur stdDeviation="150" result="effect1_foregroundBlur_535_548"/>
</filter>
<filter id="filter3_f_535_548" x="-470.624" y="-91.8766" width="808.691" height="1079.95" filterUnits="userSpaceOnUse" color-interpolation-filters="sRGB">
<feFlood flood-opacity="0" result="BackgroundImageFix"/>
<feBlend mode="normal" in="SourceGraphic" in2="BackgroundImageFix" result="shape"/>
<feGaussianBlur stdDeviation="150" result="effect1_foregroundBlur_535_548"/>
</filter>
<linearGradient id="paint0_linear_535_548" x1="36.4995" y1="765.378" x2="117.42" y2="969.773" gradientUnits="userSpaceOnUse">
<stop stop-color="#3D73C4"/>
<stop offset="1" stop-color="#B4F9B7" stop-opacity="0.74"/>
</linearGradient>
<linearGradient id="paint1_linear_535_548" x1="39.4995" y1="-96.6218" x2="120.42" y2="107.773" gradientUnits="userSpaceOnUse">
<stop stop-color="#3D73C4"/>
<stop offset="1" stop-color="#B4F9B7" stop-opacity="0.74"/>
</linearGradient>
<linearGradient id="paint2_linear_535_548" x1="550.379" y1="292.399" x2="345.082" y2="371.004" gradientUnits="userSpaceOnUse">
<stop stop-color="#3D73C4"/>
<stop offset="1" stop-color="#B4F9B7" stop-opacity="0.74"/>
</linearGradient>
<linearGradient id="paint3_linear_535_548" x1="-161.037" y1="297.399" x2="44.2599" y2="376.004" gradientUnits="userSpaceOnUse">
<stop stop-color="#3D73C4"/>
<stop offset="1" stop-color="#B4F9B7" stop-opacity="0.74"/>
</linearGradient>
</defs>
</svg>
