<svg width="834" height="1194" viewBox="0 0 834 1194" fill="none" xmlns="http://www.w3.org/2000/svg">
<rect width="834" height="1194" fill="#050611"/>
<g filter="url(#filter0_f_547_210)">
<path fill-rule="evenodd" clip-rule="evenodd" d="M-123.735 278.947C-160.661 293.474 -155.868 364.433 -194.418 373.735C-248.105 386.69 -300.716 318.248 -353.543 334.4C-396.439 347.517 -427.596 400.069 -428.381 445.273C-429.223 493.772 -363.037 522.11 -357.64 570.314C-352.073 620.036 -429.896 674.27 -398.411 712.955C-364.1 755.111 -289.081 699.262 -238.038 717.264C-203.629 729.4 -199.549 795.395 -163.105 795.944C-123.348 796.542 -112.021 724.323 -72.5202 719.755C-24.7341 714.228 13.9279 778.627 61.2578 769.993C101.826 762.593 122.241 714.748 144.987 680.078C168.868 643.679 191.53 605.195 197.724 561.993C204.045 517.907 194.363 473.294 180.71 430.921C166.857 387.931 155.689 336.536 117.467 312.92C77.3957 288.161 24.7658 312.368 -21.7694 305.814C-56.9437 300.86 -90.6554 265.934 -123.735 278.947Z" fill="url(#paint0_linear_547_210)" fill-opacity="0.4"/>
</g>
<g filter="url(#filter1_f_547_210)">
<path fill-rule="evenodd" clip-rule="evenodd" d="M832.073 242.926C866.709 260.194 861.657 345.958 897.861 356.902C948.282 372.144 998.31 289.054 1047.9 308.165C1088.16 323.684 1117.08 386.936 1117.47 441.543C1117.89 500.13 1055.4 534.871 1049.95 593.149C1044.33 653.263 1117.15 718.189 1087.23 765.167C1054.62 816.36 984.453 749.459 936.284 771.598C903.812 786.522 899.469 866.285 865.172 867.225C827.756 868.252 817.649 781.089 780.514 775.871C735.59 769.558 698.718 847.657 654.246 837.587C616.128 828.957 597.284 771.309 576.145 729.597C553.951 685.805 532.92 639.484 527.421 587.337C521.81 534.124 531.261 480.151 544.432 428.855C557.796 376.812 568.698 314.635 604.844 285.811C642.74 255.593 692.08 284.436 735.919 276.163C769.056 269.909 801.045 227.456 832.073 242.926Z" fill="url(#paint1_linear_547_210)" fill-opacity="0.4"/>
</g>
<g filter="url(#filter2_f_547_210)">
<path fill-rule="evenodd" clip-rule="evenodd" d="M-90.8242 -63.4551C-63.3508 -91.5891 83.4821 -91.3579 100.057 -120.454C123.141 -160.975 -21.7598 -196.873 7.98477 -236.905C32.138 -269.411 138.513 -295.042 231.792 -297.749C331.869 -300.652 394.894 -252.778 494.785 -251.03C597.826 -249.226 704.488 -309.629 786.509 -288.039C875.889 -264.511 765.698 -206.117 806.35 -169.015C833.755 -144.004 970.292 -144.07 973.911 -117.003C977.859 -87.4742 829.525 -75.6618 822.788 -46.0815C814.638 -10.2963 950.239 15.4218 935.643 51.0137C923.133 81.5209 825.741 98.9447 755.713 117.483C682.192 136.946 604.281 155.601 515.506 162.235C424.915 169.004 332.143 163.901 243.726 155.741C154.021 147.462 47.1463 141.572 -4.22203 114.266C-58.0757 85.6387 -11.6873 45.3752 -28.3955 11.0874C-41.0246 -14.8295 -115.436 -38.2516 -90.8242 -63.4551Z" fill="url(#paint2_linear_547_210)" fill-opacity="0.6"/>
</g>
<g filter="url(#filter3_f_547_210)">
<path fill-rule="evenodd" clip-rule="evenodd" d="M-154.479 1138C-125.014 1109.84 32.332 1109.94 50.1198 1080.83C74.8923 1040.29 -80.3512 1004.52 -48.4412 964.461C-22.5297 931.933 91.4851 906.207 191.445 903.417C298.69 900.424 366.184 948.243 473.227 949.902C583.644 951.614 697.996 891.115 785.87 912.633C881.63 936.081 763.497 994.574 807.026 1031.64C836.37 1056.63 982.684 1056.44 986.538 1083.5C990.743 1113.03 831.777 1124.97 824.531 1154.56C815.766 1190.35 961.053 1215.95 945.381 1251.56C931.947 1282.07 827.567 1299.59 752.508 1318.19C673.705 1337.71 590.2 1356.44 495.062 1363.15C397.979 1370 298.569 1364.98 203.829 1356.9C107.709 1348.7 -6.81306 1342.91 -61.835 1315.65C-119.519 1287.07 -69.7735 1246.76 -87.6474 1212.49C-101.158 1186.58 -180.876 1163.23 -154.479 1138Z" fill="url(#paint3_linear_547_210)" fill-opacity="0.6"/>
</g>
<defs>
<filter id="filter0_f_547_210" x="-728.389" y="-23.939" width="1228.09" height="1119.89" filterUnits="userSpaceOnUse" color-interpolation-filters="sRGB">
<feFlood flood-opacity="0" result="BackgroundImageFix"/>
<feBlend mode="normal" in="SourceGraphic" in2="BackgroundImageFix" result="shape"/>
<feGaussianBlur stdDeviation="150" result="effect1_foregroundBlur_547_210"/>
</filter>
<filter id="filter1_f_547_210" x="225.771" y="-60.4443" width="1191.7" height="1227.68" filterUnits="userSpaceOnUse" color-interpolation-filters="sRGB">
<feFlood flood-opacity="0" result="BackgroundImageFix"/>
<feBlend mode="normal" in="SourceGraphic" in2="BackgroundImageFix" result="shape"/>
<feGaussianBlur stdDeviation="150" result="effect1_foregroundBlur_547_210"/>
</filter>
<filter id="filter2_f_547_210" x="-395.78" y="-597.875" width="1669.77" height="1063.25" filterUnits="userSpaceOnUse" color-interpolation-filters="sRGB">
<feFlood flood-opacity="0" result="BackgroundImageFix"/>
<feBlend mode="normal" in="SourceGraphic" in2="BackgroundImageFix" result="shape"/>
<feGaussianBlur stdDeviation="150" result="effect1_foregroundBlur_547_210"/>
</filter>
<filter id="filter3_f_547_210" x="-459.799" y="603.282" width="1746.42" height="1063.09" filterUnits="userSpaceOnUse" color-interpolation-filters="sRGB">
<feFlood flood-opacity="0" result="BackgroundImageFix"/>
<feBlend mode="normal" in="SourceGraphic" in2="BackgroundImageFix" result="shape"/>
<feGaussianBlur stdDeviation="150" result="effect1_foregroundBlur_547_210"/>
</filter>
<linearGradient id="paint0_linear_547_210" x1="-401.753" y1="380.962" x2="-59.5466" y2="723.169" gradientUnits="userSpaceOnUse">
<stop stop-color="#3D73C4"/>
<stop offset="1" stop-color="#B4F9B7" stop-opacity="0.74"/>
</linearGradient>
<linearGradient id="paint1_linear_547_210" x1="1092.91" y1="364.05" x2="688.978" y2="678.095" gradientUnits="userSpaceOnUse">
<stop stop-color="#3D73C4"/>
<stop offset="1" stop-color="#B4F9B7" stop-opacity="0.74"/>
</linearGradient>
<linearGradient id="paint2_linear_547_210" x1="100.829" y1="-274.933" x2="281.304" y2="180.921" gradientUnits="userSpaceOnUse">
<stop stop-color="#3D73C4"/>
<stop offset="1" stop-color="#B4F9B7" stop-opacity="0.74"/>
</linearGradient>
<linearGradient id="paint3_linear_547_210" x1="51.085" y1="926.35" x2="222.698" y2="1389.96" gradientUnits="userSpaceOnUse">
<stop stop-color="#3D73C4"/>
<stop offset="1" stop-color="#B4F9B7" stop-opacity="0.74"/>
</linearGradient>
</defs>
</svg>
