<svg width="50" height="53" viewBox="0 0 50 53" fill="none" xmlns="http://www.w3.org/2000/svg">
<path d="M27.3241 0L5.60889 13.1301L27.3241 25.2502L49.5442 12.6251L27.3241 0Z" fill="url(#paint0_linear_440_384)"/>
<path d="M27.3241 0L5.60889 13.1301L27.3241 25.2502L49.5442 12.6251L27.3241 0Z" fill="url(#paint1_linear_440_384)" fill-opacity="0.2"/>
<path d="M27.3242 52.5203V25.2501L49.5444 12.625V39.3902L27.3242 52.5203Z" fill="url(#paint2_linear_440_384)"/>
<path d="M5.60889 40.4001V13.1299L27.3241 25.25V52.5202L5.60889 40.4001Z" fill="url(#paint3_linear_440_384)"/>
<path d="M22.4086 11.6075L22.9777 11.9101C23.2565 12.0583 23.5269 12.1478 23.7889 12.1785C24.0563 12.2087 24.3054 12.1902 24.5362 12.1228C24.7724 12.0549 24.9803 11.9483 25.1599 11.8028C25.3724 11.6308 25.5105 11.4649 25.5742 11.3054C25.6379 11.1458 25.626 10.9935 25.5384 10.8486C25.4508 10.7036 25.2834 10.5654 25.0363 10.4339C24.8121 10.3147 24.5745 10.241 24.3237 10.2128C24.0782 10.1841 23.8358 10.2012 23.5964 10.2639C23.3599 10.3282 23.1455 10.4382 22.9532 10.5939L22.1556 10.1698C22.4364 9.94242 22.7724 9.77831 23.1636 9.67747C23.5547 9.57663 23.9638 9.54807 24.3907 9.5918C24.8204 9.63706 25.2279 9.76208 25.613 9.96686C25.9924 10.1686 26.265 10.3932 26.4306 10.6408C26.5988 10.8863 26.6455 11.1454 26.5709 11.4179C26.4987 11.6884 26.2906 11.9629 25.9466 12.2415C25.8075 12.3542 25.6208 12.4552 25.3867 12.5445C25.158 12.6333 24.8978 12.6918 24.606 12.7199C24.317 12.7495 24.0061 12.7352 23.6733 12.677C23.343 12.6167 23.0068 12.4957 22.6648 12.3138L21.9836 11.9516L22.4086 11.6075ZM21.8318 12.0746L22.253 11.7335L22.9342 12.0957C23.3337 12.3081 23.6225 12.5176 23.8006 12.7243C23.9786 12.931 24.0728 13.1304 24.0831 13.3225C24.0963 13.5162 24.0496 13.6967 23.943 13.864C23.8418 14.0307 23.709 14.1807 23.5446 14.3139C23.2865 14.5228 23.0073 14.6815 22.7068 14.7898C22.4093 14.8997 22.1004 14.9628 21.7802 14.9792C21.4628 14.9972 21.148 14.9706 20.8358 14.8996C20.5235 14.8286 20.2251 14.7174 19.9405 14.5661C19.6675 14.421 19.4444 14.2565 19.2713 14.0728C19.101 13.8907 18.9884 13.6985 18.9335 13.4962C18.8811 13.2919 18.898 13.0854 18.9843 12.8767C19.0731 12.666 19.2402 12.4613 19.4856 12.2626L20.2832 12.6867C20.0909 12.8423 19.9701 13.0038 19.9207 13.171C19.8743 13.3397 19.8997 13.5042 19.9969 13.6645C20.0995 13.8243 20.273 13.9692 20.5173 14.0991C20.7616 14.229 21.0081 14.3108 21.2568 14.3446C21.5109 14.3779 21.7613 14.3583 22.0079 14.2859C22.2574 14.2149 22.4973 14.0862 22.7275 13.8998C22.9577 13.7134 23.0916 13.5317 23.1291 13.3548C23.1691 13.1759 23.1239 13.0043 22.9936 12.8399C22.8686 12.6751 22.6711 12.5208 22.4009 12.3771L21.8318 12.0746ZM23.5743 15.8976C23.6932 15.8013 23.8348 15.7425 23.9991 15.7213C24.1689 15.6996 24.3342 15.7315 24.4951 15.817C24.6561 15.9026 24.7365 16.0014 24.7364 16.1133C24.7416 16.2247 24.6848 16.3285 24.5659 16.4248C24.4496 16.5191 24.3078 16.576 24.1406 16.5957C23.9763 16.617 23.8137 16.5848 23.6527 16.4992C23.4918 16.4136 23.4087 16.3151 23.4034 16.2037C23.401 16.0939 23.458 15.9918 23.5743 15.8976ZM32.5746 16.8856L31.7322 17.5677C31.2793 17.9344 30.8514 18.2193 30.4482 18.4224C30.0451 18.6255 29.6624 18.758 29.3002 18.8199C28.9381 18.8819 28.5918 18.8827 28.2615 18.8225C27.9366 18.7617 27.6218 18.6503 27.3171 18.4883C27.0757 18.36 26.8795 18.22 26.7286 18.0685C26.5776 17.917 26.4784 17.7505 26.431 17.5692C26.3889 17.3873 26.4053 17.189 26.48 16.9742C26.5548 16.7595 26.6973 16.5264 26.9077 16.2751C27.118 16.0239 27.404 15.7517 27.7658 15.4588L28.6082 14.7766C29.061 14.4099 29.4865 14.1271 29.8846 13.9281C30.2855 13.7307 30.6646 13.603 31.0217 13.5452C31.3813 13.4853 31.7224 13.4867 32.0447 13.5495C32.37 13.6139 32.6835 13.7263 32.9853 13.8868C33.2296 14.0167 33.4272 14.1574 33.5782 14.3089C33.7345 14.4599 33.8363 14.6243 33.8834 14.8021C33.933 14.9778 33.9203 15.1712 33.8452 15.3824C33.7755 15.5931 33.6367 15.8231 33.4289 16.0723C33.2211 16.3215 32.9363 16.5926 32.5746 16.8856ZM30.8164 17.2336L31.8903 16.3639C32.1382 16.1632 32.3386 15.9778 32.4913 15.8079C32.6494 15.6374 32.7639 15.4811 32.8347 15.3389C32.9056 15.1967 32.9339 15.0659 32.9196 14.9463C32.9083 14.8283 32.8583 14.7203 32.7698 14.6223C32.6867 14.5238 32.5675 14.4333 32.4123 14.3508C32.2226 14.2499 32.0229 14.1861 31.813 14.1594C31.6057 14.1306 31.3847 14.1438 31.1501 14.1988C30.9183 14.2555 30.6677 14.3581 30.3984 14.5068C30.1291 14.6554 29.8389 14.8558 29.5277 15.1077L28.4539 15.9774C28.2059 16.1781 28.0029 16.3637 27.8448 16.5342C27.6896 16.7062 27.5754 16.8661 27.5024 17.0139C27.4319 17.1597 27.3998 17.2936 27.4061 17.4157C27.4124 17.5379 27.4558 17.6492 27.5364 17.7497C27.6224 17.8498 27.7416 17.9403 27.8939 18.0213C28.0894 18.1252 28.2933 18.1895 28.5056 18.2142C28.718 18.2388 28.9426 18.2208 29.1794 18.1601C29.4217 18.0989 29.6773 17.9921 29.9463 17.8399C30.2177 17.6856 30.5078 17.4835 30.8164 17.2336Z" fill="white"/>
<path d="M30.8042 41.2876L30.7711 37.2595L31.8219 36.496L31.8652 41.779L30.8777 42.4966L30.8042 41.2876ZM30.9295 40.0963L31.2533 39.8512C31.2563 40.206 31.2273 40.5561 31.1666 40.9015C31.1058 41.2469 31.0092 41.5791 30.8767 41.898C30.7468 42.2118 30.581 42.5042 30.3792 42.7752C30.1775 43.0429 29.9383 43.2773 29.6618 43.4782C29.4511 43.6313 29.2586 43.7351 29.0842 43.7898C28.9097 43.8412 28.7587 43.8347 28.631 43.7703C28.5059 43.7007 28.4081 43.5671 28.3376 43.3695C28.2671 43.1686 28.2304 42.8924 28.2275 42.5408L28.1995 39.1279L29.2424 38.3702L29.2704 41.7929C29.2719 41.9687 29.2889 42.1037 29.3214 42.1979C29.3566 42.2902 29.4035 42.3527 29.4621 42.3855C29.5232 42.4131 29.5934 42.4145 29.6727 42.3897C29.7546 42.3596 29.8416 42.3111 29.9338 42.2442C30.1866 42.0605 30.3849 41.8542 30.5288 41.6253C30.6752 41.3912 30.7792 41.1454 30.8406 40.8879C30.9021 40.6271 30.9317 40.3633 30.9295 40.0963ZM33.8341 32.8041L33.8957 40.3038L32.8488 41.0644L32.7873 33.5647L33.8341 32.8041ZM36.8703 32.8281L36.878 33.7558L34.4288 35.5352L34.4212 34.6075L36.8703 32.8281ZM35.0663 32.8323L36.1131 32.0718L36.1546 37.1302C36.1559 37.2864 36.174 37.3944 36.2089 37.4542C36.2438 37.5139 36.2957 37.5336 36.3644 37.5132C36.4331 37.4927 36.5148 37.448 36.6096 37.3792C36.6781 37.3294 36.7413 37.2786 36.7991 37.2267C36.857 37.1749 36.9056 37.1297 36.9451 37.0913L36.9569 38.0551C36.8703 38.1541 36.7718 38.2551 36.6614 38.3583C36.5536 38.4595 36.4312 38.5599 36.2943 38.6594C36.0599 38.8297 35.8541 38.9301 35.6768 38.9606C35.4996 38.9879 35.3613 38.9263 35.2621 38.7757C35.1628 38.6219 35.1116 38.3611 35.1086 37.9933L35.0663 32.8323ZM40.1426 34.5029L40.1096 30.4747L41.1603 29.7112L41.2037 34.9943L40.2161 35.7118L40.1426 34.5029ZM40.268 33.3116L40.5918 33.0665C40.5947 33.4213 40.5658 33.7714 40.505 34.1167C40.4443 34.4621 40.3477 34.7943 40.2152 35.1132C40.0853 35.427 39.9195 35.7194 39.7177 35.9904C39.5159 36.2582 39.2768 36.4925 39.0002 36.6934C38.7896 36.8465 38.597 36.9503 38.4226 37.005C38.2482 37.0564 38.0971 37.0499 37.9694 36.9855C37.8444 36.916 37.7466 36.7823 37.6761 36.5847C37.6055 36.3838 37.5688 36.1076 37.5659 35.756L37.5379 32.3431L38.5808 31.5854L38.6089 35.0081C38.6103 35.1839 38.6273 35.3189 38.6599 35.4131C38.6951 35.5054 38.742 35.568 38.8005 35.6007C38.8617 35.6283 38.9319 35.6297 39.0112 35.6049C39.0931 35.5749 39.1801 35.5264 39.2723 35.4594C39.5251 35.2757 39.7234 35.0694 39.8672 34.8405C40.0137 34.6064 40.1176 34.3606 40.1791 34.1031C40.2405 33.8423 40.2701 33.5785 40.268 33.3116ZM43.1364 29.361L43.1709 33.565L42.1281 34.3227L42.0847 29.0396L43.0723 28.3221L43.1364 29.361ZM44.4269 27.3035L44.421 28.5161C44.363 28.5452 44.297 28.5833 44.2232 28.6304C44.1521 28.6755 44.0849 28.721 44.0217 28.767C43.8611 28.8837 43.7204 29.0137 43.5997 29.1571C43.479 29.2972 43.3782 29.4473 43.2974 29.6075C43.2192 29.7658 43.1597 29.9335 43.1187 30.1106C43.0778 30.2845 43.0554 30.4645 43.0516 30.6506L42.8262 30.78C42.8234 30.4447 42.8486 30.1138 42.9015 29.7871C42.9545 29.4605 43.0327 29.1515 43.1363 28.8601C43.2399 28.5687 43.3702 28.3071 43.5272 28.0751C43.6869 27.8379 43.8708 27.6438 44.0788 27.4926C44.1367 27.4505 44.1987 27.4121 44.2646 27.3773C44.3332 27.3373 44.3873 27.3127 44.4269 27.3035ZM46.885 30.9648C46.5611 31.2001 46.2695 31.3465 46.0104 31.4038C45.7512 31.4611 45.5298 31.4402 45.3462 31.3411C45.1652 31.2368 45.0247 31.0655 44.9248 30.827C44.8274 30.5834 44.7772 30.2826 44.7743 29.9245L44.7727 29.7292C44.7694 29.3223 44.8137 28.9185 44.9058 28.5175C44.9979 28.1134 45.1298 27.7277 45.3017 27.3606C45.4735 26.9934 45.68 26.6567 45.9212 26.3505C46.1625 26.0443 46.4292 25.7849 46.7215 25.5726C47.0244 25.3525 47.2922 25.2218 47.525 25.1804C47.7578 25.1357 47.9528 25.1708 48.11 25.2858C48.2673 25.4008 48.3867 25.589 48.4683 25.8506C48.5499 26.109 48.5923 26.4302 48.5954 26.8143L48.5999 27.3563L45.2501 29.7901L45.2428 28.9014L47.5655 27.2139L47.5647 27.1162C47.5578 26.915 47.5246 26.7508 47.4653 26.6236C47.406 26.4932 47.3153 26.4215 47.1933 26.4086C47.0713 26.3925 46.9142 26.4542 46.722 26.5939C46.5666 26.7068 46.4313 26.8476 46.3161 27.0165C46.2036 27.1801 46.1097 27.3662 46.0346 27.5747C45.9621 27.778 45.9083 27.9972 45.8731 28.2323C45.8379 28.4674 45.8214 28.7119 45.8235 28.9658L45.8251 29.1611C45.8269 29.3825 45.8523 29.5703 45.9012 29.7247C45.9528 29.8771 46.0266 29.9889 46.1225 30.06C46.2211 30.1259 46.3379 30.1491 46.4728 30.1296C46.6104 30.105 46.766 30.0296 46.9399 29.9033C47.1584 29.7445 47.3555 29.5489 47.5311 29.3165C47.7093 29.079 47.8634 28.8082 47.9934 28.5042L48.5243 28.7963C48.4361 29.0241 48.3162 29.2684 48.1647 29.5291C48.0158 29.7879 47.8351 30.042 47.6226 30.2914C47.41 30.5375 47.1641 30.762 46.885 30.9648Z" fill="white"/>
<path d="M9.36946 27.5294L7.67745 32.5234L6.45632 31.7969L8.6808 26.0459L9.46132 26.5102L9.36946 27.5294ZM10.875 34.4257L9.07571 27.3546L8.96195 26.2131L9.74667 26.68L12.1004 35.1547L10.875 34.4257ZM10.7736 31.7368L10.7823 32.7963L7.50501 30.8465L7.49632 29.787L10.7736 31.7368ZM15.4896 31.9139L16.4967 32.5131L16.5388 37.635C16.5427 38.1135 16.4565 38.4655 16.2802 38.691C16.1067 38.9214 15.8612 39.028 15.5437 39.0108C15.2262 38.9968 14.8562 38.8642 14.4338 38.6128C14.252 38.5047 14.0545 38.358 13.8414 38.1729C13.6311 37.9895 13.4275 37.7761 13.2307 37.5326C13.0366 37.2941 12.8744 37.0373 12.7441 36.7621L13.2372 36.2975C13.39 36.5925 13.5619 36.8486 13.753 37.066C13.9441 37.2866 14.1502 37.4626 14.3712 37.5941C14.595 37.7272 14.7848 37.7916 14.9407 37.7871C15.0993 37.7876 15.2199 37.72 15.3023 37.5844C15.3875 37.4537 15.429 37.2549 15.4269 36.988L15.3946 33.0575L15.4896 31.9139ZM12.4443 32.7939L12.4435 32.6914C12.4401 32.2877 12.4791 31.9465 12.5603 31.6677C12.6415 31.3856 12.7595 31.1723 12.9142 31.0279C13.0717 30.8852 13.2618 30.8152 13.4846 30.8182C13.7101 30.8228 13.9642 30.9092 14.2467 31.0773C14.546 31.2553 14.7983 31.4686 15.0036 31.7171C15.2117 31.9672 15.3838 32.2494 15.52 32.5636C15.659 32.8795 15.7676 33.2211 15.8458 33.5883C15.9267 33.9539 15.9898 34.3412 16.0349 34.7503L16.0372 35.0286C16.0011 35.3796 15.9409 35.6856 15.8568 35.9465C15.7754 36.2091 15.6657 36.4159 15.5278 36.5671C15.3898 36.7149 15.2178 36.7908 15.0119 36.7946C14.8059 36.7984 14.563 36.717 14.2833 36.5506C14.0035 36.3842 13.7512 36.1676 13.5263 35.901C13.3014 35.6344 13.1082 35.3332 12.9468 34.9975C12.7881 34.6634 12.6655 34.3087 12.5789 33.9332C12.4923 33.5578 12.4475 33.178 12.4443 32.7939ZM13.5513 33.3505L13.5521 33.453C13.554 33.6808 13.5753 33.9057 13.6161 34.1276C13.6569 34.3494 13.7185 34.561 13.8009 34.7622C13.8833 34.9602 13.9863 35.1382 14.1101 35.296C14.2339 35.4539 14.3811 35.5836 14.5518 35.6851C14.7812 35.8216 14.9681 35.8778 15.1127 35.8537C15.26 35.8279 15.3707 35.7399 15.4446 35.5895C15.5213 35.4376 15.5698 35.2446 15.5902 35.0105L15.5839 34.2439C15.5683 34.0403 15.5361 33.8413 15.4871 33.647C15.441 33.4544 15.3769 33.2737 15.2948 33.105C15.2127 32.9363 15.1084 32.7803 14.9819 32.6371C14.8555 32.4938 14.7055 32.3706 14.5321 32.2674C14.3642 32.1675 14.2177 32.1241 14.0925 32.1371C13.9674 32.1468 13.8648 32.204 13.7849 32.3088C13.7051 32.4135 13.645 32.5543 13.6047 32.7311C13.5672 32.9096 13.5494 33.1161 13.5513 33.3505ZM18.6121 34.8454L18.6466 39.0494L17.5388 38.3903L17.4955 33.1072L18.5445 33.7314L18.6121 34.8454ZM19.9836 34.5535L19.9767 35.7447C19.915 35.695 19.845 35.6436 19.7666 35.5905C19.691 35.5391 19.6197 35.4934 19.5525 35.4534C19.3819 35.3519 19.2324 35.2905 19.1042 35.2693C18.9759 35.2448 18.8689 35.2573 18.783 35.3066C18.6999 35.3575 18.6365 35.443 18.593 35.5628C18.5494 35.6794 18.5255 35.8272 18.5214 36.0061L18.282 35.8297C18.2792 35.4944 18.306 35.201 18.3624 34.9495C18.4188 34.698 18.5021 34.4981 18.6123 34.3499C18.7224 34.2016 18.8609 34.1188 19.0278 34.1015C19.1975 34.0826 19.3928 34.1389 19.6138 34.2703C19.6753 34.307 19.7411 34.3526 19.8112 34.4072C19.884 34.4603 19.9415 34.509 19.9836 34.5535ZM21.7673 35.6487L21.8107 40.9318L20.6986 40.2702L20.6553 34.9871L21.7673 35.6487ZM20.5684 33.5604C20.5668 33.3684 20.6215 33.2421 20.7324 33.1818C20.846 33.1231 20.9994 33.1511 21.1924 33.266C21.3854 33.3808 21.5384 33.535 21.6513 33.7285C21.7671 33.9237 21.8257 34.1173 21.8273 34.3094C21.8289 34.4982 21.7728 34.6219 21.6592 34.6806C21.5483 34.741 21.3963 34.7138 21.2033 34.5989C21.0103 34.4841 20.8559 34.3291 20.7402 34.1339C20.6272 33.9404 20.57 33.7492 20.5684 33.5604ZM24.7238 41.7514C24.8804 41.8446 25.02 41.892 25.1425 41.8936C25.265 41.8953 25.3621 41.8526 25.4338 41.7657C25.5082 41.6804 25.5476 41.5532 25.5517 41.384L26.5966 42.0056C26.594 42.3604 26.5099 42.6294 26.3443 42.8127C26.1788 42.9961 25.9569 43.0875 25.6785 43.0871C25.4028 43.0851 25.093 42.9817 24.7489 42.777C24.3992 42.5689 24.0937 42.3192 23.8324 42.0277C23.5711 41.7362 23.3527 41.4168 23.1773 41.0694C23.0046 40.7238 22.8736 40.364 22.7843 39.9902C22.6977 39.618 22.6529 39.248 22.6499 38.8802L22.6486 38.7239C22.6456 38.3561 22.6847 38.036 22.766 37.7637C22.8501 37.493 22.9764 37.2864 23.1451 37.1438C23.3165 37.0028 23.5318 36.9414 23.7908 36.9595C24.0499 36.9776 24.3528 37.0898 24.6997 37.2962C25.0662 37.5142 25.3886 37.7886 25.6669 38.1194C25.9481 38.4518 26.1682 38.816 26.3273 39.2119C26.4893 39.6095 26.5747 40.0151 26.5837 40.4285L25.5388 39.8069C25.5317 39.6148 25.4939 39.4239 25.4255 39.2342C25.3572 39.0445 25.2611 38.8675 25.1372 38.7031C25.0134 38.5387 24.8633 38.4041 24.6871 38.2993C24.4997 38.1878 24.3434 38.1401 24.2182 38.1564C24.0959 38.1743 24.0004 38.2422 23.9318 38.3601C23.8659 38.4764 23.8198 38.6239 23.7934 38.8025C23.7698 38.9796 23.7589 39.1739 23.7606 39.3855L23.7619 39.5417C23.7637 39.7566 23.7779 39.9691 23.8047 40.1794C23.8343 40.3914 23.8833 40.5954 23.9517 40.7916C24.0229 40.9862 24.1204 41.1657 24.2443 41.3301C24.3709 41.4961 24.5307 41.6366 24.7238 41.7514Z" fill="white"/>
<defs>
<linearGradient id="paint0_linear_440_384" x1="27.8291" y1="0.505005" x2="34.7437" y2="21.4432" gradientUnits="userSpaceOnUse">
<stop stop-color="#5E9736"/>
<stop offset="1" stop-color="#AEF27E"/>
</linearGradient>
<linearGradient id="paint1_linear_440_384" x1="20.4094" y1="15.0336" x2="17.6124" y2="19.4621" gradientUnits="userSpaceOnUse">
<stop offset="0.565" stop-color="#5E9736"/>
<stop offset="1" stop-color="#B1DE91"/>
</linearGradient>
<linearGradient id="paint2_linear_440_384" x1="35.4043" y1="18.685" x2="49.0394" y2="41.9152" gradientUnits="userSpaceOnUse">
<stop stop-color="#9EDF6F"/>
<stop offset="0.225" stop-color="#5E9736"/>
<stop offset="1" stop-color="#5E9736"/>
</linearGradient>
<linearGradient id="paint3_linear_440_384" x1="19.244" y1="21.2099" x2="9.14392" y2="41.9151" gradientUnits="userSpaceOnUse">
<stop stop-color="#A5DD7F"/>
<stop offset="0.19" stop-color="#61A82E"/>
<stop offset="1" stop-color="#458618"/>
</linearGradient>
</defs>
</svg>
