<svg width="43" height="52" viewBox="0 0 43 52" fill="none" xmlns="http://www.w3.org/2000/svg">
<path d="M21.2529 0L0 12.8506L21.2529 24.7126L43 12.3563L21.2529 0Z" fill="url(#paint0_linear_411_2528)"/>
<path d="M21.2529 0L0 12.8506L21.2529 24.7126L43 12.3563L21.2529 0Z" fill="url(#paint1_linear_411_2528)" fill-opacity="0.2"/>
<path d="M21.2529 51.4024V24.7128L43.0001 12.3564V38.5518L21.2529 51.4024Z" fill="url(#paint2_linear_411_2528)"/>
<path d="M0 39.5402V12.8506L21.2529 24.7127V51.4023L0 39.5402Z" fill="url(#paint3_linear_411_2528)"/>
<path d="M16.8133 15.0644L16.2365 15.5315L12.1279 13.3469L12.6325 12.9382L16.704 12.3999C17.2048 12.3337 17.6102 12.2676 17.9202 12.2016C18.2356 12.1351 18.4889 12.0611 18.6801 11.9795C18.8768 11.8974 19.0472 11.798 19.1914 11.6812C19.3735 11.5337 19.4948 11.3776 19.5553 11.213C19.6212 11.0478 19.6165 10.8858 19.5413 10.727C19.466 10.5682 19.3119 10.4269 19.0791 10.3031C18.8003 10.1549 18.5194 10.07 18.2365 10.0485C17.9589 10.0265 17.6894 10.0597 17.428 10.148C17.1665 10.2364 16.9257 10.3696 16.7056 10.5479L15.908 10.1238C16.2192 9.87182 16.5814 9.68261 16.9947 9.55618C17.4079 9.42976 17.8427 9.38608 18.2992 9.42516C18.7582 9.46219 19.2104 9.59914 19.6559 9.83601C20.0525 10.0469 20.3297 10.2774 20.4874 10.5276C20.6477 10.7757 20.6912 11.0296 20.618 11.2893C20.5503 11.5486 20.3684 11.798 20.0724 12.0377C19.9105 12.1688 19.7145 12.2851 19.4843 12.3867C19.2595 12.4878 19.0103 12.5759 18.7366 12.651C18.4658 12.7276 18.1789 12.7922 17.8758 12.8448C17.5756 12.899 17.2679 12.9458 16.9526 12.9852L13.6661 13.391L16.8133 15.0644ZM17.5612 15.7369C17.6801 15.6407 17.8217 15.5819 17.986 15.5607C18.1557 15.5389 18.321 15.5708 18.482 15.6564C18.6429 15.742 18.7233 15.8407 18.7232 15.9527C18.7285 16.0641 18.6716 16.1679 18.5527 16.2642C18.4364 16.3584 18.2946 16.4154 18.1274 16.4351C17.9631 16.4563 17.8005 16.4242 17.6395 16.3386C17.4786 16.253 17.3955 16.1545 17.3902 16.0431C17.3878 15.9332 17.4448 15.8312 17.5612 15.7369ZM26.5614 16.7249L25.719 17.4071C25.2662 17.7738 24.8382 18.0587 24.435 18.2618C24.0319 18.4648 23.6492 18.5973 23.2871 18.6593C22.9249 18.7212 22.5786 18.7221 22.2483 18.6618C21.9234 18.6011 21.6086 18.4897 21.3039 18.3277C21.0625 18.1993 20.8663 18.0594 20.7154 17.9078C20.5644 17.7563 20.4652 17.5899 20.4178 17.4085C20.3757 17.2267 20.3921 17.0284 20.4668 16.8136C20.5416 16.5988 20.6842 16.3658 20.8945 16.1145C21.1048 15.8632 21.3909 15.5911 21.7526 15.2982L22.595 14.616C23.0479 14.2493 23.4733 13.9664 23.8714 13.7675C24.2723 13.57 24.6514 13.4424 25.0085 13.3845C25.3682 13.3246 25.7092 13.3261 26.0316 13.3889C26.3568 13.4532 26.6703 13.5657 26.9721 13.7261C27.2164 13.856 27.4141 13.9967 27.565 14.1483C27.7213 14.2993 27.8231 14.4636 27.8702 14.6414C27.9198 14.8171 27.9071 15.0106 27.832 15.2218C27.7623 15.4325 27.6235 15.6624 27.4157 15.9117C27.2079 16.1609 26.9232 16.432 26.5614 16.7249ZM24.8032 17.0729L25.8771 16.2033C26.1251 16.0025 26.3254 15.8172 26.4781 15.6473C26.6362 15.4768 26.7507 15.3205 26.8215 15.1783C26.8924 15.0361 26.9207 14.9052 26.9064 14.7856C26.8951 14.6676 26.8451 14.5596 26.7566 14.4616C26.6735 14.3632 26.5543 14.2726 26.3991 14.1901C26.2094 14.0893 26.0097 14.0255 25.7998 13.9987C25.5925 13.97 25.3716 13.9831 25.1369 14.0382C24.9051 14.0948 24.6545 14.1975 24.3852 14.3461C24.116 14.4948 23.8257 14.6951 23.5146 14.9471L22.4407 15.8167C22.1928 16.0175 21.9897 16.2031 21.8316 16.3735C21.6764 16.5455 21.5622 16.7054 21.4892 16.8532C21.4187 16.999 21.3866 17.133 21.3929 17.2551C21.3992 17.3772 21.4427 17.4886 21.5232 17.5891C21.6092 17.6891 21.7284 17.7796 21.8807 17.8606C22.0762 17.9645 22.2801 18.0288 22.4924 18.0535C22.7048 18.0782 22.9294 18.0602 23.1663 17.9995C23.4085 17.9382 23.6641 17.8315 23.9331 17.6792C24.2046 17.5249 24.4946 17.3228 24.8032 17.0729Z" fill="white"/>
<path d="M27.2671 35.0954L28.3737 34.3349C28.3481 34.8304 28.2429 35.3266 28.0581 35.8235C27.8733 36.3171 27.6141 36.7834 27.2805 37.2222C26.9469 37.661 26.5413 38.0444 26.0638 38.3726C25.6962 38.6252 25.3643 38.7748 25.0679 38.8214C24.7742 38.8629 24.5215 38.809 24.3098 38.6599C24.1008 38.5056 23.9396 38.2596 23.8263 37.9218C23.7129 37.5807 23.654 37.1514 23.6498 36.6339L23.6453 36.0919C23.6411 35.5743 23.6936 35.0685 23.8029 34.5744C23.9121 34.0803 24.0702 33.6149 24.277 33.1781C24.4865 32.7363 24.7382 32.3342 25.0319 31.9719C25.3284 31.6077 25.6604 31.2993 26.0279 31.0467C26.5055 30.7185 26.9101 30.5485 27.2418 30.5365C27.5735 30.5213 27.8321 30.6366 28.0176 30.8823C28.2031 31.128 28.3166 31.4788 28.3581 31.9347L27.2514 32.6953C27.2275 32.4106 27.1718 32.1936 27.0842 32.0442C26.9994 31.8931 26.872 31.8218 26.7021 31.8306C26.5349 31.8342 26.3131 31.931 26.0368 32.1209C25.8221 32.2684 25.6334 32.4472 25.4706 32.6573C25.3104 32.8656 25.1775 33.1043 25.0718 33.3733C24.966 33.6391 24.8875 33.9353 24.8363 34.2619C24.7849 34.5852 24.7608 34.9357 24.7639 35.3133L24.7685 35.865C24.7714 36.2263 24.7982 36.5336 24.8489 36.7869C24.8995 37.0402 24.9766 37.231 25.0802 37.3595C25.1838 37.488 25.3165 37.549 25.4783 37.5426C25.6401 37.5361 25.8323 37.4564 26.055 37.3033C26.3259 37.1171 26.5455 36.9138 26.7137 36.6935C26.8845 36.4714 27.0133 36.2289 27.1002 35.9663C27.1898 35.7018 27.2454 35.4115 27.2671 35.0954ZM30.2529 30.0825L30.2963 35.3655L29.2299 36.0984L29.1866 30.8154L30.2529 30.0825ZM29.1028 29.4834C29.1012 29.2913 29.1536 29.095 29.2598 28.8943C29.3688 28.6917 29.5158 28.5268 29.7009 28.3996C29.886 28.2724 30.0327 28.2354 30.1411 28.2886C30.2521 28.3399 30.3084 28.4616 30.31 28.6537C30.3115 28.8425 30.2578 29.0382 30.1489 29.2407C30.0426 29.4414 29.8969 29.6054 29.7118 29.7326C29.5267 29.8598 29.3787 29.8977 29.2676 29.8464C29.1593 29.7932 29.1043 29.6722 29.1028 29.4834ZM33.3273 27.9695L33.3349 28.8972L30.84 30.6119L30.8324 29.6842L33.3273 27.9695ZM31.4897 27.9264L32.5561 27.1935L32.5976 32.2519C32.5989 32.4081 32.6173 32.5166 32.6529 32.5772C32.6884 32.6379 32.7412 32.6589 32.8112 32.6403C32.8812 32.6216 32.9645 32.5791 33.0611 32.5127C33.1308 32.4648 33.1952 32.4157 33.2541 32.3653C33.313 32.315 33.3626 32.2711 33.4028 32.2337L33.4147 33.1977C33.3265 33.2944 33.2261 33.3928 33.1136 33.493C33.0038 33.5914 32.8792 33.6885 32.7397 33.7844C32.5009 33.9485 32.2913 34.0435 32.1107 34.0694C31.9301 34.092 31.7893 34.0268 31.6882 33.8736C31.5871 33.7172 31.5351 33.4551 31.5321 33.0873L31.4897 27.9264ZM35.3497 31.3032L36.4781 25.804L37.6169 25.0213L35.9204 32.3054C35.8812 32.4633 35.8301 32.6408 35.767 32.8381C35.7065 33.0335 35.6245 33.2355 35.521 33.4441C35.4176 33.656 35.287 33.8602 35.1295 34.0569C34.9746 34.2517 34.7858 34.4257 34.5632 34.5787C34.4666 34.6451 34.3807 34.6959 34.3054 34.7313C34.2302 34.7666 34.1509 34.7999 34.0675 34.831L34.0596 33.8642C34.0864 33.849 34.1173 33.8295 34.1522 33.8055C34.1897 33.7829 34.2219 33.7624 34.2488 33.744C34.4044 33.6371 34.5329 33.5258 34.6345 33.4101C34.7361 33.2978 34.8174 33.1715 34.8783 33.0315C34.9419 32.8928 34.9945 32.7323 35.0362 32.5498L35.3497 31.3032ZM34.7357 27.0016L35.7535 30.2154L35.9377 31.4588L35.2067 32.1232L33.5889 27.7898L34.7357 27.0016Z" fill="white"/>
<path d="M7.57635 32.2022L8.73922 32.8736C8.73573 33.3301 8.64597 33.6851 8.46994 33.9384C8.29372 34.1884 8.03545 34.3157 7.69512 34.3202C7.3548 34.3247 6.93374 34.1822 6.43194 33.8924C6.04573 33.6695 5.69305 33.3905 5.3739 33.0554C5.05738 32.7188 4.78069 32.3408 4.54383 31.9213C4.30961 31.5003 4.12273 31.05 3.98321 30.5706C3.8435 30.0879 3.75865 29.5882 3.72868 29.0715L3.69729 28.5304C3.66732 28.0137 3.69947 27.5815 3.79374 27.2339C3.88801 26.8863 4.03661 26.6297 4.23953 26.4642C4.44508 26.2971 4.69829 26.2234 4.99915 26.2432C5.30284 26.2646 5.64778 26.3868 6.034 26.6098C6.5358 26.8995 6.96629 27.2517 7.32548 27.6664C7.68449 28.0778 7.97058 28.5241 8.18377 29.0052C8.39696 29.4864 8.53724 29.9788 8.60461 30.4826L7.44173 29.8112C7.40183 29.4992 7.33075 29.2132 7.22847 28.9531C7.12902 28.6947 6.98737 28.4606 6.80355 28.2508C6.62236 28.0394 6.38658 27.8499 6.09621 27.6822C5.87068 27.552 5.67476 27.486 5.50846 27.4842C5.34497 27.484 5.21249 27.5489 5.11104 27.6788C5.0094 27.8054 4.93878 27.9971 4.89917 28.2537C4.85938 28.5072 4.85042 28.8224 4.87229 29.1993L4.90424 29.7502C4.92517 30.1109 4.9693 30.4489 5.03663 30.7642C5.10396 31.0794 5.19694 31.3671 5.31557 31.6272C5.43419 31.8873 5.58109 32.1181 5.75627 32.3198C5.93145 32.5214 6.13603 32.6898 6.37002 32.8249C6.65474 32.9893 6.88289 33.0708 7.05446 33.0693C7.22885 33.0695 7.35672 32.9957 7.43806 32.8479C7.52222 32.7018 7.56832 32.4865 7.57635 32.2022ZM10.5689 31.089L10.8748 36.3633L9.75423 35.7163L9.44826 30.442L10.5689 31.089ZM9.29212 29.0185C9.281 28.8268 9.32815 28.7001 9.43356 28.6385C9.54179 28.5785 9.69316 28.6046 9.88768 28.7169C10.0822 28.8292 10.2395 28.9813 10.3596 29.1732C10.4826 29.3666 10.5496 29.5592 10.5607 29.751C10.5716 29.9394 10.523 30.0637 10.4148 30.1237C10.3094 30.1853 10.1594 30.16 9.96488 30.0477C9.77036 29.9354 9.61163 29.7825 9.4887 29.589C9.36858 29.3972 9.30306 29.207 9.29212 29.0185ZM13.7995 32.9542L13.8533 33.8804L11.2315 32.3667L11.1778 31.4405L13.7995 32.9542ZM11.8045 30.5492L12.9251 31.1961L13.2181 36.2462C13.2271 36.4022 13.2524 36.533 13.294 36.6387C13.3355 36.7444 13.3938 36.833 13.4688 36.9045C13.5438 36.9761 13.632 37.0412 13.7335 37.0998C13.8068 37.1421 13.8742 37.1763 13.9356 37.2023C13.9971 37.2284 14.0487 37.2487 14.0904 37.2634L14.1506 38.231C14.0596 38.2131 13.9556 38.1813 13.8385 38.1357C13.7243 38.0917 13.5939 38.0274 13.4473 37.9427C13.1964 37.7979 12.9736 37.6222 12.7791 37.4156C12.5844 37.2058 12.4285 36.9604 12.3113 36.6791C12.194 36.3947 12.1247 36.0689 12.1034 35.7016L11.8045 30.5492ZM16.1563 38.8472L17.1106 34.8658L18.3073 35.5567L16.8244 40.571C16.7896 40.6765 16.7429 40.7862 16.6841 40.8998C16.6281 41.0151 16.5491 41.1093 16.447 41.1823C16.3452 41.2586 16.2137 41.2926 16.0524 41.2843C15.894 41.2776 15.6978 41.2067 15.4638 41.0716C15.3623 41.0131 15.2717 40.9528 15.1918 40.891C15.1119 40.8292 15.0275 40.7601 14.9386 40.6836L14.8826 39.7184C14.911 39.738 14.9435 39.7583 14.9802 39.7795C15.0198 39.8055 15.0538 39.8267 15.0819 39.8429C15.2455 39.9373 15.3794 39.9927 15.4839 40.0091C15.5886 40.0287 15.6705 40.0084 15.7297 39.9484C15.7919 39.8932 15.8411 39.8023 15.8774 39.6756L16.1563 38.8472ZM15.2796 33.8087L16.5409 38.2919L16.8017 39.7569L16.0414 39.4734L14.0744 33.1129L15.2796 33.8087Z" fill="white"/>
<defs>
<linearGradient id="paint0_linear_411_2528" x1="21.7471" y1="0.494253" x2="28.5146" y2="20.9867" gradientUnits="userSpaceOnUse">
<stop stop-color="#5E9736"/>
<stop offset="1" stop-color="#AEF27E"/>
</linearGradient>
<linearGradient id="paint1_linear_411_2528" x1="14.4854" y1="14.7135" x2="11.748" y2="19.0477" gradientUnits="userSpaceOnUse">
<stop offset="0.565" stop-color="#5E9736"/>
<stop offset="1" stop-color="#B1DE91"/>
</linearGradient>
<linearGradient id="paint2_linear_411_2528" x1="29.161" y1="18.2875" x2="42.5058" y2="41.0231" gradientUnits="userSpaceOnUse">
<stop stop-color="#9EDF6F"/>
<stop offset="0.225" stop-color="#5E9736"/>
<stop offset="1" stop-color="#5E9736"/>
</linearGradient>
<linearGradient id="paint3_linear_411_2528" x1="13.3448" y1="20.7586" x2="3.45977" y2="41.023" gradientUnits="userSpaceOnUse">
<stop stop-color="#A5DD7F"/>
<stop offset="0.19" stop-color="#61A82E"/>
<stop offset="1" stop-color="#458618"/>
</linearGradient>
</defs>
</svg>
