<svg width="56" height="58" viewBox="0 0 56 58" fill="none" xmlns="http://www.w3.org/2000/svg">
    <path d="M26.7511 0.277832L3 14.6389L26.7511 27.8953L51.0545 14.0866L26.7511 0.277832Z" fill="url(#paint0_linear_440_239)"/>
    <path d="M26.7511 0.277832L3 14.6389L26.7511 27.8953L51.0545 14.0866L26.7511 0.277832Z" fill="url(#paint1_linear_440_239)" fill-opacity="0.2"/>
    <path d="M26.751 57.7226V27.8957L51.0544 14.0869V43.3615L26.751 57.7226Z" fill="url(#paint2_linear_440_239)"/>
    <path d="M3 44.4656V14.6387L26.7511 27.8951V57.722L3 44.4656Z" fill="url(#paint3_linear_440_239)"/>
    <path d="M33.7731 41.2105L33.6224 43.8087C33.5399 43.9846 33.4121 44.204 33.2389 44.4668C33.0659 44.7264 32.8316 45.0048 32.536 45.3019C32.2433 45.5941 31.8708 45.8788 31.4184 46.156C31.0492 46.3822 30.7136 46.5158 30.4114 46.5568C30.1122 46.5929 29.8571 46.536 29.6463 46.3863C29.4385 46.2316 29.2842 45.9845 29.1834 45.6451C29.0856 45.3007 29.0521 44.8637 29.0828 44.3339L29.1147 43.7831C29.1455 43.2534 29.2256 42.7483 29.3552 42.2677C29.4876 41.7854 29.6663 41.3358 29.8912 40.919C30.1163 40.499 30.3845 40.1215 30.6957 39.7866C31.0071 39.4485 31.3585 39.1595 31.7498 38.9197C32.2133 38.6357 32.5951 38.4927 32.895 38.4906C33.1979 38.4837 33.4272 38.5907 33.583 38.8118C33.7416 39.0312 33.8337 39.3352 33.8594 39.7238L33.0559 40.2162C33.0347 39.9815 32.9761 39.7918 32.8801 39.6469C32.7869 39.5003 32.6454 39.424 32.4557 39.418C32.2662 39.4088 32.016 39.4994 31.7051 39.6899C31.4248 39.8617 31.1785 40.0706 30.9661 40.3167C30.7537 40.5628 30.5744 40.8388 30.4282 41.1447C30.282 41.4506 30.1663 41.7832 30.0812 42.1425C29.9989 42.5 29.9462 42.8787 29.923 43.2784L29.8905 43.839C29.8667 44.2485 29.8857 44.5894 29.9476 44.8618C30.0122 45.1325 30.1142 45.3348 30.2537 45.4688C30.3933 45.5994 30.5652 45.6587 30.7694 45.6464C30.9763 45.6324 31.2088 45.5463 31.4669 45.3881C31.7528 45.213 31.9862 45.0433 32.167 44.8792C32.348 44.7119 32.4908 44.5586 32.5952 44.4194C32.6999 44.2769 32.7806 44.1537 32.8375 44.0499L32.9297 42.4608L31.5266 43.3206L31.5708 42.5601L33.7731 41.2105ZM35.8119 39.082L35.554 43.5277L34.7838 43.9997L35.0898 38.7253L35.8392 38.2661L35.8119 39.082ZM37.2689 37.3618L37.2161 38.2027C37.1532 38.2256 37.0927 38.2533 37.0346 38.2858C36.9794 38.3133 36.9158 38.3491 36.8436 38.3934C36.666 38.5022 36.5073 38.6308 36.3675 38.7791C36.2277 38.9275 36.1073 39.0891 36.0061 39.2639C35.905 39.4387 35.8219 39.6244 35.757 39.8209C35.695 40.0124 35.6501 40.2092 35.6224 40.4111L35.3974 40.69C35.4159 40.3715 35.4596 40.0564 35.5285 39.7446C35.6003 39.4311 35.6992 39.1323 35.8255 38.848C35.9519 38.5606 36.106 38.3031 36.2879 38.0757C36.4727 37.8434 36.6872 37.6524 36.9314 37.5027C36.9869 37.4687 37.0503 37.4377 37.1215 37.4097C37.1929 37.3785 37.242 37.3625 37.2689 37.3618ZM38.8159 36.4419L38.5099 41.7163L37.7356 42.1908L38.0415 36.9165L38.8159 36.4419ZM38.0644 35.5532C38.0729 35.4069 38.1175 35.2605 38.1983 35.1138C38.2819 34.9655 38.3986 34.8454 38.5485 34.7535C38.6956 34.6634 38.805 34.6448 38.8769 34.698C38.9516 34.7494 38.9846 34.8482 38.9762 34.9944C38.9681 35.1342 38.9208 35.2791 38.8345 35.4292C38.7511 35.5743 38.6359 35.6919 38.4888 35.782C38.3389 35.8739 38.2279 35.8949 38.1559 35.845C38.0868 35.7902 38.0563 35.6929 38.0644 35.5532ZM42.6452 38.1949L43.0201 31.7312L43.7945 31.2566L43.3602 38.7441L42.6524 39.1778L42.6452 38.1949ZM39.7045 38.4972L39.7105 38.3949C39.7338 37.9919 39.7967 37.6008 39.899 37.2215C40.0042 36.8373 40.1415 36.479 40.3107 36.1465C40.4826 35.8123 40.6805 35.5156 40.9044 35.2561C41.1312 34.9918 41.3792 34.7771 41.6484 34.6121C41.9315 34.4387 42.1752 34.3458 42.3793 34.3335C42.5864 34.3163 42.7571 34.3731 42.8914 34.5039C43.0287 34.6298 43.1314 34.8208 43.1995 35.0768C43.2676 35.3328 43.307 35.6455 43.3177 36.0151L43.2917 36.4636C43.2387 36.869 43.1589 37.2533 43.0522 37.6164C42.9482 37.9779 42.815 38.3134 42.6525 38.623C42.4927 38.9309 42.3026 39.2088 42.0821 39.4567C41.8618 39.7014 41.6087 39.9114 41.3228 40.0866C41.0592 40.2481 40.8215 40.3295 40.61 40.3306C40.4012 40.33 40.2247 40.258 40.0805 40.1145C39.939 39.9692 39.8347 39.7605 39.7675 39.4882C39.7033 39.211 39.6823 38.8807 39.7045 38.4972ZM40.4848 37.9203L40.4789 38.0227C40.4636 38.2859 40.4715 38.5193 40.5025 38.7228C40.5363 38.9246 40.5967 39.0835 40.6837 39.1995C40.7706 39.3154 40.8861 39.3779 41.0302 39.3868C41.1744 39.3924 41.3506 39.3315 41.5587 39.2039C41.8141 39.0474 42.0273 38.8556 42.1984 38.6285C42.3723 38.3997 42.5152 38.1507 42.6272 37.8815C42.7392 37.6123 42.83 37.3388 42.8997 37.0611L42.9678 35.8863C42.9449 35.728 42.9063 35.5855 42.8521 35.4589C42.8008 35.3273 42.729 35.2272 42.6366 35.1584C42.5472 35.0847 42.4326 35.0531 42.2928 35.0635C42.1558 35.0723 41.9901 35.1362 41.7958 35.2552C41.5849 35.3845 41.4001 35.5479 41.2414 35.7454C41.0857 35.938 40.954 36.1534 40.8465 36.3917C40.7392 36.6267 40.6552 36.8757 40.5944 37.1386C40.5366 37.3965 40.5001 37.6571 40.4848 37.9203Z" fill="white"/>
    <path d="M7.03974 34.4067L6.99978 35.0955L4.08796 33.3631L4.12791 32.6743L7.03974 34.4067ZM4.6058 27.063L4.23525 33.4507L3.50635 33.0171L3.87689 26.6294L4.6058 27.063ZM6.82579 31.2249L6.78584 31.9137L4.25923 30.4106L4.29919 29.7218L6.82579 31.2249ZM7.33256 28.6853L7.29235 29.3785L4.41829 27.6686L4.4585 26.9754L7.33256 28.6853ZM8.71193 32.2518L8.49535 35.9852L7.79666 35.5696L8.07203 30.8227L8.73295 31.2159L8.71193 32.2518ZM8.47729 33.333L8.18725 33.1469C8.2086 32.8237 8.26754 32.5486 8.36406 32.3217C8.46074 32.0917 8.58804 31.9178 8.74595 31.8C8.90386 31.6821 9.08675 31.6276 9.29462 31.6362C9.50518 31.6435 9.73383 31.7205 9.98057 31.8673C10.182 31.9872 10.3614 32.1272 10.5188 32.2874C10.6764 32.4447 10.8078 32.6258 10.9132 32.8307C11.021 33.037 11.0988 33.2679 11.1465 33.5232C11.1944 33.7756 11.2092 34.0582 11.1911 34.3712L11.0106 37.4817L10.3082 37.0637L10.4891 33.9445C10.5035 33.6959 10.4836 33.4783 10.4293 33.2916C10.3752 33.1021 10.2896 32.9378 10.1727 32.7986C10.0559 32.6565 9.9094 32.533 9.73315 32.4282C9.55942 32.3248 9.39834 32.2728 9.24991 32.2723C9.10399 32.2732 8.97509 32.3176 8.86321 32.4053C8.75384 32.4946 8.66461 32.6185 8.5955 32.777C8.52908 32.9342 8.48968 33.1195 8.47729 33.333ZM13.7625 39.2096C13.478 39.0404 13.2232 38.8313 12.998 38.5823C12.7755 38.3319 12.5871 38.0549 12.4328 37.7513C12.281 37.4493 12.1692 37.1316 12.0973 36.7984C12.0255 36.4652 11.9993 36.1319 12.0186 35.7984L12.0293 35.6142C12.0517 35.2281 12.1207 34.9137 12.2364 34.6708C12.3522 34.4251 12.5006 34.2471 12.6815 34.1369C12.8624 34.0266 13.063 33.9811 13.2833 34.0002C13.5036 34.0193 13.7283 34.097 13.9574 34.2333C14.2495 34.4071 14.4979 34.6154 14.7026 34.8582C14.9098 35.1025 15.0753 35.3704 15.199 35.6619C15.323 35.9504 15.4094 36.256 15.4584 36.5787C15.5076 36.8984 15.5225 37.225 15.5032 37.5584L15.482 37.9225L12.4305 36.107L12.4689 35.4446L14.8218 36.8444L14.8253 36.783C14.8275 36.5664 14.8016 36.3392 14.7477 36.1014C14.6963 35.865 14.6051 35.6413 14.474 35.4302C14.343 35.2192 14.1579 35.0425 13.9187 34.9002C13.7601 34.8058 13.6118 34.7584 13.4738 34.758C13.3359 34.7546 13.2147 34.8005 13.1102 34.8957C13.0057 34.9909 12.9207 35.1324 12.8551 35.3203C12.7895 35.5082 12.7484 35.7455 12.7318 36.0321L12.7211 36.2164C12.708 36.4416 12.7221 36.6694 12.7635 36.8997C12.8075 37.1286 12.8768 37.3484 12.9714 37.5589C13.0685 37.771 13.1888 37.9636 13.3325 38.1368C13.4786 38.3115 13.6474 38.4558 13.8387 38.5696C14.0855 38.7164 14.2978 38.7823 14.4758 38.7671C14.6538 38.752 14.8127 38.6847 14.9525 38.5651L15.3528 39.2072C15.2557 39.3098 15.1351 39.3908 14.991 39.4503C14.8469 39.5098 14.6728 39.5243 14.4688 39.4937C14.2674 39.4646 14.0319 39.3699 13.7625 39.2096ZM17.1041 36.9678L16.872 40.9688L16.1734 40.5532L16.4487 35.8063L17.1285 36.2107L17.1041 36.9678ZM18.4255 36.9551L18.3779 37.7074C18.3208 37.6583 18.266 37.6166 18.2133 37.5822C18.1632 37.5464 18.1055 37.509 18.04 37.4701C17.8789 37.3742 17.735 37.3188 17.6082 37.3039C17.4814 37.289 17.3722 37.3088 17.2805 37.3631C17.1888 37.4175 17.1135 37.5028 17.0546 37.6191C16.9985 37.7339 16.9579 37.8732 16.9327 38.0367L16.7287 38.0515C16.7453 37.7649 16.7849 37.51 16.8473 37.287C16.9122 37.0654 17.0019 36.8888 17.1164 36.7572C17.231 36.6226 17.3707 36.5484 17.5356 36.5346C17.7032 36.5193 17.8978 36.5776 18.1193 36.7094C18.1697 36.7394 18.2272 36.7811 18.2918 36.8347C18.3566 36.8853 18.4011 36.9255 18.4255 36.9551ZM21.6417 38.8957L22.2762 39.2732L22.0066 43.9192C21.9824 44.3375 21.8887 44.6508 21.7255 44.8594C21.5623 45.0679 21.3454 45.1703 21.0747 45.1666C20.8064 45.1673 20.5023 45.0666 20.1624 44.8644C20.0214 44.7805 19.8567 44.6553 19.6685 44.4888C19.4825 44.3267 19.3012 44.1296 19.1245 43.8974C18.9502 43.6697 18.8073 43.4167 18.6958 43.1386L19.0901 42.8739C19.2474 43.2156 19.4165 43.4887 19.5974 43.6931C19.7808 43.8991 19.9644 44.0567 20.1482 44.1661C20.3698 44.2979 20.5639 44.3635 20.7307 44.3628C20.8974 44.3622 21.0303 44.293 21.1295 44.1553C21.231 44.022 21.2897 43.818 21.3057 43.543L21.5169 39.9017L21.6417 38.8957ZM18.6873 39.6479L18.6926 39.5558C18.7137 39.1931 18.7693 38.8858 18.8594 38.6338C18.9523 38.3804 19.0741 38.1882 19.225 38.0571C19.3784 37.9274 19.5578 37.8648 19.7633 37.869C19.969 37.8704 20.1965 37.9452 20.4458 38.0935C20.7026 38.2463 20.9236 38.4322 21.1089 38.6514C21.2968 38.8691 21.4517 39.1171 21.5736 39.3953C21.6982 39.6722 21.7915 39.9728 21.8534 40.297C21.9153 40.6213 21.9512 40.968 21.9611 41.3369L21.9377 41.7405C21.8898 42.0721 21.8175 42.3528 21.7208 42.5828C21.6266 42.8142 21.5059 42.9874 21.3586 43.1025C21.2138 43.2191 21.0414 43.2723 20.8414 43.2623C20.6416 43.2493 20.412 43.1657 20.1527 43.0114C19.9084 42.8661 19.6904 42.6743 19.4984 42.4361C19.309 42.1993 19.15 41.9308 19.0216 41.6304C18.8932 41.3301 18.7997 41.0113 18.7411 40.6738C18.6852 40.335 18.6673 39.993 18.6873 39.6479ZM19.3913 39.9714L19.386 40.0636C19.3722 40.3005 19.3795 40.5347 19.4077 40.7664C19.4385 40.9995 19.4921 41.2205 19.5685 41.4294C19.6475 41.6397 19.7523 41.8307 19.883 42.0022C20.0139 42.1709 20.1737 42.3114 20.3626 42.4237C20.5942 42.5615 20.7889 42.6183 20.9466 42.5941C21.1042 42.5699 21.2326 42.4905 21.3316 42.3557C21.4331 42.2225 21.5153 42.0611 21.5784 41.8717L21.6398 40.8144C21.6214 40.6371 21.5876 40.4566 21.5383 40.273C21.4918 40.0879 21.4266 39.91 21.3427 39.739C21.2615 39.5667 21.1575 39.4065 21.0307 39.2584C20.9038 39.1103 20.7523 38.9838 20.576 38.879C20.3847 38.7651 20.217 38.7138 20.0731 38.725C19.9319 38.7348 19.8126 38.7939 19.7151 38.9024C19.6204 39.0094 19.5455 39.1554 19.4904 39.3405C19.4381 39.5242 19.4051 39.7345 19.3913 39.9714ZM24.2387 44.8432L25.6223 41.264L26.3701 41.7089L24.4131 46.2133C24.3686 46.3078 24.3109 46.4036 24.2402 46.5007C24.1718 46.6022 24.0862 46.6859 23.9834 46.7518C23.8806 46.8177 23.759 46.8483 23.6186 46.8434C23.4806 46.843 23.3184 46.7874 23.1321 46.6765C23.0767 46.6436 23.0067 46.5929 22.9221 46.5244C22.8375 46.4559 22.778 46.4053 22.7434 46.3727L22.7778 45.7123C22.7978 45.7273 22.8291 45.7489 22.8717 45.7773C22.9167 45.8101 22.948 45.8318 22.9656 45.8422C23.1242 45.9366 23.2604 45.9919 23.374 46.0081C23.4875 46.0272 23.5854 46.0022 23.6675 45.9331C23.752 45.8683 23.8276 45.7545 23.8944 45.5915L24.2387 44.8432ZM23.6509 40.0911L24.4983 44.4077L24.63 45.371L24.1104 45.3705L22.888 39.6372L23.6509 40.0911Z" fill="white"/>
    <path d="M22.1249 13.0435L22.694 13.3461C22.9728 13.4943 23.2432 13.5838 23.5052 13.6146C23.7726 13.6448 24.0217 13.6262 24.2525 13.5588C24.4887 13.491 24.6966 13.3843 24.8762 13.2389C25.0887 13.0668 25.2268 12.901 25.2905 12.7414C25.3542 12.5819 25.3423 12.4296 25.2547 12.2846C25.1671 12.1396 24.9997 12.0014 24.7526 11.87C24.5284 11.7508 24.2908 11.6771 24.04 11.6489C23.7945 11.6202 23.5521 11.6372 23.3127 11.7C23.0762 11.7642 22.8618 11.8742 22.6695 12.0299L21.8719 11.6058C22.1527 11.3785 22.4887 11.2143 22.8799 11.1135C23.271 11.0127 23.6801 10.9841 24.107 11.0278C24.5368 11.0731 24.9442 11.1981 25.3293 11.4029C25.7087 11.6046 25.9813 11.8293 26.1469 12.0768C26.3151 12.3224 26.3618 12.5814 26.2872 12.8539C26.215 13.1244 26.007 13.3989 25.6629 13.6775C25.5238 13.7902 25.3372 13.8912 25.103 13.9805C24.8743 14.0693 24.6141 14.1278 24.3223 14.1559C24.0333 14.1855 23.7224 14.1712 23.3896 14.113C23.0593 14.0528 22.7231 13.9317 22.3811 13.7499L21.6999 13.3877L22.1249 13.0435ZM21.5481 13.5106L21.9693 13.1695L22.6505 13.5317C23.05 13.7441 23.3388 13.9537 23.5169 14.1603C23.6949 14.367 23.7891 14.5664 23.7994 14.7586C23.8126 14.9522 23.7659 15.1327 23.6593 15.3C23.5581 15.4668 23.4253 15.6168 23.2609 15.7499C23.0028 15.9589 22.7236 16.1175 22.4231 16.2259C22.1256 16.3357 21.8167 16.3989 21.4965 16.4153C21.1791 16.4332 20.8643 16.4066 20.5521 16.3356C20.2398 16.2646 19.9414 16.1535 19.6569 16.0022C19.3838 15.857 19.1607 15.6926 18.9876 15.5089C18.8173 15.3267 18.7047 15.1345 18.6498 14.9322C18.5974 14.7279 18.6144 14.5214 18.7006 14.3127C18.7894 14.102 18.9565 13.8973 19.2019 13.6986L19.9995 14.1227C19.8072 14.2784 19.6864 14.4398 19.6371 14.607C19.5906 14.7758 19.616 14.9403 19.7132 15.1006C19.8159 15.2604 19.9893 15.4052 20.2336 15.5351C20.4779 15.665 20.7244 15.7469 20.9731 15.7807C21.2272 15.814 21.4776 15.7944 21.7242 15.7219C21.9737 15.6509 22.2136 15.5222 22.4438 15.3358C22.674 15.1494 22.8079 14.9678 22.8454 14.7909C22.8854 14.6119 22.8403 14.4403 22.7099 14.2759C22.5849 14.1111 22.3874 13.9568 22.1172 13.8132L21.5481 13.5106ZM23.2906 17.3336C23.4095 17.2373 23.5512 17.1786 23.7155 17.1573C23.8852 17.1356 24.0505 17.1675 24.2114 17.2531C24.3724 17.3387 24.4528 17.4374 24.4527 17.5493C24.458 17.6607 24.4011 17.7646 24.2822 17.8609C24.1659 17.9551 24.0241 18.0121 23.8569 18.0318C23.6926 18.053 23.53 18.0208 23.369 17.9353C23.2081 17.8497 23.125 17.7512 23.1197 17.6398C23.1173 17.5299 23.1743 17.4279 23.2906 17.3336ZM32.2909 18.3216L31.4485 19.0038C30.9956 19.3705 30.5677 19.6554 30.1645 19.8584C29.7614 20.0615 29.3787 20.194 29.0165 20.256C28.6544 20.3179 28.3081 20.3188 27.9778 20.2585C27.6529 20.1977 27.3381 20.0864 27.0334 19.9244C26.792 19.796 26.5958 19.6561 26.4449 19.5045C26.2939 19.353 26.1947 19.1866 26.1473 19.0052C26.1052 18.8234 26.1216 18.625 26.1963 18.4103C26.2711 18.1955 26.4137 17.9625 26.624 17.7112C26.8343 17.4599 27.1204 17.1878 27.4821 16.8948L28.3245 16.2127C28.7774 15.846 29.2028 15.5631 29.6009 15.3642C30.0018 15.1667 30.3809 15.0391 30.738 14.9812C31.0976 14.9213 31.4387 14.9228 31.761 14.9856C32.0863 15.0499 32.3998 15.1623 32.7016 15.3228C32.9459 15.4527 33.1435 15.5934 33.2945 15.7449C33.4508 15.8959 33.5526 16.0603 33.5997 16.2381C33.6493 16.4138 33.6366 16.6073 33.5615 16.8185C33.4918 17.0291 33.353 17.2591 33.1452 17.5083C32.9374 17.7576 32.6526 18.0287 32.2909 18.3216ZM30.5327 18.6696L31.6066 17.8C31.8545 17.5992 32.0549 17.4139 32.2076 17.2439C32.3657 17.0735 32.4802 16.9172 32.551 16.775C32.6219 16.6328 32.6502 16.5019 32.6359 16.3823C32.6246 16.2643 32.5746 16.1563 32.4861 16.0583C32.403 15.9598 32.2838 15.8693 32.1286 15.7868C31.9389 15.6859 31.7392 15.6221 31.5293 15.5954C31.322 15.5666 31.1011 15.5798 30.8664 15.6349C30.6346 15.6915 30.384 15.7941 30.1147 15.9428C29.8454 16.0915 29.5552 16.2918 29.2441 16.5438L28.1702 17.4134C27.9222 17.6142 27.7192 17.7998 27.5611 17.9702C27.4059 18.1422 27.2917 18.3021 27.2187 18.4499C27.1482 18.5957 27.1161 18.7296 27.1224 18.8518C27.1287 18.9739 27.1722 19.0852 27.2527 19.1858C27.3387 19.2858 27.4579 19.3763 27.6102 19.4573C27.8057 19.5612 28.0096 19.6255 28.2219 19.6502C28.4343 19.6749 28.6589 19.6569 28.8957 19.5961C29.138 19.5349 29.3936 19.4282 29.6626 19.2759C29.934 19.1216 30.2241 18.9195 30.5327 18.6696Z" fill="white"/>
    <defs>
        <linearGradient id="paint0_linear_440_239" x1="27.3034" y1="0.830183" x2="34.8664" y2="23.7315" gradientUnits="userSpaceOnUse">
            <stop stop-color="#5E9736"/>
            <stop offset="1" stop-color="#AEF27E"/>
        </linearGradient>
        <linearGradient id="paint1_linear_440_239" x1="19.1881" y1="16.7209" x2="16.1289" y2="21.5646" gradientUnits="userSpaceOnUse">
            <stop offset="0.565" stop-color="#5E9736"/>
            <stop offset="1" stop-color="#B1DE91"/>
        </linearGradient>
        <linearGradient id="paint2_linear_440_239" x1="35.5886" y1="20.7151" x2="50.502" y2="46.1232" gradientUnits="userSpaceOnUse">
            <stop stop-color="#9EDF6F"/>
            <stop offset="0.225" stop-color="#5E9736"/>
            <stop offset="1" stop-color="#5E9736"/>
        </linearGradient>
        <linearGradient id="paint3_linear_440_239" x1="17.9135" y1="23.4763" x2="6.86645" y2="46.1226" gradientUnits="userSpaceOnUse">
            <stop stop-color="#A5DD7F"/>
            <stop offset="0.19" stop-color="#61A82E"/>
            <stop offset="1" stop-color="#458618"/>
        </linearGradient>
    </defs>
</svg>

