<svg width="59" height="58" viewBox="0 0 59 58" fill="none" xmlns="http://www.w3.org/2000/svg">
<path d="M29.2299 0.908203L6 14.9542L29.2299 27.9197L53 14.4139L29.2299 0.908203Z" fill="url(#paint0_linear_440_341)"/>
<path d="M29.2299 0.908203L6 14.9542L29.2299 27.9197L53 14.4139L29.2299 0.908203Z" fill="url(#paint1_linear_440_341)" fill-opacity="0.2"/>
<path d="M29.23 57.0922V27.9198L53.0001 14.4141V43.0462L29.23 57.0922Z" fill="url(#paint2_linear_440_341)"/>
<path d="M6 44.1265V14.9541L29.2299 27.9196V57.092L6 44.1265Z" fill="url(#paint3_linear_440_341)"/>
<path d="M10.169 33.7792L10.114 34.7268L7.22108 33.0057L7.27605 32.0581L10.169 33.7792ZM7.71226 29.5899L7.34171 35.9776L6.30312 35.3597L6.67367 28.972L7.71226 29.5899ZM11.0924 31.6009L10.7218 37.9886L9.68325 37.3707L10.0538 30.983L11.0924 31.6009ZM13.5342 39.7525C13.2245 39.5682 12.9497 39.3442 12.7097 39.0804C12.4697 38.8167 12.2689 38.5293 12.1072 38.2182C11.9482 37.9058 11.8302 37.5829 11.7532 37.2497C11.6788 36.915 11.651 36.5867 11.6697 36.265L11.6798 36.0895C11.701 35.7239 11.7656 35.4189 11.8736 35.1745C11.9817 34.9272 12.1251 34.7448 12.3038 34.6272C12.4826 34.5096 12.6911 34.4612 12.9296 34.4821C13.168 34.5029 13.4269 34.5964 13.7064 34.7627C13.996 34.935 14.2482 35.144 14.4632 35.3899C14.6783 35.6329 14.8542 35.9009 14.9908 36.194C15.1275 36.4871 15.2253 36.7995 15.2842 37.131C15.3433 37.4597 15.3628 37.7966 15.3428 38.1417L15.3145 38.6287L12.1119 36.7233L12.1582 35.9248L14.3789 37.246L14.384 37.1583C14.3897 36.971 14.3692 36.7849 14.3226 36.5998C14.2762 36.4118 14.1978 36.2381 14.0872 36.0785C13.9768 35.916 13.8297 35.7801 13.6459 35.6707C13.4974 35.5824 13.3655 35.5432 13.2503 35.5534C13.1378 35.5621 13.041 35.6134 12.9601 35.7075C12.8818 35.8001 12.8196 35.9295 12.7734 36.0957C12.7273 36.2619 12.6977 36.4591 12.6844 36.6872L12.6743 36.8627C12.6627 37.0616 12.6747 37.2593 12.7102 37.4559C12.7482 37.654 12.8088 37.8429 12.8922 38.0226C12.9782 38.2009 13.0834 38.3633 13.2077 38.5099C13.3348 38.655 13.4814 38.7771 13.6475 38.8759C13.8565 39.0002 14.0481 39.0658 14.2222 39.0726C14.399 39.0779 14.5558 39.0244 14.6925 38.9121L15.1597 39.8164C15.0656 39.9117 14.9416 39.9832 14.7878 40.0309C14.6365 40.08 14.4564 40.0863 14.2475 40.0498C14.0388 40.0104 13.801 39.9113 13.5342 39.7525ZM18.1751 41.3789L18.3021 39.1897C18.3115 39.0289 18.2956 38.8757 18.2545 38.7303C18.2135 38.5848 18.1457 38.4507 18.0513 38.328C17.9568 38.2052 17.8341 38.0989 17.683 38.009C17.5495 37.9296 17.4309 37.8863 17.3272 37.879C17.2259 37.8732 17.1461 37.9029 17.0876 37.9679C17.0293 38.0301 16.9966 38.1226 16.9894 38.2454L15.9886 37.65C16 37.454 16.0511 37.2923 16.1418 37.1647C16.2327 37.0342 16.3564 36.9444 16.513 36.8954C16.6722 36.8448 16.8586 36.8423 17.0721 36.8876C17.2882 36.9345 17.5272 37.0358 17.789 37.1916C18.0987 37.3758 18.3708 37.6013 18.6054 37.8679C18.8427 38.1331 19.0235 38.4283 19.1479 38.7535C19.2748 39.0801 19.3276 39.4277 19.3062 39.7962L19.1861 41.8669C19.1724 42.1038 19.1731 42.3146 19.1885 42.4992C19.2065 42.6824 19.2384 42.8511 19.2841 43.0054L19.2798 43.08L18.2639 42.4756C18.223 42.3272 18.1953 42.1534 18.1808 41.9542C18.1665 41.752 18.1646 41.5603 18.1751 41.3789ZM18.424 39.58L18.3916 40.2733L17.7609 39.898C17.6048 39.8052 17.4665 39.7425 17.346 39.7102C17.2256 39.6748 17.1256 39.6698 17.046 39.6951C16.9666 39.7174 16.9052 39.7656 16.8618 39.8396C16.8186 39.9108 16.7935 40.0063 16.7866 40.1262C16.7798 40.2432 16.7963 40.362 16.8362 40.4825C16.8786 40.6046 16.9423 40.7196 17.0272 40.8276C17.1148 40.9342 17.219 41.0234 17.3399 41.0953C17.5161 41.2002 17.6721 41.2506 17.8077 41.2466C17.9436 41.2397 18.0515 41.198 18.1315 41.1215C18.2114 41.045 18.2571 40.9542 18.2684 40.8489L18.5264 41.5198C18.4842 41.6188 18.4239 41.7146 18.3456 41.8072C18.2673 41.8998 18.1694 41.9716 18.0518 42.0227C17.9343 42.0738 17.7952 42.0909 17.6347 42.0741C17.4742 42.0572 17.2907 41.9874 17.0842 41.8646C16.8199 41.7073 16.5868 41.5051 16.3849 41.2579C16.1831 41.0107 16.0279 40.7444 15.9194 40.459C15.811 40.1736 15.7646 39.8949 15.7804 39.6229C15.795 39.3714 15.8482 39.1731 15.9399 39.028C16.0317 38.8829 16.1607 38.7917 16.327 38.7544C16.4934 38.7143 16.6956 38.7302 16.9337 38.8022C17.1744 38.8729 17.4471 38.9988 17.7518 39.18L18.424 39.58ZM21.4684 37.4109L21.0775 44.1495L20.0767 43.5541L20.4676 36.8155L21.4684 37.4109ZM24.2383 41.1193L24.1899 41.9528L21.8484 40.5598L21.8967 39.7262L24.2383 41.1193ZM22.5914 38.9322L23.5922 39.5276L23.3285 44.0727C23.3204 44.2131 23.3305 44.3311 23.3588 44.4266C23.3871 44.5221 23.4332 44.6025 23.4972 44.6678C23.5611 44.733 23.6384 44.7926 23.729 44.8465C23.7945 44.8855 23.8552 44.9171 23.9111 44.9412C23.967 44.9654 24.0141 44.9844 24.0523 44.9981L24.0057 45.869C23.9208 45.8517 23.8248 45.8218 23.7179 45.7794C23.6135 45.7385 23.4958 45.679 23.3649 45.6012C23.1408 45.4678 22.947 45.3071 22.7834 45.119C22.6199 44.928 22.4974 44.7053 22.4158 44.451C22.3343 44.1938 22.3032 43.8999 22.3224 43.5694L22.5914 38.9322ZM25.9967 40.1049L25.6058 46.8436L24.6049 46.2481L24.9959 39.5095L25.9967 40.1049ZM25.5948 44.2047L25.3002 44.0294C25.3193 43.6989 25.3748 43.4172 25.4664 43.1843C25.5581 42.9514 25.6791 42.7737 25.8294 42.6514C25.9799 42.5261 26.1542 42.4634 26.3522 42.4631C26.5527 42.4644 26.77 42.5347 27.0041 42.674C27.2056 42.7938 27.3861 42.9361 27.5459 43.1007C27.7083 43.2639 27.8446 43.4524 27.9546 43.6661C28.0646 43.8798 28.1444 44.1209 28.1939 44.3894C28.2462 44.6565 28.2628 44.9538 28.2438 45.2814L28.0682 48.3085L27.0636 47.7109L27.2397 44.675C27.2524 44.4556 27.2347 44.2666 27.1866 44.1078C27.1387 43.9462 27.0647 43.8069 26.9647 43.6899C26.8672 43.5744 26.7442 43.4725 26.5957 43.3841C26.4345 43.2882 26.2939 43.2424 26.1739 43.2466C26.054 43.2479 25.9526 43.289 25.8698 43.3698C25.7895 43.4521 25.7257 43.5639 25.6784 43.7053C25.6337 43.8481 25.6058 44.0145 25.5948 44.2047Z" fill="white"/>
<path d="M34.3182 41.9387L34.2632 42.8863L31.393 44.6452L31.448 43.6975L34.3182 41.9387ZM31.882 40.8887L31.5114 47.2764L30.481 47.9078L30.8516 41.5201L31.882 40.8887ZM35.2355 38.8336L34.865 45.2213L33.8345 45.8527L34.2051 39.4651L35.2355 38.8336ZM37.6551 43.5961C37.3478 43.7844 37.0752 43.8951 36.8372 43.9281C36.5992 43.9611 36.4 43.9266 36.2397 43.8246C36.0821 43.7181 35.9651 43.5542 35.8888 43.333C35.8151 43.1073 35.7876 42.8336 35.8063 42.5119L35.8165 42.3364C35.8377 41.9708 35.9019 41.6113 36.0091 41.2579C36.1166 40.9015 36.259 40.5646 36.4364 40.2472C36.6138 39.9297 36.8208 39.6421 37.0574 39.3842C37.294 39.1264 37.551 38.9125 37.8282 38.7426C38.1155 38.5666 38.3657 38.4683 38.5789 38.4476C38.7923 38.4241 38.9667 38.4695 39.1023 38.5839C39.2378 38.6983 39.3347 38.8759 39.393 39.1166C39.4515 39.3544 39.4707 39.6458 39.4507 39.9909L39.4224 40.4779L36.245 42.425L36.2913 41.6266L38.4945 40.2764L38.4996 40.1887C38.5053 40.0075 38.4851 39.8577 38.439 39.7393C38.393 39.6179 38.3152 39.5472 38.2055 39.5269C38.0961 39.5037 37.9502 39.548 37.7678 39.6598C37.6204 39.7501 37.4896 39.8669 37.3752 40.0103C37.2636 40.1493 37.1676 40.3097 37.0871 40.4915C37.0094 40.6689 36.9476 40.8619 36.9018 41.0705C36.8559 41.2792 36.8264 41.4975 36.8132 41.7257L36.803 41.9012C36.7915 42.1 36.8033 42.2705 36.8384 42.4126C36.876 42.5532 36.9361 42.6588 37.0188 42.7294C37.1041 42.7956 37.2084 42.8248 37.3317 42.8169C37.4577 42.8046 37.6031 42.7479 37.768 42.6469C37.9753 42.5198 38.1654 42.3582 38.3382 42.1621C38.5136 41.9615 38.6692 41.7293 38.805 41.4656L39.2682 41.7656C39.1748 41.9639 39.0517 42.1747 38.8991 42.398C38.7489 42.6198 38.5702 42.8351 38.3629 43.0439C38.1558 43.2498 37.9199 43.4339 37.6551 43.5961ZM42.26 39.7164L42.387 37.5272C42.3963 37.3664 42.3807 37.242 42.34 37.1541C42.2993 37.0662 42.2321 37.0199 42.1385 37.0153C42.0448 37.0106 41.923 37.0542 41.7731 37.1461C41.6407 37.2272 41.523 37.3247 41.4201 37.4386C41.3196 37.5509 41.2403 37.6714 41.1823 37.8001C41.1244 37.9258 41.0919 38.0501 41.0847 38.173L40.0918 38.7814C40.1032 38.5855 40.1539 38.3753 40.244 38.1508C40.3343 37.9234 40.4571 37.6958 40.6125 37.468C40.7705 37.2358 40.9555 37.0167 41.1674 36.8106C41.3818 36.6031 41.6189 36.4197 41.8787 36.2605C42.1859 36.0722 42.4559 35.966 42.6886 35.9419C42.9239 35.9133 43.1033 35.9783 43.2266 36.1369C43.3524 36.2939 43.4046 36.5567 43.3832 36.9252L43.2631 38.996C43.2493 39.2329 43.25 39.4285 43.2652 39.5828C43.283 39.7327 43.3145 39.853 43.3599 39.9437L43.3555 40.0183L42.3476 40.6359C42.3071 40.5451 42.2797 40.4152 42.2654 40.2463C42.2513 40.0744 42.2495 39.8978 42.26 39.7164ZM42.5078 37.7494L42.4754 38.4336L41.8496 38.817C41.6948 38.9119 41.5575 39.0144 41.4379 39.1243C41.3185 39.2314 41.2192 39.343 41.1402 39.4591C41.0614 39.5723 41.0004 39.6886 40.9574 39.8081C40.9145 39.9246 40.8895 40.0429 40.8826 40.1628C40.8758 40.2798 40.8922 40.3713 40.9317 40.4373C40.9737 40.5018 41.0369 40.5351 41.1211 40.5371C41.2079 40.5346 41.3113 40.4967 41.4312 40.4232C41.6061 40.316 41.7608 40.1817 41.8955 40.0202C42.0303 39.8558 42.1374 39.6914 42.2168 39.5271C42.2962 39.3628 42.3415 39.225 42.3528 39.1138L42.6086 39.4394C42.5666 39.5807 42.5068 39.7401 42.429 39.9175C42.3513 40.0949 42.2541 40.2758 42.1374 40.4601C42.0207 40.6445 41.8827 40.8221 41.7234 40.9931C41.5641 41.164 41.3821 41.3122 41.1772 41.4378C40.9149 41.5985 40.6837 41.681 40.4835 41.6852C40.2833 41.6894 40.1294 41.6215 40.0219 41.4815C39.9144 41.3414 39.8685 41.1354 39.8843 40.8634C39.8989 40.6119 39.9518 40.3651 40.0429 40.1231C40.134 39.8811 40.2621 39.646 40.4271 39.418C40.5923 39.187 40.793 38.9667 41.0292 38.7571C41.2681 38.543 41.5386 38.3433 41.8409 38.1581L42.5078 37.7494ZM45.53 32.1866L45.1391 38.9253L44.1462 39.5338L44.5371 32.7951L45.53 32.1866ZM48.2771 32.4242L48.2288 33.2577L45.9057 34.6813L45.954 33.8478L48.2771 32.4242ZM46.6437 32.2996L47.6367 31.6911L47.373 36.2362C47.3649 36.3766 47.3748 36.4749 47.4029 36.531C47.4309 36.5872 47.4767 36.6085 47.5401 36.595C47.6035 36.5816 47.6802 36.5473 47.7701 36.4922C47.8351 36.4524 47.8953 36.4112 47.9507 36.3688C48.0062 36.3263 48.0529 36.2892 48.0909 36.2575L48.0443 37.1239C47.96 37.2066 47.8648 37.2903 47.7587 37.375C47.6551 37.4583 47.5383 37.5397 47.4084 37.6193C47.1861 37.7555 46.9938 37.8311 46.8315 37.8459C46.6694 37.8578 46.5479 37.7926 46.467 37.6503C46.3863 37.5052 46.3555 37.2673 46.3747 36.9368L46.6437 32.2996ZM50.0226 29.4336L49.6317 36.1722L48.6388 36.7807L49.0297 30.042L50.0226 29.4336ZM49.6219 33.7241L49.3297 33.9032C49.3488 33.5727 49.404 33.2456 49.495 32.9218C49.5861 32.598 49.7062 32.2917 49.8555 32.0028C50.0049 31.7109 50.1779 31.4498 50.3743 31.2194C50.5733 30.9874 50.7889 30.8003 51.0213 30.6579C51.2211 30.5355 51.4002 30.4581 51.5587 30.4259C51.7198 30.3892 51.855 30.4066 51.964 30.4779C52.0731 30.5493 52.1522 30.6814 52.2012 30.8742C52.253 31.0625 52.2693 31.3204 52.2503 31.648L52.0747 34.6752L51.078 35.2859L51.2541 32.25C51.2669 32.0307 51.2494 31.8749 51.2017 31.7828C51.1542 31.6878 51.0809 31.6439 50.9817 31.6511C50.885 31.6568 50.763 31.7048 50.6156 31.7951C50.4557 31.893 50.3162 32.0138 50.1971 32.1573C50.0781 32.2979 49.9775 32.4541 49.8952 32.6258C49.8155 32.7959 49.7522 32.9744 49.7052 33.1611C49.6607 33.3464 49.633 33.534 49.6219 33.7241Z" fill="white"/>
<path d="M24.1249 13.0435L24.694 13.3461C24.9728 13.4943 25.2432 13.5838 25.5052 13.6146C25.7726 13.6448 26.0217 13.6262 26.2525 13.5588C26.4887 13.491 26.6966 13.3843 26.8762 13.2389C27.0887 13.0668 27.2268 12.901 27.2905 12.7414C27.3542 12.5819 27.3423 12.4296 27.2547 12.2846C27.1671 12.1396 26.9997 12.0014 26.7526 11.87C26.5284 11.7508 26.2908 11.6771 26.04 11.6489C25.7945 11.6202 25.5521 11.6372 25.3127 11.7C25.0762 11.7642 24.8618 11.8742 24.6695 12.0299L23.8719 11.6058C24.1527 11.3785 24.4887 11.2143 24.8799 11.1135C25.271 11.0127 25.6801 10.9841 26.107 11.0278C26.5368 11.0731 26.9442 11.1981 27.3293 11.4029C27.7087 11.6046 27.9813 11.8293 28.1469 12.0768C28.3151 12.3224 28.3618 12.5814 28.2872 12.8539C28.215 13.1244 28.007 13.3989 27.6629 13.6775C27.5238 13.7902 27.3372 13.8912 27.103 13.9805C26.8743 14.0693 26.6141 14.1278 26.3223 14.1559C26.0333 14.1855 25.7224 14.1712 25.3896 14.113C25.0593 14.0528 24.7231 13.9317 24.3811 13.7499L23.6999 13.3877L24.1249 13.0435ZM23.5481 13.5106L23.9693 13.1695L24.6505 13.5317C25.05 13.7441 25.3388 13.9537 25.5169 14.1603C25.6949 14.367 25.7891 14.5664 25.7994 14.7586C25.8126 14.9522 25.7659 15.1327 25.6593 15.3C25.5581 15.4668 25.4253 15.6168 25.2609 15.7499C25.0028 15.9589 24.7236 16.1175 24.4231 16.2259C24.1256 16.3357 23.8167 16.3989 23.4965 16.4153C23.1791 16.4332 22.8643 16.4066 22.5521 16.3356C22.2398 16.2646 21.9414 16.1535 21.6569 16.0022C21.3838 15.857 21.1607 15.6926 20.9876 15.5089C20.8173 15.3267 20.7047 15.1345 20.6498 14.9322C20.5974 14.7279 20.6144 14.5214 20.7006 14.3127C20.7894 14.102 20.9565 13.8973 21.2019 13.6986L21.9995 14.1227C21.8072 14.2784 21.6864 14.4398 21.6371 14.607C21.5906 14.7758 21.616 14.9403 21.7132 15.1006C21.8159 15.2604 21.9893 15.4052 22.2336 15.5351C22.4779 15.665 22.7244 15.7469 22.9731 15.7807C23.2272 15.814 23.4776 15.7944 23.7242 15.7219C23.9737 15.6509 24.2136 15.5222 24.4438 15.3358C24.674 15.1494 24.8079 14.9678 24.8454 14.7909C24.8854 14.6119 24.8403 14.4403 24.7099 14.2759C24.5849 14.1111 24.3874 13.9568 24.1172 13.8132L23.5481 13.5106ZM25.2906 17.3336C25.4095 17.2373 25.5512 17.1786 25.7155 17.1573C25.8852 17.1356 26.0505 17.1675 26.2114 17.2531C26.3724 17.3387 26.4528 17.4374 26.4527 17.5493C26.458 17.6607 26.4011 17.7646 26.2822 17.8609C26.1659 17.9551 26.0241 18.0121 25.8569 18.0318C25.6926 18.053 25.53 18.0208 25.369 17.9353C25.2081 17.8497 25.125 17.7512 25.1197 17.6398C25.1173 17.5299 25.1743 17.4279 25.2906 17.3336ZM34.2909 18.3216L33.4485 19.0038C32.9956 19.3705 32.5677 19.6554 32.1645 19.8584C31.7614 20.0615 31.3787 20.194 31.0165 20.256C30.6544 20.3179 30.3081 20.3188 29.9778 20.2585C29.6529 20.1977 29.3381 20.0864 29.0334 19.9244C28.792 19.796 28.5958 19.6561 28.4449 19.5045C28.2939 19.353 28.1947 19.1866 28.1473 19.0052C28.1052 18.8234 28.1216 18.625 28.1963 18.4103C28.2711 18.1955 28.4137 17.9625 28.624 17.7112C28.8343 17.4599 29.1204 17.1878 29.4821 16.8948L30.3245 16.2127C30.7774 15.846 31.2028 15.5631 31.6009 15.3642C32.0018 15.1667 32.3809 15.0391 32.738 14.9812C33.0976 14.9213 33.4387 14.9228 33.761 14.9856C34.0863 15.0499 34.3998 15.1623 34.7016 15.3228C34.9459 15.4527 35.1435 15.5934 35.2945 15.7449C35.4508 15.8959 35.5526 16.0603 35.5997 16.2381C35.6493 16.4138 35.6366 16.6073 35.5615 16.8185C35.4918 17.0291 35.353 17.2591 35.1452 17.5083C34.9374 17.7576 34.6526 18.0287 34.2909 18.3216ZM32.5327 18.6696L33.6066 17.8C33.8545 17.5992 34.0549 17.4139 34.2076 17.2439C34.3657 17.0735 34.4802 16.9172 34.551 16.775C34.6219 16.6328 34.6502 16.5019 34.6359 16.3823C34.6246 16.2643 34.5746 16.1563 34.4861 16.0583C34.403 15.9598 34.2838 15.8693 34.1286 15.7868C33.9389 15.6859 33.7392 15.6221 33.5293 15.5954C33.322 15.5666 33.1011 15.5798 32.8664 15.6349C32.6346 15.6915 32.384 15.7941 32.1147 15.9428C31.8454 16.0915 31.5552 16.2918 31.2441 16.5438L30.1702 17.4134C29.9222 17.6142 29.7192 17.7998 29.5611 17.9702C29.4059 18.1422 29.2917 18.3021 29.2187 18.4499C29.1482 18.5957 29.1161 18.7296 29.1224 18.8518C29.1287 18.9739 29.1722 19.0852 29.2527 19.1858C29.3387 19.2858 29.4579 19.3763 29.6102 19.4573C29.8057 19.5612 30.0096 19.6255 30.2219 19.6502C30.4343 19.6749 30.6589 19.6569 30.8957 19.5961C31.138 19.5349 31.3936 19.4282 31.6626 19.2759C31.934 19.1216 32.2241 18.9195 32.5327 18.6696Z" fill="white"/>
<defs>
<linearGradient id="paint0_linear_440_341" x1="29.7701" y1="1.44843" x2="37.1671" y2="23.8472" gradientUnits="userSpaceOnUse">
<stop stop-color="#5E9736"/>
<stop offset="1" stop-color="#AEF27E"/>
</linearGradient>
<linearGradient id="paint1_linear_440_341" x1="21.8329" y1="16.9904" x2="18.8408" y2="21.7278" gradientUnits="userSpaceOnUse">
<stop offset="0.565" stop-color="#5E9736"/>
<stop offset="1" stop-color="#B1DE91"/>
</linearGradient>
<linearGradient id="paint2_linear_440_341" x1="37.8737" y1="20.8968" x2="52.4599" y2="45.7474" gradientUnits="userSpaceOnUse">
<stop stop-color="#9EDF6F"/>
<stop offset="0.225" stop-color="#5E9736"/>
<stop offset="1" stop-color="#5E9736"/>
</linearGradient>
<linearGradient id="paint3_linear_440_341" x1="20.5862" y1="23.5978" x2="9.78161" y2="45.7472" gradientUnits="userSpaceOnUse">
<stop stop-color="#A5DD7F"/>
<stop offset="0.19" stop-color="#61A82E"/>
<stop offset="1" stop-color="#458618"/>
</linearGradient>
</defs>
</svg>
