<svg width="48" height="52" viewBox="0 0 48 52" fill="none" xmlns="http://www.w3.org/2000/svg">
<path d="M21.5 0L0 13L21.5 25L43.5 12.5L21.5 0Z" fill="url(#paint0_linear_690_38)"/>
<path d="M21.5 0L0 13L21.5 25L43.5 12.5L21.5 0Z" fill="url(#paint1_linear_690_38)" fill-opacity="0.2"/>
<path d="M21.5 52V25L43.5 12.5V39L21.5 52Z" fill="url(#paint2_linear_690_38)"/>
<path d="M0 40V13L21.5 25V52L0 40Z" fill="url(#paint3_linear_690_38)"/>
<path d="M25.874 39.4041C25.8823 39.2611 25.8625 39.1457 25.8146 39.0578C25.77 38.9645 25.6681 38.9183 25.5091 38.9193C25.3533 38.9148 25.1142 38.9751 24.7919 39.1002C24.5211 39.2007 24.2769 39.2727 24.0594 39.3163C23.845 39.3581 23.6638 39.3606 23.5157 39.3237C23.3707 39.285 23.2622 39.2015 23.1901 39.0733C23.1181 38.9451 23.089 38.7612 23.1029 38.5217C23.1162 38.2929 23.1715 38.0505 23.2688 37.7943C23.3691 37.5363 23.5032 37.28 23.6711 37.0254C23.8421 36.769 24.0431 36.5269 24.2742 36.299C24.5053 36.0712 24.7598 35.8722 25.0376 35.7019C25.4345 35.4587 25.7686 35.3333 26.04 35.3256C26.3113 35.3179 26.5138 35.4058 26.6474 35.5894C26.7813 35.7694 26.8386 36.0256 26.8193 36.3581L25.972 36.8773C25.9814 36.7164 25.9492 36.5862 25.8755 36.4865C25.805 36.3815 25.6948 36.3266 25.5449 36.3219C25.3981 36.3154 25.2132 36.3804 24.9903 36.517C24.7552 36.661 24.5619 36.8209 24.4104 36.9965C24.2621 37.1666 24.1507 37.3366 24.0761 37.5065C24.0045 37.6744 23.9646 37.8299 23.9563 37.9729C23.95 38.0802 23.9597 38.1673 23.9853 38.2344C24.0141 38.296 24.0676 38.3373 24.1459 38.3583C24.2244 38.3757 24.3367 38.369 24.4828 38.3381C24.6288 38.3072 24.8161 38.251 25.0446 38.1696C25.4445 38.028 25.7713 37.9518 26.0252 37.9411C26.279 37.9303 26.4637 37.9947 26.5793 38.1341C26.6949 38.2736 26.7437 38.4989 26.7256 38.8099C26.7109 39.0637 26.6516 39.3241 26.5478 39.5911C26.447 39.8563 26.3067 40.1181 26.1268 40.3766C25.9502 40.6296 25.7418 40.8711 25.5018 41.1009C25.265 41.3253 25.0015 41.5264 24.7115 41.7042C24.2749 41.9717 23.9108 42.1069 23.6191 42.1098C23.3274 42.1127 23.1121 42.0171 22.9732 41.823C22.8343 41.6289 22.7742 41.3709 22.7929 41.0492L23.6447 40.5272C23.6411 40.7914 23.6957 40.9665 23.8085 41.0525C23.9215 41.135 24.0646 41.1559 24.2377 41.1153C24.4111 41.0712 24.5848 40.9958 24.7588 40.8891C24.9908 40.7469 25.1868 40.5924 25.3466 40.4255C25.5095 40.2567 25.6358 40.0845 25.7255 39.9088C25.8152 39.7332 25.8647 39.565 25.874 39.4041ZM30.156 32.6688L30.1118 33.4302L27.4327 35.072L27.4769 34.3106L30.156 32.6688ZM28.4655 32.3447L29.3127 31.8255L28.9777 37.6004C28.9663 37.7971 28.9836 37.9295 29.0297 37.9978C29.0758 38.0661 29.1392 38.091 29.2197 38.0727C29.3003 38.0544 29.3879 38.0162 29.4825 37.9582C29.5528 37.9152 29.6265 37.8631 29.7036 37.802C29.784 37.7355 29.8444 37.6847 29.8847 37.6497L29.8423 38.4566C29.7737 38.5227 29.6838 38.6002 29.5726 38.689C29.4643 38.7795 29.3339 38.8716 29.1812 38.9651C28.9736 39.0923 28.7856 39.161 28.6172 39.1711C28.4487 39.1813 28.3191 39.1055 28.2284 38.9439C28.1409 38.7769 28.1084 38.5003 28.1308 38.1143L28.4655 32.3447ZM31.9441 32.4522L31.6604 37.3424L30.8132 37.8616L31.1497 32.0598L31.9741 31.5547L31.9441 32.4522ZM33.5468 30.5599L33.4887 31.485C33.4195 31.5102 33.3529 31.5406 33.289 31.5763C33.2284 31.6066 33.1584 31.646 33.079 31.6947C32.8836 31.8144 32.709 31.9559 32.5553 32.119C32.4015 32.2822 32.269 32.46 32.1577 32.6523C32.0465 32.8446 31.9551 33.0488 31.8837 33.2649C31.8155 33.4756 31.7662 33.6921 31.7356 33.9142L31.4881 34.221C31.5085 33.8707 31.5565 33.524 31.6324 33.1811C31.7113 32.8362 31.8202 32.5075 31.959 32.1948C32.0981 31.8786 32.2676 31.5954 32.4677 31.3453C32.6709 31.0897 32.9069 30.8796 33.1756 30.715C33.2366 30.6776 33.3063 30.6435 33.3847 30.6127C33.4632 30.5783 33.5173 30.5608 33.5468 30.5599ZM35.5009 34.4098L37.1811 28.3638L38.0879 27.8082L35.7118 35.7234C35.6577 35.8944 35.5877 36.0856 35.5019 36.2968C35.4188 36.5097 35.315 36.7268 35.1902 36.948C35.0655 37.1692 34.918 37.3768 34.7478 37.5708C34.5804 37.7665 34.3837 37.9335 34.1578 38.072C34.0906 38.1131 34.0057 38.1548 33.9032 38.197C33.8006 38.2391 33.7284 38.2662 33.6865 38.2781L33.7285 37.4765C33.7528 37.4652 33.7907 37.4453 33.8424 37.4171C33.8969 37.3906 33.9349 37.3708 33.9563 37.3577C34.1486 37.2398 34.3137 37.1093 34.4516 36.9662C34.5892 36.8267 34.7079 36.6592 34.8076 36.4636C34.9101 36.2698 35.0019 36.0326 35.083 35.7519L35.5009 34.4098ZM34.7905 29.8288L35.8161 33.5443L35.9753 34.4552L35.345 35.1931L33.8655 30.3956L34.7905 29.8288Z" fill="white"/>
<path d="M4.40417 25.4131L3.95128 33.2203L3.0604 32.6903L3.51329 24.8831L4.40417 25.4131ZM6.56089 30.0522L6.29618 34.6154L5.44223 34.1073L5.77879 28.3055L6.58658 28.7861L6.56089 30.0522ZM6.27411 31.3738L5.91962 31.1462C5.94571 30.7513 6.01774 30.4151 6.13571 30.1376C6.25388 29.8566 6.40947 29.6441 6.60247 29.5001C6.79547 29.356 7.019 29.2893 7.27306 29.2999C7.53041 29.3088 7.80988 29.403 8.11145 29.5824C8.35764 29.7288 8.57692 29.9 8.76931 30.0958C8.9619 30.288 9.12256 30.5094 9.25129 30.7598C9.3831 31.012 9.47816 31.2941 9.53646 31.6062C9.59497 31.9146 9.61313 32.2601 9.59094 32.6426L9.37041 36.4443L8.51184 35.9335L8.733 32.1211C8.75062 31.8172 8.72626 31.5513 8.6599 31.3232C8.59375 31.0915 8.48921 30.8907 8.34627 30.7206C8.20353 30.5469 8.02446 30.396 7.80905 30.2678C7.59672 30.1415 7.39984 30.078 7.21842 30.0773C7.04008 30.0784 6.88253 30.1326 6.74579 30.2399C6.61212 30.349 6.50305 30.5004 6.41859 30.6942C6.33741 30.8863 6.28925 31.1128 6.27411 31.3738ZM13.8809 37.9629L14.2933 30.8528L15.1519 31.3636L14.6741 39.5997L13.8894 39.1329L13.8809 37.9629ZM10.6197 34.2531L10.6262 34.1405C10.6519 33.6973 10.7214 33.3226 10.8347 33.0165C10.9512 32.7086 11.1033 32.4754 11.2907 32.317C11.4813 32.1604 11.7006 32.0838 11.9487 32.0872C12.2001 32.0888 12.4751 32.1785 12.7736 32.356C13.0874 32.5428 13.3576 32.7701 13.584 33.0379C13.8137 33.304 14.003 33.6071 14.152 33.9472C14.3043 34.2856 14.4183 34.6529 14.494 35.0493C14.5697 35.4456 14.6136 35.8693 14.6256 36.3202L14.597 36.8135C14.5385 37.2188 14.4501 37.5619 14.3319 37.8429C14.2168 38.1258 14.0693 38.3375 13.8892 38.4782C13.7122 38.6206 13.5015 38.6857 13.2571 38.6734C13.0129 38.6576 12.7323 38.5554 12.4153 38.3668C12.123 38.1929 11.8595 37.9603 11.6249 37.6691C11.3934 37.3798 11.1976 37.0506 11.0375 36.6817C10.8805 36.3147 10.7647 35.924 10.6901 35.5098C10.6187 35.0939 10.5952 34.675 10.6197 34.2531ZM11.4848 34.6513L11.4783 34.7639C11.4615 35.0535 11.4703 35.3398 11.5048 35.6229C11.5424 35.9078 11.6095 36.1789 11.706 36.436C11.8025 36.6931 11.9306 36.9265 12.0904 37.1362C12.2503 37.3423 12.4457 37.514 12.6765 37.6513C12.9596 37.8197 13.196 37.8882 13.3856 37.8568C13.5784 37.8273 13.7368 37.7311 13.8608 37.5682C13.9849 37.4053 14.0854 37.2081 14.1625 36.9766L14.2375 35.6844C14.212 35.4658 14.1691 35.2443 14.1089 35.0199C14.052 34.7937 13.9723 34.5762 13.8698 34.3673C13.7706 34.1566 13.6435 33.9608 13.4884 33.7798C13.3365 33.6007 13.1528 33.447 12.9374 33.3189C12.7035 33.1797 12.4986 33.117 12.3227 33.1307C12.1501 33.1426 12.0043 33.2149 11.8852 33.3474C11.7663 33.4764 11.6732 33.654 11.6059 33.8802C11.542 34.1047 11.5016 34.3618 11.4848 34.6513ZM19.1371 40.8681L19.3958 36.4068L20.2544 36.9176L19.9179 42.7194L19.1008 42.2333L19.1371 40.8681ZM19.3695 39.7416L19.7256 39.9424C19.7032 40.3284 19.6471 40.6649 19.5572 40.9516C19.4706 41.2367 19.3435 41.4531 19.1757 41.6011C19.008 41.7491 18.7955 41.8168 18.5384 41.8044C18.2814 41.7884 17.9745 41.6741 17.6175 41.4618C17.3744 41.3171 17.1537 41.1433 16.9553 40.9402C16.7601 40.739 16.5951 40.5096 16.4604 40.252C16.3258 39.9943 16.2264 39.7041 16.1624 39.3812C16.1014 39.0602 16.0821 38.7067 16.1045 38.3206L16.3216 34.5779L17.1756 35.0859L16.9578 38.8394C16.9427 39.1003 16.9548 39.3312 16.9941 39.5321C17.0366 39.7313 17.0981 39.9065 17.1784 40.0579C17.2621 40.2075 17.3566 40.334 17.462 40.4374C17.5705 40.5426 17.6833 40.63 17.8002 40.6996C18.1633 40.9156 18.4557 41.0064 18.6774 40.9718C18.8993 40.9337 19.0643 40.8045 19.1726 40.5842C19.2842 40.3621 19.3498 40.0812 19.3695 39.7416Z" fill="white"/>
<path d="M18.9547 12.6912L18.3779 13.1583L13.8425 10.7468L14.2561 10.4118L20.8958 8.80591L21.5468 9.15205L19.7404 9.67797L15.3246 10.7611L18.9547 12.6912ZM21.7452 9.2575L16.2201 13.7316L15.4225 13.3075L20.9476 8.83342L21.7452 9.2575ZM18.2906 14.3336C18.4095 14.2373 18.5512 14.1786 18.7155 14.1573C18.8852 14.1356 19.0505 14.1675 19.2114 14.2531C19.3724 14.3387 19.4528 14.4374 19.4527 14.5493C19.458 14.6607 19.4011 14.7646 19.2822 14.8609C19.1659 14.9551 19.0241 15.0121 18.8569 15.0318C18.6926 15.053 18.53 15.0208 18.369 14.9353C18.2081 14.8497 18.125 14.7512 18.1197 14.6398C18.1173 14.5299 18.1743 14.4279 18.2906 14.3336ZM27.2909 15.3216L26.4485 16.0038C25.9956 16.3705 25.5677 16.6554 25.1645 16.8584C24.7614 17.0615 24.3787 17.194 24.0165 17.256C23.6544 17.3179 23.3081 17.3188 22.9778 17.2585C22.6529 17.1977 22.3381 17.0864 22.0334 16.9244C21.792 16.796 21.5958 16.6561 21.4449 16.5045C21.2939 16.353 21.1947 16.1866 21.1473 16.0052C21.1052 15.8234 21.1216 15.625 21.1963 15.4103C21.2711 15.1955 21.4137 14.9625 21.624 14.7112C21.8343 14.4599 22.1204 14.1878 22.4821 13.8948L23.3245 13.2127C23.7774 12.846 24.2028 12.5631 24.6009 12.3642C25.0018 12.1667 25.3809 12.0391 25.738 11.9812C26.0976 11.9213 26.4387 11.9228 26.761 11.9856C27.0863 12.0499 27.3998 12.1623 27.7016 12.3228C27.9459 12.4527 28.1435 12.5934 28.2945 12.7449C28.4508 12.8959 28.5526 13.0603 28.5997 13.2381C28.6493 13.4138 28.6366 13.6073 28.5615 13.8185C28.4918 14.0291 28.353 14.2591 28.1452 14.5083C27.9374 14.7576 27.6526 15.0287 27.2909 15.3216ZM25.5327 15.6696L26.6066 14.8C26.8545 14.5992 27.0549 14.4139 27.2076 14.2439C27.3657 14.0735 27.4802 13.9172 27.551 13.775C27.6219 13.6328 27.6502 13.5019 27.6359 13.3823C27.6246 13.2643 27.5746 13.1563 27.4861 13.0583C27.403 12.9598 27.2838 12.8693 27.1286 12.7868C26.9389 12.6859 26.7392 12.6221 26.5293 12.5954C26.322 12.5666 26.1011 12.5798 25.8664 12.6349C25.6346 12.6915 25.384 12.7941 25.1147 12.9428C24.8454 13.0915 24.5552 13.2918 24.2441 13.5438L23.1702 14.4134C22.9222 14.6142 22.7192 14.7998 22.5611 14.9702C22.4059 15.1422 22.2917 15.3021 22.2187 15.4499C22.1482 15.5957 22.1161 15.7296 22.1224 15.8518C22.1287 15.9739 22.1722 16.0852 22.2527 16.1858C22.3387 16.2858 22.4579 16.3763 22.6102 16.4573C22.8057 16.5612 23.0096 16.6255 23.2219 16.6502C23.4343 16.6749 23.6589 16.6569 23.8957 16.5961C24.138 16.5349 24.3936 16.4282 24.6626 16.2759C24.934 16.1216 25.2241 15.9195 25.5327 15.6696Z" fill="white"/>
<defs>
<linearGradient id="paint0_linear_690_38" x1="22" y1="0.500001" x2="28.8461" y2="21.2308" gradientUnits="userSpaceOnUse">
<stop stop-color="#5E9736"/>
<stop offset="1" stop-color="#AEF27E"/>
</linearGradient>
<linearGradient id="paint1_linear_690_38" x1="14.6538" y1="14.8846" x2="11.8846" y2="19.2692" gradientUnits="userSpaceOnUse">
<stop offset="0.565" stop-color="#5E9736"/>
<stop offset="1" stop-color="#B1DE91"/>
</linearGradient>
<linearGradient id="paint2_linear_690_38" x1="29.5" y1="18.5" x2="43" y2="41.5" gradientUnits="userSpaceOnUse">
<stop stop-color="#9EDF6F"/>
<stop offset="0.225" stop-color="#5E9736"/>
<stop offset="1" stop-color="#5E9736"/>
</linearGradient>
<linearGradient id="paint3_linear_690_38" x1="13.5" y1="21" x2="3.5" y2="41.5" gradientUnits="userSpaceOnUse">
<stop stop-color="#A5DD7F"/>
<stop offset="0.19" stop-color="#61A82E"/>
<stop offset="1" stop-color="#458618"/>
</linearGradient>
</defs>
</svg>
