<svg width="68" height="78" viewBox="0 0 68 78" fill="none" xmlns="http://www.w3.org/2000/svg">
<g id="all cubes">
<g id="Edge cloud services">
<g id="Vector 89">
<path d="M35.1127 29.4175L2.49567 48.7461L34.9401 67.2118L67.3846 48.7461L35.1127 29.4175Z" fill="url(#paint0_linear_413_2957)"/>
<path d="M35.1127 29.4175L2.49567 48.7461L34.9401 67.2118L67.3846 48.7461L35.1127 29.4175Z" fill="url(#paint1_linear_413_2957)" fill-opacity="0.2"/>
</g>
<path id="Vector 90" d="M2.49562 58.0648V48.7456L34.9401 67.2113V76.8756L2.49562 58.0648Z" fill="url(#paint2_linear_413_2957)"/>
<path id="Vector 91" d="M67.3846 48.7456L34.9401 67.2113V77.0482L67.3846 58.6944V48.7456Z" fill="url(#paint3_linear_413_2957)"/>
</g>
<g id="data space">
<g id="Vector 89_2">
<path d="M35.1127 21.939L2.49567 41.2676L34.9401 59.7333L67.3846 41.2676L35.1127 21.939Z" fill="url(#paint4_linear_413_2957)"/>
<path d="M35.1127 21.939L2.49567 41.2676L34.9401 59.7333L67.3846 41.2676L35.1127 21.939Z" fill="url(#paint5_linear_413_2957)" fill-opacity="0.2"/>
</g>
<path id="Vector 90_2" d="M2.49562 50.5872V41.2681L34.9401 59.7338V69.3981L2.49562 50.5872Z" fill="url(#paint6_linear_413_2957)"/>
<path id="Vector 91_2" d="M67.3846 41.2681L34.9401 59.7338V69.5707L67.3846 51.2169V41.2681Z" fill="url(#paint7_linear_413_2957)"/>
</g>
<g id="cognitive Engine">
<g id="Vector 89_3">
<path d="M34.8236 15.5386L2.4957 34.6958L34.6525 52.9978L66.8093 34.6958L34.8236 15.5386Z" fill="url(#paint8_linear_413_2957)"/>
<path d="M34.8236 15.5386L2.4957 34.6958L34.6525 52.9978L66.8093 34.6958L34.8236 15.5386Z" fill="url(#paint9_linear_413_2957)" fill-opacity="0.2"/>
</g>
<path id="Vector 90_3" d="M2.49567 43.9323V34.6958L34.6525 52.9978V62.5764L2.49567 43.9323Z" fill="url(#paint10_linear_413_2957)"/>
<path id="Vector 91_3" d="M66.8093 34.6958L34.6525 52.9978V62.7475L66.8093 44.5564V34.6958Z" fill="url(#paint11_linear_413_2957)"/>
</g>
<g id="GOVERNANCE">
<g id="Vector 89_4">
<path d="M34.6719 6.98242L2.49567 26.0498L34.5016 44.2659L66.5076 26.0498L34.6719 6.98242Z" fill="url(#paint12_linear_413_2957)"/>
<path d="M34.6719 6.98242L2.49567 26.0498L34.5016 44.2659L66.5076 26.0498L34.6719 6.98242Z" fill="url(#paint13_linear_413_2957)" fill-opacity="0.2"/>
</g>
<path id="Vector 90_4" d="M2.49565 35.243V26.0498L34.5016 44.266V53.7996L2.49565 35.243Z" fill="url(#paint14_linear_413_2957)"/>
<path id="Vector 91_4" d="M66.5076 26.0498L34.5016 44.266V53.9699L66.5076 35.8641V26.0498Z" fill="url(#paint15_linear_413_2957)"/>
</g>
<g id="EMDC + Edge as a service">
<line id="Line 16" x1="0.744281" y1="20.2443" x2="33.1887" y2="0.915658" stroke="white" stroke-dasharray="3 3"/>
<line id="Line 17" x1="33.1887" y1="39.2277" x2="65.6332" y2="19.8991" stroke="white" stroke-dasharray="3 3"/>
<line id="Line 21" x1="33.2012" y1="76.842" x2="65.8935" y2="58.6325" stroke="white" stroke-dasharray="3 3"/>
<line id="Line 18" x1="65.6366" y1="20.415" x2="33.1921" y2="1.43149" stroke="white" stroke-dasharray="3 3"/>
<line id="Line 19" x1="33.1921" y1="39.7431" x2="0.747657" y2="20.7596" stroke="white" stroke-dasharray="3 3"/>
<line id="Line 20" x1="33.1954" y1="77.3671" x2="0.750931" y2="58.7288" stroke="white" stroke-dasharray="3 3"/>
<line id="Line 22" x1="33.9445" y1="39.3115" x2="33.9445" y2="77.2785" stroke="white" stroke-dasharray="3 3"/>
<line id="Line 23" x1="66.044" y1="21.0181" x2="66.044" y2="58.985" stroke="white" stroke-dasharray="3 3"/>
<line id="Line 24" x1="1.50024" y1="21.0181" x2="1.50024" y2="58.985" stroke="white" stroke-dasharray="3 3"/>
</g>
</g>
<defs>
<linearGradient id="paint0_linear_413_2957" x1="30.2806" y1="32.5239" x2="45.6399" y2="61.1716" gradientUnits="userSpaceOnUse">
<stop offset="0.951044" stop-color="#19A941"/>
<stop offset="1" stop-color="#60D380"/>
</linearGradient>
<linearGradient id="paint1_linear_413_2957" x1="24.4129" y1="51.6799" x2="20.2711" y2="58.2378" gradientUnits="userSpaceOnUse">
<stop offset="0.565" stop-color="#19A941"/>
<stop offset="1" stop-color="#74CE8D"/>
</linearGradient>
<linearGradient id="paint2_linear_413_2957" x1="20.4436" y1="59.9631" x2="16.4744" y2="67.0388" gradientUnits="userSpaceOnUse">
<stop stop-color="#5FD37F"/>
<stop offset="0.13" stop-color="#5FB978"/>
<stop offset="0.77" stop-color="#1D7C38"/>
<stop offset="1" stop-color="#19A941"/>
</linearGradient>
<linearGradient id="paint3_linear_413_2957" x1="50.472" y1="57.8922" x2="54.959" y2="66.0033" gradientUnits="userSpaceOnUse">
<stop stop-color="#19A941"/>
<stop offset="0.263929" stop-color="#40B661"/>
<stop offset="1" stop-color="#19A941"/>
</linearGradient>
<linearGradient id="paint4_linear_413_2957" x1="30.2806" y1="25.0453" x2="45.6399" y2="53.6931" gradientUnits="userSpaceOnUse">
<stop offset="0.951044" stop-color="#851EB6"/>
<stop offset="1" stop-color="#A631DD"/>
</linearGradient>
<linearGradient id="paint5_linear_413_2957" x1="24.4129" y1="44.2014" x2="20.2711" y2="50.7593" gradientUnits="userSpaceOnUse">
<stop offset="0.565" stop-color="#851EB6"/>
<stop offset="1" stop-color="#B96EDC"/>
</linearGradient>
<linearGradient id="paint6_linear_413_2957" x1="20.4436" y1="52.4856" x2="16.4744" y2="59.5612" gradientUnits="userSpaceOnUse">
<stop stop-color="#851EB6"/>
<stop offset="0.13" stop-color="#8533AB"/>
<stop offset="0.77" stop-color="#9D44C7"/>
<stop offset="1" stop-color="#851EB6"/>
</linearGradient>
<linearGradient id="paint7_linear_413_2957" x1="50.472" y1="50.4146" x2="54.959" y2="58.5258" gradientUnits="userSpaceOnUse">
<stop stop-color="#B072CD"/>
<stop offset="0.263929" stop-color="#8E46B0"/>
<stop offset="1" stop-color="#851EB6"/>
</linearGradient>
<linearGradient id="paint8_linear_413_2957" x1="30.0343" y1="18.6174" x2="45.2574" y2="47.0112" gradientUnits="userSpaceOnUse">
<stop offset="0.775" stop-color="#0C68AA"/>
<stop offset="1" stop-color="#2B8BD1"/>
</linearGradient>
<linearGradient id="paint9_linear_413_2957" x1="24.2187" y1="37.6036" x2="20.1135" y2="44.1034" gradientUnits="userSpaceOnUse">
<stop offset="0.565" stop-color="#0C68AA"/>
<stop offset="1" stop-color="#3083BF"/>
</linearGradient>
<linearGradient id="paint10_linear_413_2957" x1="20.2845" y1="45.8139" x2="16.3505" y2="52.8268" gradientUnits="userSpaceOnUse">
<stop stop-color="#0C68AA"/>
<stop offset="0.32" stop-color="#0583DE"/>
<stop offset="0.77" stop-color="#1578BF"/>
<stop offset="1" stop-color="#0C68AA"/>
</linearGradient>
<linearGradient id="paint11_linear_413_2957" x1="50.0467" y1="43.7613" x2="54.4939" y2="51.8005" gradientUnits="userSpaceOnUse">
<stop stop-color="#2382C7"/>
<stop offset="0.435" stop-color="#0C68AA"/>
<stop offset="1" stop-color="#0C68AA"/>
</linearGradient>
<linearGradient id="paint12_linear_413_2957" x1="29.905" y1="10.0468" x2="45.0568" y2="38.3074" gradientUnits="userSpaceOnUse">
<stop offset="0.951044" stop-color="#EDD781"/>
<stop offset="1" stop-color="#EDD997"/>
</linearGradient>
<linearGradient id="paint13_linear_413_2957" x1="24.1167" y1="28.9439" x2="20.0308" y2="35.4132" gradientUnits="userSpaceOnUse">
<stop offset="0.565" stop-color="#CD8E17"/>
<stop offset="1" stop-color="#ECD681"/>
</linearGradient>
<linearGradient id="paint14_linear_413_2957" x1="20.2011" y1="37.1157" x2="16.2854" y2="44.0957" gradientUnits="userSpaceOnUse">
<stop stop-color="#EDD781"/>
<stop offset="0.0001" stop-color="#ECD680"/>
<stop offset="0.19" stop-color="#E7C86C"/>
<stop offset="0.885" stop-color="#CD8E17"/>
</linearGradient>
<linearGradient id="paint15_linear_413_2957" x1="49.8236" y1="35.0728" x2="54.25" y2="43.0742" gradientUnits="userSpaceOnUse">
<stop stop-color="#E7C973"/>
<stop offset="0.263929" stop-color="#E7C86C"/>
<stop offset="1" stop-color="#CD8E17"/>
</linearGradient>
</defs>
</svg>
