<svg xmlns="http://www.w3.org/2000/svg" width="57" height="67" viewBox="0 0 57 67" fill="none">
    <path d="M29.3973 27.0996L2.54825 42.8667L29.2552 57.9299L55.9622 42.8667L29.3973 27.0996Z" fill="url(#paint0_linear_532_252)"/>
    <path d="M29.3973 27.0996L2.54825 42.8667L29.2552 57.9299L55.9622 42.8667L29.3973 27.0996Z" fill="url(#paint1_linear_532_252)" fill-opacity="0.2"/>
    <path d="M2.54822 50.4687V42.8667L29.2552 57.9299V65.8134L2.54822 50.4687Z" fill="url(#paint2_linear_532_252)"/>
    <path d="M55.9622 42.8667L29.2552 57.9299V65.9542L55.9622 50.9823V42.8667Z" fill="url(#paint3_linear_532_252)"/>
    <path d="M29.2519 20.6226L2.2558 36.7069L29.109 52.0733L55.9622 36.7069L29.2519 20.6226Z" fill="url(#paint4_linear_532_252)"/>
    <path d="M29.2519 20.6226L2.2558 36.7069L29.109 52.0733L55.9622 36.7069L29.2519 20.6226Z" fill="url(#paint5_linear_532_252)" fill-opacity="0.2"/>
    <path d="M2.25577 44.462V36.707L29.109 52.0734V60.1156L2.25577 44.462Z" fill="url(#paint6_linear_532_252)"/>
    <path d="M55.9622 36.707L29.109 52.0734V60.2592L55.9622 44.986V36.707Z" fill="url(#paint7_linear_532_252)"/>
    <path d="M29.2708 13.439L2.25577 29.4479L29.1279 44.7421L56 29.4479L29.2708 13.439Z" fill="url(#paint8_linear_532_252)"/>
    <path d="M29.2708 13.439L2.25577 29.4479L29.1279 44.7421L56 29.4479L29.2708 13.439Z" fill="url(#paint9_linear_532_252)" fill-opacity="0.2"/>
    <path d="M2.25574 37.1668V29.4482L29.1279 44.7425V52.7469L2.25574 37.1668Z" fill="url(#paint10_linear_532_252)"/>
    <path d="M56 29.4482L29.1279 44.7425V52.8899L56 37.6883V29.4482Z" fill="url(#paint11_linear_532_252)"/>
    <line x1="0.74425" y1="17.5045" x2="27.9845" y2="1.27627" stroke="white" stroke-dasharray="3 3"/>
    <line x1="27.9845" y1="33.443" x2="55.2248" y2="17.2147" stroke="white" stroke-dasharray="3 3"/>
    <line x1="27.997" y1="65.0227" x2="55.4454" y2="49.734" stroke="white" stroke-dasharray="3 3"/>
    <line x1="55.2282" y1="17.786" x2="27.9879" y2="1.84758" stroke="white" stroke-dasharray="3 3"/>
    <line x1="27.9879" y1="34.0141" x2="0.747617" y2="18.0756" stroke="white" stroke-dasharray="3 3"/>
    <line x1="27.9912" y1="65.6035" x2="0.75094" y2="49.9548" stroke="white" stroke-dasharray="3 3"/>
    <line x1="28.7403" y1="33.5825" x2="28.7403" y2="65.4595" stroke="white" stroke-dasharray="3 3"/>
    <line x1="55.691" y1="18.2236" x2="55.691" y2="50.1006" stroke="white" stroke-dasharray="3 3"/>
    <line x1="1.50021" y1="18.2236" x2="1.50021" y2="50.1006" stroke="white" stroke-dasharray="3 3"/>
    <defs>
        <linearGradient id="paint0_linear_532_252" x1="25.4197" y1="29.6336" x2="37.8859" y2="53.0967" gradientUnits="userSpaceOnUse">
            <stop offset="0.951044" stop-color="#DF6520"/>
            <stop offset="1" stop-color="#D98B5F"/>
        </linearGradient>
        <linearGradient id="paint1_linear_532_252" x1="20.5897" y1="45.2599" x2="17.2243" y2="50.637" gradientUnits="userSpaceOnUse">
            <stop offset="0.565" stop-color="#DF6520"/>
            <stop offset="1" stop-color="#F49966"/>
        </linearGradient>
        <linearGradient id="paint2_linear_532_252" x1="17.3223" y1="52.0172" x2="14.0998" y2="57.814" gradientUnits="userSpaceOnUse">
            <stop stop-color="#FF8A48"/>
            <stop offset="0.13" stop-color="#E97736"/>
            <stop offset="0.77" stop-color="#DF6520"/>
            <stop offset="1" stop-color="#DF6520"/>
        </linearGradient>
        <linearGradient id="paint3_linear_532_252" x1="42.0405" y1="50.3279" x2="45.683" y2="56.9724" gradientUnits="userSpaceOnUse">
            <stop stop-color="#FFAD7E"/>
            <stop offset="0.263929" stop-color="#DF6520"/>
            <stop offset="1" stop-color="#DF6520"/>
        </linearGradient>
        <linearGradient id="paint4_linear_532_252" x1="25.2524" y1="23.2075" x2="38.072" y2="46.9892" gradientUnits="userSpaceOnUse">
            <stop offset="0.775" stop-color="#0C68AA"/>
            <stop offset="1" stop-color="#2B8BD1"/>
        </linearGradient>
        <linearGradient id="paint5_linear_532_252" x1="20.396" y1="39.1483" x2="16.9414" y2="44.5887" gradientUnits="userSpaceOnUse">
            <stop offset="0.565" stop-color="#0C68AA"/>
            <stop offset="1" stop-color="#3083BF"/>
        </linearGradient>
        <linearGradient id="paint6_linear_532_252" x1="17.1107" y1="46.0417" x2="13.7984" y2="51.9145" gradientUnits="userSpaceOnUse">
            <stop stop-color="#0C68AA"/>
            <stop offset="0.32" stop-color="#0583DE"/>
            <stop offset="0.77" stop-color="#1578BF"/>
            <stop offset="1" stop-color="#0C68AA"/>
        </linearGradient>
        <linearGradient id="paint7_linear_532_252" x1="41.9643" y1="44.3184" x2="45.7089" y2="51.0509" gradientUnits="userSpaceOnUse">
            <stop stop-color="#2382C7"/>
            <stop offset="0.435" stop-color="#0C68AA"/>
            <stop offset="1" stop-color="#0C68AA"/>
        </linearGradient>
        <linearGradient id="paint8_linear_532_252" x1="25.2686" y1="16.0118" x2="37.99" y2="39.7393" gradientUnits="userSpaceOnUse">
            <stop offset="0.951044" stop-color="#EDD781"/>
            <stop offset="1" stop-color="#EDD997"/>
        </linearGradient>
        <linearGradient id="paint9_linear_532_252" x1="20.4087" y1="31.8778" x2="16.9783" y2="37.3094" gradientUnits="userSpaceOnUse">
            <stop offset="0.565" stop-color="#CD8E17"/>
            <stop offset="1" stop-color="#ECD681"/>
        </linearGradient>
        <linearGradient id="paint10_linear_532_252" x1="17.1212" y1="38.7391" x2="13.8336" y2="44.5995" gradientUnits="userSpaceOnUse">
            <stop stop-color="#EDD781"/>
            <stop offset="0.0001" stop-color="#ECD680"/>
            <stop offset="0.19" stop-color="#E7C86C"/>
            <stop offset="0.885" stop-color="#CD8E17"/>
        </linearGradient>
        <linearGradient id="paint11_linear_532_252" x1="41.9922" y1="37.0239" x2="45.7085" y2="43.7419" gradientUnits="userSpaceOnUse">
            <stop stop-color="#E7C973"/>
            <stop offset="0.263929" stop-color="#E7C86C"/>
            <stop offset="1" stop-color="#CD8E17"/>
        </linearGradient>
    </defs>
</svg>
