<svg xmlns="http://www.w3.org/2000/svg" width="85" height="100" viewBox="0 0 85 100" fill="none">
    <path d="M44.4001 40.2534L3.36609 64.3506L44.183 87.372L84.9999 64.3506L44.4001 40.2534Z" fill="url(#paint0_linear_532_906)"/>
    <path d="M44.4001 40.2534L3.36609 64.3506L44.183 87.372L84.9999 64.3506L44.4001 40.2534Z" fill="url(#paint1_linear_532_906)" fill-opacity="0.2"/>
    <path d="M3.36609 75.9684V64.3501L44.183 87.3715V99.4201L3.36609 75.9684Z" fill="url(#paint2_linear_532_906)"/>
    <path d="M85 64.3501L44.1831 87.3715V99.6353L85 76.7534V64.3501Z" fill="url(#paint3_linear_532_906)"/>
    <path d="M44.1778 28.3037L2.91907 52.7533L43.9595 76.1114L84.9999 52.7533L44.1778 28.3037Z" fill="url(#paint4_linear_532_906)"/>
    <path d="M44.1778 28.3037L2.91907 52.7533L43.9595 76.1114L84.9999 52.7533L44.1778 28.3037Z" fill="url(#paint5_linear_532_906)" fill-opacity="0.2"/>
    <path d="M2.91907 64.5426V52.7544L43.9595 76.1125V88.3373L2.91907 64.5426Z" fill="url(#paint6_linear_532_906)"/>
    <path d="M85 52.7544L43.9596 76.1125V88.5556L85 65.3391V52.7544Z" fill="url(#paint7_linear_532_906)"/>
    <path d="M44.1779 19.6562L2.91919 44.2384L43.9596 67.7231L84.9999 44.2384L44.1779 19.6562Z" fill="url(#paint8_linear_532_906)"/>
    <path d="M44.1779 19.6562L2.91919 44.2384L43.9596 67.7231L84.9999 44.2384L44.1779 19.6562Z" fill="url(#paint9_linear_532_906)" fill-opacity="0.2"/>
    <path d="M2.91919 56.0904V44.2383L43.9596 67.723V80.014L2.91919 56.0904Z" fill="url(#paint10_linear_532_906)"/>
    <path d="M85 44.2383L43.9596 67.723V80.2335L85 56.8912V44.2383Z" fill="url(#paint11_linear_532_906)"/>
    <line x1="0.744219" y1="25.8156" x2="42.3762" y2="1.01355" stroke="white" stroke-dasharray="3 3"/>
    <line x1="42.3763" y1="50.1749" x2="84.0082" y2="25.3729" stroke="white" stroke-dasharray="3 3"/>
    <line x1="42.3887" y1="98.4431" x2="84.3387" y2="75.0771" stroke="white" stroke-dasharray="3 3"/>
    <line x1="84.0117" y1="25.7909" x2="42.3797" y2="1.43181" stroke="white" stroke-dasharray="3 3"/>
    <line x1="42.3797" y1="50.5927" x2="0.74775" y2="26.2336" stroke="white" stroke-dasharray="3 3"/>
    <line x1="42.3829" y1="98.8706" x2="0.750951" y2="74.9543" stroke="white" stroke-dasharray="3 3"/>
    <line x1="43.132" y1="50.1611" x2="43.132" y2="98.8794" stroke="white" stroke-dasharray="3 3"/>
    <line x1="84.3213" y1="26.688" x2="84.3213" y2="75.4062" stroke="white" stroke-dasharray="3 3"/>
    <line x1="1.50037" y1="26.688" x2="1.50037" y2="75.4062" stroke="white" stroke-dasharray="3 3"/>
    <defs>
        <linearGradient id="paint0_linear_532_906" x1="38.321" y1="44.1262" x2="57.3733" y2="79.9854" gradientUnits="userSpaceOnUse">
            <stop offset="0.951044" stop-color="#DF6520"/>
            <stop offset="1" stop-color="#D98B5F"/>
        </linearGradient>
        <linearGradient id="paint1_linear_532_906" x1="30.9392" y1="68.0082" x2="25.7958" y2="76.2261" gradientUnits="userSpaceOnUse">
            <stop offset="0.565" stop-color="#DF6520"/>
            <stop offset="1" stop-color="#F49966"/>
        </linearGradient>
        <linearGradient id="paint2_linear_532_906" x1="25.9457" y1="78.3351" x2="21.0206" y2="87.1944" gradientUnits="userSpaceOnUse">
            <stop stop-color="#FF8A48"/>
            <stop offset="0.13" stop-color="#E97736"/>
            <stop offset="0.77" stop-color="#DF6520"/>
            <stop offset="1" stop-color="#DF6520"/>
        </linearGradient>
        <linearGradient id="paint3_linear_532_906" x1="63.7231" y1="75.7532" x2="69.2901" y2="85.9082" gradientUnits="userSpaceOnUse">
            <stop stop-color="#FFAD7E"/>
            <stop offset="0.263929" stop-color="#DF6520"/>
            <stop offset="1" stop-color="#DF6520"/>
        </linearGradient>
        <linearGradient id="paint4_linear_532_906" x1="38.0654" y1="32.2331" x2="57.4941" y2="68.4709" gradientUnits="userSpaceOnUse">
            <stop offset="0.951044" stop-color="#851EB6"/>
            <stop offset="1" stop-color="#A631DD"/>
        </linearGradient>
        <linearGradient id="paint5_linear_532_906" x1="30.6432" y1="56.4644" x2="25.404" y2="64.7598" gradientUnits="userSpaceOnUse">
            <stop offset="0.565" stop-color="#851EB6"/>
            <stop offset="1" stop-color="#B96EDC"/>
        </linearGradient>
        <linearGradient id="paint6_linear_532_906" x1="25.6223" y1="66.9439" x2="20.6014" y2="75.8942" gradientUnits="userSpaceOnUse">
            <stop stop-color="#851EB6"/>
            <stop offset="0.13" stop-color="#8533AB"/>
            <stop offset="0.77" stop-color="#9D44C7"/>
            <stop offset="1" stop-color="#851EB6"/>
        </linearGradient>
        <linearGradient id="paint7_linear_532_906" x1="63.6066" y1="64.3243" x2="69.2824" y2="74.5844" gradientUnits="userSpaceOnUse">
            <stop stop-color="#B072CD"/>
            <stop offset="0.263929" stop-color="#8E46B0"/>
            <stop offset="1" stop-color="#851EB6"/>
        </linearGradient>
        <linearGradient id="paint8_linear_532_906" x1="38.0655" y1="23.6069" x2="57.6578" y2="59.9529" gradientUnits="userSpaceOnUse">
            <stop offset="0.775" stop-color="#0C68AA"/>
            <stop offset="1" stop-color="#2B8BD1"/>
        </linearGradient>
        <linearGradient id="paint9_linear_532_906" x1="30.6433" y1="47.9696" x2="25.3635" y2="56.2842" gradientUnits="userSpaceOnUse">
            <stop offset="0.565" stop-color="#0C68AA"/>
            <stop offset="1" stop-color="#3083BF"/>
        </linearGradient>
        <linearGradient id="paint10_linear_532_906" x1="25.6224" y1="58.5047" x2="20.5601" y2="67.4801" gradientUnits="userSpaceOnUse">
            <stop stop-color="#0C68AA"/>
            <stop offset="0.32" stop-color="#0583DE"/>
            <stop offset="0.77" stop-color="#1578BF"/>
            <stop offset="1" stop-color="#0C68AA"/>
        </linearGradient>
        <linearGradient id="paint11_linear_532_906" x1="63.6066" y1="55.8709" x2="69.3295" y2="66.1604" gradientUnits="userSpaceOnUse">
            <stop stop-color="#2382C7"/>
            <stop offset="0.435" stop-color="#0C68AA"/>
            <stop offset="1" stop-color="#0C68AA"/>
        </linearGradient>
    </defs>
</svg>
