<svg width="48" height="55" viewBox="0 0 48 55" fill="none" xmlns="http://www.w3.org/2000/svg">
<g id="all cubes">
<g id="Edge cloud services">
<g id="Vector 89">
<path d="M24.8354 20.856L2.04507 34.3614L24.7148 47.2638L47.3846 34.3614L24.8354 20.856Z" fill="url(#paint0_linear_413_3011)"/>
<path d="M24.8354 20.856L2.04507 34.3614L24.7148 47.2638L47.3846 34.3614L24.8354 20.856Z" fill="url(#paint1_linear_413_3011)" fill-opacity="0.2"/>
</g>
<path id="Vector 90" d="M2.04504 40.8724V34.3608L24.7148 47.2633V54.016L2.04504 40.8724Z" fill="url(#paint2_linear_413_3011)"/>
<path id="Vector 91" d="M47.3846 34.3608L24.7148 47.2633V54.1366L47.3846 41.3123V34.3608Z" fill="url(#paint3_linear_413_3011)"/>
</g>
<g id="EMDC + Edge as a service">
<line id="Line 16" x1="0.744219" y1="14.317" x2="23.414" y2="0.811632" stroke="white" stroke-dasharray="3 3"/>
<line id="Line 17" x1="23.414" y1="27.5817" x2="46.0838" y2="14.0763" stroke="white" stroke-dasharray="3 3"/>
<line id="Line 21" x1="23.4265" y1="53.8615" x2="46.2695" y2="41.1381" stroke="white" stroke-dasharray="3 3"/>
<line id="Line 18" x1="46.0872" y1="14.6957" x2="23.4174" y2="1.43149" stroke="white" stroke-dasharray="3 3"/>
<line id="Line 19" x1="23.4174" y1="28.2011" x2="0.747612" y2="14.9369" stroke="white" stroke-dasharray="3 3"/>
<line id="Line 20" x1="23.4207" y1="54.4907" x2="0.750932" y2="41.4676" stroke="white" stroke-dasharray="3 3"/>
<line id="Line 22" x1="24.1698" y1="27.7695" x2="24.1698" y2="54.298" stroke="white" stroke-dasharray="3 3"/>
<line id="Line 23" x1="46.5985" y1="14.9873" x2="46.5985" y2="41.5158" stroke="white" stroke-dasharray="3 3"/>
<line id="Line 24" x1="1.50018" y1="14.9873" x2="1.50018" y2="41.5158" stroke="white" stroke-dasharray="3 3"/>
</g>
</g>
<defs>
<linearGradient id="paint0_linear_413_3011" x1="21.4591" y1="23.0265" x2="32.1911" y2="43.0434" gradientUnits="userSpaceOnUse">
<stop offset="0.951044" stop-color="#19A941"/>
<stop offset="1" stop-color="#60D380"/>
</linearGradient>
<linearGradient id="paint1_linear_413_3011" x1="17.3592" y1="36.4113" x2="14.4652" y2="40.9935" gradientUnits="userSpaceOnUse">
<stop offset="0.565" stop-color="#19A941"/>
<stop offset="1" stop-color="#74CE8D"/>
</linearGradient>
<linearGradient id="paint2_linear_413_3011" x1="14.5858" y1="42.1988" x2="11.8123" y2="47.1427" gradientUnits="userSpaceOnUse">
<stop stop-color="#5FD37F"/>
<stop offset="0.13" stop-color="#5FB978"/>
<stop offset="0.77" stop-color="#1D7C38"/>
<stop offset="1" stop-color="#19A941"/>
</linearGradient>
<linearGradient id="paint3_linear_413_3011" x1="35.5674" y1="40.7518" x2="38.7025" y2="46.4192" gradientUnits="userSpaceOnUse">
<stop stop-color="#19A941"/>
<stop offset="0.263929" stop-color="#40B661"/>
<stop offset="1" stop-color="#19A941"/>
</linearGradient>
</defs>
</svg>
