<svg xmlns="http://www.w3.org/2000/svg" width="48" height="55" viewBox="0 0 48 55" fill="none">
    <path d="M23.8077 23L2 35.9231L23.6923 48.2692L45.3846 35.9231L23.8077 23Z" fill="url(#paint0_linear_413_3011)"/>
    <path d="M23.8077 23L2 35.9231L23.6923 48.2692L45.3846 35.9231L23.8077 23Z" fill="url(#paint1_linear_413_3011)" fill-opacity="0.2"/>
    <path d="M1.99997 42.1536V35.9229L23.6923 48.269V54.7305L1.99997 42.1536Z" fill="url(#paint2_linear_413_3011)"/>
    <path d="M45.3846 35.9229L23.6923 48.269V54.8459L45.3846 42.5746V35.9229Z" fill="url(#paint3_linear_413_3011)"/>
    <line x1="0.744219" y1="14.317" x2="23.414" y2="0.811632" stroke="white" stroke-dasharray="3 3"/>
    <line x1="23.414" y1="27.5817" x2="46.0838" y2="14.0763" stroke="white" stroke-dasharray="3 3"/>
    <line x1="23.4265" y1="53.8615" x2="46.2695" y2="41.1381" stroke="white" stroke-dasharray="3 3"/>
    <line x1="46.0872" y1="14.6957" x2="23.4174" y2="1.43149" stroke="white" stroke-dasharray="3 3"/>
    <line x1="23.4174" y1="28.2011" x2="0.747612" y2="14.9369" stroke="white" stroke-dasharray="3 3"/>
    <line x1="23.4207" y1="54.4907" x2="0.750932" y2="41.4676" stroke="white" stroke-dasharray="3 3"/>
    <line x1="24.1698" y1="27.7695" x2="24.1698" y2="54.298" stroke="white" stroke-dasharray="3 3"/>
    <line x1="46.5985" y1="14.9873" x2="46.5985" y2="41.5158" stroke="white" stroke-dasharray="3 3"/>
    <line x1="1.50018" y1="14.9873" x2="1.50018" y2="41.5158" stroke="white" stroke-dasharray="3 3"/>
    <defs>
        <linearGradient id="paint0_linear_413_3011" x1="20.5769" y1="25.0769" x2="30.8462" y2="44.2308" gradientUnits="userSpaceOnUse">
            <stop offset="0.951044" stop-color="#DF6520"/>
            <stop offset="1" stop-color="#D98B5F"/>
        </linearGradient>
        <linearGradient id="paint1_linear_413_3011" x1="16.6538" y1="37.8846" x2="13.8846" y2="42.2692" gradientUnits="userSpaceOnUse">
            <stop offset="0.565" stop-color="#DF6520"/>
            <stop offset="1" stop-color="#F49966"/>
        </linearGradient>
        <linearGradient id="paint2_linear_413_3011" x1="14" y1="43.4229" x2="11.3461" y2="48.1536" gradientUnits="userSpaceOnUse">
            <stop stop-color="#FF8A48"/>
            <stop offset="0.13" stop-color="#E97736"/>
            <stop offset="0.77" stop-color="#DF6520"/>
            <stop offset="1" stop-color="#DF6520"/>
        </linearGradient>
        <linearGradient id="paint3_linear_413_3011" x1="34.0769" y1="42.0382" x2="37.0769" y2="47.4613" gradientUnits="userSpaceOnUse">
            <stop stop-color="#FFAD7E"/>
            <stop offset="0.263929" stop-color="#DF6520"/>
            <stop offset="1" stop-color="#DF6520"/>
        </linearGradient>
    </defs>
</svg>
