<svg xmlns="http://www.w3.org/2000/svg" width="1193.04" height="659.7" viewBox="0 0 894.78 494.78"><path d="M56.67 338.25V177.52c0-6.84-.5-11.9-2.02-17.97l27.84-4.05c1.52 6.83 2.28 11.9 2.28 22.02v35.69c0 4.04-.25 7.34-.76 11.64 8.1-9.11 15.7-15.44 32.15-15.44 18.98 0 35.94 12.66 35.94 40v88.84H124v-87.07c0-13.42-5.82-18.23-16.7-18.23-11.9 0-17.72 4.81-22.53 10.88v94.42" fill="#fff"/><path d="M56.67 338.25V177.52c0-6.84-.5-11.9-2.02-17.97l27.84-4.05c1.52 6.83 2.28 11.9 2.28 22.02v35.69c0 4.04-.25 7.34-.76 11.64 8.1-9.11 15.7-15.44 32.15-15.44 18.98 0 35.94 12.66 35.94 40v88.84H124v-87.07c0-13.42-5.82-18.23-16.7-18.23-11.9 0-17.72 4.81-22.53 10.88v94.42Zm0 0" fill="none" stroke-width="2" stroke="#fff" stroke-miterlimit="10"/><path d="M175.75 338.25v-125.8l28.1-1.52v127.32Zm0 0" fill="#fff" stroke-width="2" stroke="#fff" stroke-miterlimit="10"/><path d="M228.74 338.25v-98.47c0-8.6-1.02-15.94-3.04-21.76l22.02-8.61c2.79 6.33 4.3 11.9 5.57 18.98 5.82-11.14 14.43-18.98 30.37-18.98 7.34 0 12.4 1.52 17.72 5.57l-8.1 27.34c-3.54-3.55-9.36-6.08-16.45-6.08-9.62 0-20 4.3-20 13.16v88.85" fill="#fff"/><path d="M228.74 338.25v-98.47c0-8.6-1.02-15.94-3.04-21.76l22.02-8.61c2.79 6.33 4.3 11.9 5.57 18.98 5.82-11.14 14.43-18.98 30.37-18.98 7.34 0 12.4 1.52 17.72 5.57l-8.1 27.34c-3.54-3.55-9.36-6.08-16.45-6.08-9.62 0-20 4.3-20 13.16v88.85Zm0 0" fill="none" stroke-width="2" stroke="#fff" stroke-miterlimit="10"/><path d="M359.96 322.67c15.95 0 24.8-10.63 24.8-41.76 0-32.15-8.85-44.05-24.8-44.05-15.94 0-24.3 11.9-24.3 44.05 0 31.13 8.36 41.76 24.3 41.76m0-108.33c35.94 0 53.16 23.03 53.16 66.57 0 43.03-18.73 64.29-53.16 64.29-34.42 0-52.65-21.26-52.65-64.3 0-43.53 16.71-66.56 52.65-66.56" fill="#fff"/><path d="M359.96 322.67c15.95 0 24.8-10.63 24.8-41.76 0-32.15-8.85-44.05-24.8-44.05-15.94 0-24.3 11.9-24.3 44.05 0 31.13 8.36 41.76 24.3 41.76Zm0-108.33c35.94 0 53.16 23.03 53.16 66.57 0 43.03-18.73 64.29-53.16 64.29-34.42 0-52.65-21.26-52.65-64.3 0-43.53 16.71-66.56 52.65-66.56Zm0 0" fill="none" stroke-width="2" stroke="#fff" stroke-miterlimit="10"/><path d="M212.3 175.32a22.51 22.51 0 1 1-45.02 0 22.51 22.51 0 0 1 45.03 0M81.37 419.5H61.31v17.42h22.36v5.23H54.65v-48.31h27.87v5.23H61.31v15.27h20.06" fill="#5e9735"/><path d="M81.37 419.5H61.31v17.42h22.36v5.23H54.65v-48.31h27.87v5.23H61.31v15.27h20.06Zm0 0" fill="none" stroke-width=".5" stroke="#5e9735" stroke-miterlimit="10"/><path d="M115.9 421.58a9.77 9.77 0 0 0-10.03-9.96c-6.98 0-11.1 5.73-11.1 13.4 0 7.02 3.67 12.83 10.94 12.83a10 10 0 0 0 10.18-10.25Zm6.73-30.33v41.94c0 3.08.08 6.6.3 8.96h-6.04l-.3-6.02h-.16c-2.07 3.87-6.59 6.8-12.63 6.8-8.96 0-15.85-7.09-15.85-17.63-.08-11.54 7.58-18.63 16.61-18.63 5.67 0 9.5 2.5 11.18 5.3h.15v-20.72" fill="#5e9735"/><path d="M115.9 421.58a9.77 9.77 0 0 0-10.03-9.96c-6.98 0-11.1 5.73-11.1 13.4 0 7.02 3.67 12.83 10.94 12.83a10 10 0 0 0 10.18-10.25Zm6.73-30.33v41.94c0 3.08.08 6.6.3 8.96h-6.04l-.3-6.02h-.16c-2.07 3.87-6.59 6.8-12.63 6.8-8.96 0-15.85-7.09-15.85-17.63-.08-11.54 7.58-18.63 16.61-18.63 5.67 0 9.5 2.5 11.18 5.3h.15v-20.72Zm0 0" fill="none" stroke-width=".5" stroke="#5e9735" stroke-miterlimit="10"/><path d="M157.61 421.15c0-1.08-.07-2-.38-2.87a9.63 9.63 0 0 0-9.42-6.67c-6.43 0-11.02 5.1-11.02 13.12 0 6.81 3.67 12.48 10.95 12.48a9.81 9.81 0 0 0 9.34-6.46c.38-1.07.53-2.3.53-3.37Zm6.97-13.7c-.15 2.51-.3 5.3-.3 9.54v20.14c0 7.96-1.69 12.83-5.29 15.85-3.6 3.15-8.8 4.15-13.47 4.15-4.45 0-9.35-1-12.33-2.86l1.68-4.8a21.98 21.98 0 0 0 10.88 2.72c6.89 0 11.94-3.37 11.94-12.12v-3.87h-.15c-2.07 3.23-6.05 5.8-11.8 5.8-9.19 0-15.77-7.3-15.77-16.91 0-11.75 8.2-18.42 16.69-18.42 6.43 0 9.96 3.15 11.57 6.02h.15l.3-5.24" fill="#5e9735"/><path d="M157.61 421.15c0-1.08-.07-2-.38-2.87a9.63 9.63 0 0 0-9.42-6.67c-6.43 0-11.02 5.1-11.02 13.12 0 6.81 3.67 12.48 10.95 12.48a9.81 9.81 0 0 0 9.34-6.46c.38-1.07.53-2.3.53-3.37Zm6.97-13.7c-.15 2.51-.3 5.3-.3 9.54v20.14c0 7.96-1.69 12.83-5.29 15.85-3.6 3.15-8.8 4.15-13.47 4.15-4.45 0-9.35-1-12.33-2.86l1.68-4.8a21.98 21.98 0 0 0 10.88 2.72c6.89 0 11.94-3.37 11.94-12.12v-3.87h-.15c-2.07 3.23-6.05 5.8-11.8 5.8-9.19 0-15.77-7.3-15.77-16.91 0-11.75 8.2-18.42 16.69-18.42 6.43 0 9.96 3.15 11.57 6.02h.15l.3-5.24Zm0 0" fill="none" stroke-width=".5" stroke="#5e9735" stroke-miterlimit="10"/><path d="M197.8 421.43c.07-4-1.76-10.25-9.34-10.25-6.82 0-9.8 5.88-10.34 10.25Zm-19.76 4.52c.16 8.53 5.98 12.05 12.71 12.05 4.83 0 7.74-.8 10.27-1.8l1.14 4.52c-2.37 1-6.43 2.15-12.32 2.15-11.41 0-18.23-7.03-18.23-17.5 0-10.46 6.59-18.7 17.38-18.7 12.1 0 15.32 9.96 15.32 16.34 0 1.3-.15 2.3-.23 2.94" fill="#5e9735"/><path d="M197.8 421.43c.07-4-1.76-10.25-9.34-10.25-6.82 0-9.8 5.88-10.34 10.25Zm-19.76 4.52c.16 8.53 5.98 12.05 12.71 12.05 4.83 0 7.74-.8 10.27-1.8l1.14 4.52c-2.37 1-6.43 2.15-12.32 2.15-11.41 0-18.23-7.03-18.23-17.5 0-10.46 6.59-18.7 17.38-18.7 12.1 0 15.32 9.96 15.32 16.34 0 1.3-.15 2.3-.23 2.94Zm0 0" fill="none" stroke-width=".5" stroke="#5e9735" stroke-miterlimit="10"/><path d="M270.3 420.93c-.39-6.74-.85-14.84-.77-20.86h-.23a272.26 272.26 0 0 1-6.51 18.36l-9.11 23.44h-5.05l-8.35-23.01a208.75 208.75 0 0 1-5.97-18.79h-.16a595.9 595.9 0 0 1-1 21.36l-1.37 20.72h-6.35l3.6-48.31h8.5l8.8 23.37c2.14 5.94 3.9 11.25 5.2 16.27h.24a173.5 173.5 0 0 1 5.43-16.27l9.2-23.37h8.5l3.2 48.31h-6.5" fill="#5e9735"/><path d="M270.3 420.93c-.39-6.74-.85-14.84-.77-20.86h-.23a272.26 272.26 0 0 1-6.51 18.36l-9.11 23.44h-5.05l-8.35-23.01a208.75 208.75 0 0 1-5.97-18.79h-.16c-.15 6.02-.53 14.12-1 21.36l-1.37 20.72h-6.35l3.6-48.31h8.5l8.8 23.37a186.6 186.6 0 0 1 5.2 16.27h.24a173.5 173.5 0 0 1 5.43-16.27l9.2-23.37h8.5l3.2 48.31h-6.5Zm0 0" fill="none" stroke-width=".5" stroke="#5e9735" stroke-miterlimit="10"/><path d="M287.89 407.45h6.74v34.7h-6.74Zm7.5-9.74c.08 2.15-1.6 3.87-4.28 3.87-2.38 0-4.06-1.72-4.06-3.87 0-2.23 1.76-3.94 4.2-3.94 2.54 0 4.14 1.71 4.14 3.94" fill="#5e9735"/><path d="M287.89 407.45h6.74v34.7h-6.74Zm7.5-9.74c.08 2.15-1.6 3.87-4.28 3.87-2.38 0-4.06-1.72-4.06-3.87 0-2.23 1.76-3.94 4.2-3.94 2.54 0 4.14 1.71 4.14 3.94Zm0 0" fill="none" stroke-width=".5" stroke="#5e9735" stroke-miterlimit="10"/><path d="M331.07 440.86c-1.76.86-5.67 2-10.64 2-11.18 0-18.46-7.09-18.46-17.7 0-10.68 7.81-18.42 19.91-18.42 3.98 0 7.5.93 9.34 1.8l-1.53 4.87c-1.6-.87-4.13-1.66-7.8-1.66-8.5 0-13.1 5.88-13.1 13.13 0 8.03 5.51 12.97 12.86 12.97 3.83 0 6.36-.93 8.27-1.72" fill="#5e9735"/><path d="M331.07 440.86c-1.76.86-5.67 2-10.64 2-11.18 0-18.46-7.09-18.46-17.7 0-10.68 7.81-18.42 19.91-18.42 3.98 0 7.5.93 9.34 1.8l-1.53 4.87c-1.6-.87-4.13-1.66-7.8-1.66-8.5 0-13.1 5.88-13.1 13.13 0 8.03 5.51 12.97 12.86 12.97 3.83 0 6.36-.93 8.27-1.72Zm0 0" fill="none" stroke-width=".5" stroke="#5e9735" stroke-miterlimit="10"/><path d="M337.8 418.28c0-4.08-.08-7.6-.31-10.83h5.9l.23 6.82h.3c1.69-4.66 5.74-7.6 10.26-7.6a8 8 0 0 1 1.92.21v5.95c-.7-.14-1.38-.21-2.3-.21-4.75 0-8.12 3.37-9.03 8.1-.16.86-.31 1.86-.31 2.94v18.5h-6.66" fill="#5e9735"/><path d="M337.8 418.28c0-4.08-.08-7.6-.31-10.83h5.9l.23 6.82h.3c1.69-4.66 5.74-7.6 10.26-7.6a8 8 0 0 1 1.92.21v5.95c-.7-.14-1.38-.21-2.3-.21-4.75 0-8.12 3.37-9.03 8.1-.16.86-.31 1.86-.31 2.94v18.5h-6.66Zm0 0" fill="none" stroke-width=".5" stroke="#5e9735" stroke-miterlimit="10"/><path d="M365.05 424.88c0 7.6 4.67 13.33 11.26 13.33 6.43 0 11.25-5.66 11.25-13.48 0-5.87-3.14-13.33-11.1-13.33-7.96 0-11.4 6.88-11.4 13.48m29.4-.36c0 12.83-9.5 18.42-18.46 18.42-10.03 0-17.77-6.88-17.77-17.85 0-11.61 8.12-18.42 18.38-18.42 10.64 0 17.84 7.24 17.84 17.85" fill="#5e9735"/><path d="M365.05 424.88c0 7.6 4.67 13.33 11.26 13.33 6.43 0 11.25-5.66 11.25-13.48 0-5.87-3.14-13.33-11.1-13.33-7.96 0-11.4 6.88-11.4 13.48Zm29.4-.36c0 12.83-9.49 18.42-18.45 18.42-10.03 0-17.77-6.88-17.77-17.85 0-11.61 8.12-18.42 18.38-18.42 10.64 0 17.84 7.24 17.84 17.85Zm0 0" fill="none" stroke-width=".5" stroke="#5e9735" stroke-miterlimit="10"/><path d="M423.76 437.2c1.69.3 4.14.36 6.74.36 14.24 0 21.98-7.45 21.98-20.5.07-11.4-6.82-18.64-20.9-18.64-3.45 0-6.06.3-7.82.65Zm-6.66-42.72c4.06-.57 8.88-1 14.17-1 9.57 0 16.38 2.07 20.9 6.02 4.6 3.94 7.28 9.54 7.28 17.35 0 7.88-2.61 14.33-7.43 18.78-4.83 4.51-12.79 6.95-22.82 6.95-4.75 0-8.73-.21-12.1-.57" fill="#5e9735"/><path d="M423.76 437.2c1.69.3 4.14.36 6.74.36 14.24 0 21.98-7.45 21.98-20.5.07-11.4-6.82-18.64-20.9-18.64-3.45 0-6.06.3-7.82.65Zm-6.66-42.72c4.06-.57 8.88-1 14.17-1 9.57 0 16.38 2.07 20.9 6.02 4.6 3.94 7.28 9.54 7.28 17.35 0 7.88-2.61 14.33-7.43 18.78-4.83 4.51-12.79 6.95-22.82 6.95-4.75 0-8.73-.21-12.1-.57Zm0 0" fill="none" stroke-width=".5" stroke="#5e9735" stroke-miterlimit="10"/><path d="M486.23 424.45c-7.35-.15-15.7 1.07-15.7 7.8 0 4.1 2.91 6.03 6.36 6.03 4.82 0 7.88-2.87 8.96-5.8.23-.65.38-1.37.38-2.01Zm1 17.7-.54-4.37h-.23c-2.07 2.72-6.05 5.16-11.33 5.16-7.5 0-11.34-4.94-11.34-9.96 0-8.39 7.97-12.98 22.29-12.9v-.72c0-2.87-.85-8.04-8.43-8.04-3.44 0-7.04 1-9.64 2.59l-1.54-4.16c3.07-1.86 7.51-3.08 12.18-3.08 11.33 0 14.08 7.24 14.08 14.2v12.97c0 3 .16 5.95.62 8.31" fill="#5e9735"/><path d="M486.23 424.45c-7.35-.15-15.7 1.07-15.7 7.8 0 4.1 2.91 6.03 6.36 6.03 4.82 0 7.88-2.87 8.96-5.8.23-.65.38-1.37.38-2.01Zm1 17.7-.54-4.37h-.23c-2.07 2.72-6.05 5.16-11.33 5.16-7.5 0-11.34-4.94-11.34-9.96 0-8.39 7.97-12.98 22.29-12.9v-.72c0-2.87-.85-8.04-8.43-8.04-3.44 0-7.04 1-9.64 2.59l-1.54-4.16c3.07-1.86 7.51-3.08 12.18-3.08 11.33 0 14.08 7.24 14.08 14.2v12.97c0 3 .16 5.95.62 8.31Zm0 0" fill="none" stroke-width=".5" stroke="#5e9735" stroke-miterlimit="10"/><path d="M510.26 397.5v9.95h9.65v4.8h-9.65v18.72c0 4.3 1.3 6.74 5.06 6.74 1.75 0 3.06-.22 3.9-.43l.3 4.73c-1.3.5-3.36.86-5.97.86-3.14 0-5.66-.93-7.27-2.66-1.92-1.86-2.6-4.94-2.6-9.02v-18.93h-5.75v-4.8h5.75v-8.32" fill="#5e9735"/><path d="M510.26 397.5v9.95h9.65v4.8h-9.65v18.72c0 4.3 1.3 6.74 5.06 6.74 1.75 0 3.06-.22 3.9-.43l.3 4.73c-1.3.5-3.36.86-5.97.86-3.14 0-5.66-.93-7.27-2.66-1.92-1.86-2.6-4.94-2.6-9.02v-18.93h-5.75v-4.8h5.75v-8.32Zm0 0" fill="none" stroke-width=".5" stroke="#5e9735" stroke-miterlimit="10"/><path d="M545.86 424.45c-7.35-.15-15.7 1.07-15.7 7.8 0 4.1 2.91 6.03 6.36 6.03 4.82 0 7.89-2.87 8.96-5.8.23-.65.38-1.37.38-2.01Zm1 17.7-.54-4.37h-.23c-2.07 2.72-6.05 5.16-11.33 5.16-7.5 0-11.33-4.94-11.33-9.96 0-8.39 7.96-12.98 22.28-12.9v-.72c0-2.87-.84-8.04-8.42-8.04-3.45 0-7.05 1-9.66 2.59l-1.52-4.16c3.06-1.86 7.5-3.08 12.17-3.08 11.33 0 14.1 7.24 14.1 14.2v12.97c0 3 .14 5.95.6 8.31" fill="#5e9735"/><path d="M545.86 424.45c-7.35-.15-15.7 1.07-15.7 7.8 0 4.1 2.91 6.03 6.36 6.03 4.82 0 7.89-2.87 8.96-5.8.23-.65.38-1.37.38-2.01Zm1 17.7-.54-4.37h-.23c-2.07 2.72-6.05 5.16-11.33 5.16-7.5 0-11.33-4.94-11.33-9.96 0-8.39 7.96-12.98 22.28-12.9v-.72c0-2.87-.84-8.04-8.42-8.04-3.45 0-7.05 1-9.66 2.59l-1.52-4.16c3.06-1.86 7.5-3.08 12.17-3.08 11.33 0 14.1 7.24 14.1 14.2v12.97c0 3 .14 5.95.6 8.31Zm0 0" fill="none" stroke-width=".5" stroke="#5e9735" stroke-miterlimit="10"/><path d="M613.46 440.57c-2.45 1.15-7.35 2.3-13.63 2.3-14.55 0-25.5-8.6-25.5-24.44 0-15.13 10.95-25.38 26.95-25.38 6.43 0 10.5 1.29 12.25 2.15l-1.6 5.09a25.6 25.6 0 0 0-10.42-2.01c-12.1 0-20.14 7.24-20.14 19.93 0 11.83 7.28 19.42 19.83 19.42 4.06 0 8.2-.78 10.88-2" fill="#5e9735"/><path d="M613.46 440.57c-2.45 1.15-7.35 2.3-13.63 2.3-14.55 0-25.5-8.6-25.5-24.44 0-15.13 10.95-25.38 26.95-25.38 6.43 0 10.5 1.29 12.25 2.15l-1.6 5.09a25.6 25.6 0 0 0-10.42-2.01c-12.1 0-20.14 7.24-20.14 19.93 0 11.83 7.28 19.42 19.83 19.42 4.06 0 8.2-.78 10.88-2Zm0 0" fill="none" stroke-width=".5" stroke="#5e9735" stroke-miterlimit="10"/><path d="M643.08 421.43c.07-4-1.77-10.25-9.34-10.25-6.82 0-9.8 5.88-10.34 10.25Zm-19.76 4.52c.16 8.53 5.98 12.05 12.71 12.05 4.83 0 7.74-.8 10.26-1.8l1.15 4.52c-2.37 1-6.43 2.15-12.33 2.15-11.4 0-18.22-7.03-18.22-17.5 0-10.46 6.59-18.7 17.38-18.7 12.1 0 15.32 9.96 15.32 16.34 0 1.3-.16 2.3-.23 2.94" fill="#5e9735"/><path d="M643.08 421.43c.07-4-1.77-10.25-9.34-10.25-6.82 0-9.8 5.88-10.34 10.25Zm-19.76 4.52c.16 8.53 5.98 12.05 12.71 12.05 4.83 0 7.74-.8 10.26-1.8l1.15 4.52c-2.37 1-6.43 2.15-12.33 2.15-11.4 0-18.22-7.03-18.22-17.5 0-10.46 6.59-18.7 17.38-18.7 12.1 0 15.32 9.96 15.32 16.34 0 1.3-.16 2.3-.23 2.94Zm0 0" fill="none" stroke-width=".5" stroke="#5e9735" stroke-miterlimit="10"/><path d="M656.77 416.85c0-3.59-.07-6.53-.3-9.4h5.97l.38 5.74h.15c1.84-3.3 6.13-6.52 12.25-6.52 5.14 0 13.1 2.87 13.1 14.76v20.72h-6.74v-20c0-5.6-2.22-10.25-8.58-10.25a9.49 9.49 0 0 0-9.03 6.45c-.3.8-.46 1.86-.46 2.94v20.86h-6.74" fill="#5e9735"/><path d="M656.77 416.85c0-3.59-.07-6.53-.3-9.4h5.97l.38 5.74h.15c1.84-3.3 6.13-6.52 12.25-6.52 5.14 0 13.1 2.87 13.1 14.76v20.72h-6.74v-20c0-5.6-2.22-10.25-8.58-10.25a9.49 9.49 0 0 0-9.03 6.45c-.3.8-.46 1.86-.46 2.94v20.86h-6.74Zm0 0" fill="none" stroke-width=".5" stroke="#5e9735" stroke-miterlimit="10"/><path d="M705.92 397.5v9.95h9.65v4.8h-9.65v18.72c0 4.3 1.3 6.74 5.05 6.74 1.76 0 3.07-.22 3.9-.43l.31 4.73c-1.3.5-3.37.86-5.97.86-3.14 0-5.66-.93-7.27-2.66-1.92-1.86-2.6-4.94-2.6-9.02v-18.93h-5.75v-4.8h5.74v-8.32" fill="#5e9735"/><path d="M705.92 397.5v9.95h9.65v4.8h-9.65v18.72c0 4.3 1.3 6.74 5.05 6.74 1.76 0 3.07-.22 3.9-.43l.31 4.73c-1.3.5-3.37.86-5.97.86-3.14 0-5.66-.93-7.27-2.66-1.92-1.86-2.6-4.94-2.6-9.02v-18.93h-5.75v-4.8h5.74v-8.32Zm0 0" fill="none" stroke-width=".5" stroke="#5e9735" stroke-miterlimit="10"/><path d="M745.04 421.43c.08-4-1.76-10.25-9.34-10.25-6.81 0-9.8 5.88-10.34 10.25Zm-19.76 4.52c.16 8.53 5.98 12.05 12.72 12.05 4.82 0 7.73-.8 10.26-1.8l1.14 4.52c-2.37 1-6.43 2.15-12.32 2.15-11.42 0-18.22-7.03-18.22-17.5 0-10.46 6.58-18.7 17.37-18.7 12.1 0 15.32 9.96 15.32 16.34 0 1.3-.16 2.3-.23 2.94" fill="#5e9735"/><path d="M745.04 421.43c.08-4-1.76-10.25-9.34-10.25-6.81 0-9.8 5.88-10.34 10.25Zm-19.76 4.52c.16 8.53 5.98 12.05 12.72 12.05 4.82 0 7.73-.8 10.26-1.8l1.14 4.52c-2.37 1-6.43 2.15-12.32 2.15-11.42 0-18.22-7.03-18.22-17.5 0-10.46 6.58-18.7 17.37-18.7 12.1 0 15.32 9.96 15.32 16.34 0 1.3-.16 2.3-.23 2.94Zm0 0" fill="none" stroke-width=".5" stroke="#5e9735" stroke-miterlimit="10"/><path d="M758.73 418.28c0-4.08-.07-7.6-.3-10.83h5.9l.22 6.82h.3c1.7-4.66 5.75-7.6 10.27-7.6.77 0 1.3.07 1.91.21v5.95a11 11 0 0 0-2.3-.21c-4.74 0-8.1 3.37-9.03 8.1-.15.86-.3 1.86-.3 2.94v18.5h-6.67" fill="#5e9735"/><path d="M758.73 418.28c0-4.08-.07-7.6-.3-10.83h5.9l.22 6.82h.3c1.7-4.66 5.75-7.6 10.27-7.6.77 0 1.3.07 1.91.21v5.95a11 11 0 0 0-2.3-.21c-4.74 0-8.1 3.37-9.03 8.1-.15.86-.3 1.86-.3 2.94v18.5h-6.67Zm0 0" fill="none" stroke-width=".5" stroke="#5e9735" stroke-miterlimit="10"/><path d="M781.7 435.7a18.51 18.51 0 0 0 8.88 2.51c4.9 0 7.2-2.3 7.2-5.16 0-3.01-1.92-4.66-6.9-6.38-6.66-2.22-9.8-5.67-9.8-9.83 0-5.59 4.83-10.17 12.8-10.17 3.74 0 7.04 1 9.1 2.15l-1.68 4.59a15.1 15.1 0 0 0-7.58-2.01c-3.98 0-6.2 2.15-6.2 4.73 0 2.87 2.22 4.16 7.04 5.88 6.43 2.3 9.73 5.3 9.73 10.46 0 6.1-5.06 10.4-13.86 10.4-4.06 0-7.81-.93-10.41-2.37" fill="#5e9735"/><path d="M781.7 435.7a18.51 18.51 0 0 0 8.88 2.51c4.9 0 7.2-2.3 7.2-5.16 0-3.01-1.92-4.66-6.9-6.38-6.66-2.22-9.8-5.67-9.8-9.83 0-5.59 4.83-10.17 12.8-10.17 3.74 0 7.04 1 9.1 2.15l-1.68 4.59a15.1 15.1 0 0 0-7.58-2.01c-3.98 0-6.2 2.15-6.2 4.73 0 2.87 2.22 4.16 7.04 5.88 6.43 2.3 9.73 5.3 9.73 10.46 0 6.1-5.06 10.4-13.86 10.4-4.06 0-7.81-.93-10.41-2.37Zm0 0" fill="none" stroke-width=".5" stroke="#5e9735" stroke-miterlimit="10"/><path d="M649.54 222.44a14.72 14.72 0 1 1-29.44 0 14.72 14.72 0 0 1 29.44 0m36.44-16a14.72 14.72 0 1 1-29.43 0 14.72 14.72 0 0 1 29.43 0m4.75-36.15a14.72 14.72 0 1 1-29.44 0 14.72 14.72 0 0 1 29.44 0m-31.17-25.86a14.72 14.72 0 1 1-29.43 0 14.72 14.72 0 0 1 29.43 0M624 155.37a14.72 14.72 0 1 1-29.44 0 14.72 14.72 0 0 1 29.44 0" fill="#bec6bd"/><path d="M590.64 173.68a14.72 14.72 0 1 1-29.44 0 14.72 14.72 0 0 1 29.44 0" fill="#c3c9c2"/><path d="M594.2 207.65a14.71 14.71 0 1 1-29.44 0 14.71 14.71 0 0 1 29.43 0m-32.99 12.91a12.9 12.9 0 1 1-25.81 0 12.9 12.9 0 0 1 25.81 0m-29.63-4.96c0 7.78-5.77 14.08-12.9 14.08-7.13 0-12.9-6.3-12.9-14.07 0-7.78 5.77-14.08 12.9-14.08 7.13 0 12.9 6.3 12.9 14.08" fill="#bfc6be"/><path d="M543.9 249c0 7.78-5.92 14.09-13.24 14.09-7.3 0-13.24-6.3-13.24-14.08s5.93-14.08 13.24-14.08c7.32 0 13.24 6.3 13.24 14.08" fill="#a9afaa"/><path d="M515.43 241.19c0 7.63-6.72 13.3-14.32 12.71-6.95-.54-12.16-6.2-12.16-12.67 0-6.48 5.21-12.16 12.16-12.71 7.6-.62 14.32 5.03 14.32 12.67" fill="#a8afaa"/><path d="M615.53 235.5a14.72 14.72 0 1 1-29.44 0 14.72 14.72 0 0 1 29.44 0" fill="#5c992d"/><path d="M640.61 266.32a14.72 14.72 0 1 1-29.43 0 14.72 14.72 0 0 1 29.43 0" fill="#a9afaa"/><path d="M665.5 287.06a14.72 14.72 0 1 1-29.43 0 14.72 14.72 0 0 1 29.43 0" fill="#8c928e"/><path d="M711.43 269.87a14.72 14.72 0 1 1-29.44 0 14.72 14.72 0 0 1 29.44 0m5.23-37.63a14.72 14.72 0 1 1-29.44 0 14.72 14.72 0 0 1 29.44 0" fill="#8e928e"/><path d="M720.16 195.18a14.71 14.71 0 1 1-29.43 0 14.71 14.71 0 0 1 29.43 0" fill="#c3c9c2"/><path d="M747.41 218.75a13.5 13.5 0 1 1-26.98 0 13.5 13.5 0 0 1 26.98 0m6.23-32.53a13.5 13.5 0 1 1-27 0 13.5 13.5 0 0 1 27 0m-1.48-31.31a13.5 13.5 0 1 1-27 0 13.5 13.5 0 0 1 27 0m-22-27.31a13.5 13.5 0 1 1-27 0 13.5 13.5 0 0 1 27 0" fill="#8e928e"/><path d="M695.86 136.75a15.11 15.11 0 1 1-30.22 0 15.11 15.11 0 0 1 30.22 0" fill="#c3c9c2"/><path d="M700.37 104.72c0 7.29-6.43 13.2-14.36 13.2s-14.36-5.91-14.36-13.2c0-7.29 6.43-13.2 14.36-13.2s14.36 5.91 14.36 13.2" fill="#5c992d"/><path d="M674.57 81.04c0 6.46-6.43 11.69-14.36 11.69s-14.36-5.23-14.36-11.69c0-6.45 6.43-11.68 14.36-11.68s14.36 5.23 14.36 11.68" fill="#c3c9c2"/><path d="M676.34 61.2c-.5 4.37-6.13 7.3-12.59 6.57-6.45-.73-11.28-4.86-10.78-9.23.5-4.36 6.13-7.3 12.58-6.56 6.46.73 11.29 4.87 10.79 9.23" fill="#929292"/><path d="M728.88 108.8c-3.08 3.45-10.2 2.11-15.93-3-5.72-5.1-7.86-12.03-4.79-15.48 3.07-3.44 10.2-2.1 15.93 3 5.72 5.11 7.86 12.04 4.79 15.49" fill="#8e928e"/><path d="M765.64 180.23c-4.24.98-8.93-3.67-10.48-10.39-1.54-6.72.64-12.95 4.89-13.93 4.24-.98 8.93 3.68 10.48 10.4 1.54 6.71-.64 12.95-4.89 13.92m16.31 17.18c-4.6.48-8.86-4.07-9.5-10.18-.65-6.11 2.56-11.46 7.16-11.94 4.6-.49 8.85 4.07 9.5 10.18.64 6.1-2.56 11.46-7.16 11.94" fill="#6c6c6c"/><path d="M763.72 219.6c-5.56 0-10.06-5.7-10.06-12.74 0-7.05 4.5-12.76 10.06-12.76 5.56 0 10.07 5.71 10.07 12.76 0 7.04-4.5 12.75-10.07 12.75" fill="#5c992d"/><path d="M759.3 252.56c-6.04 0-10.93-6.03-10.93-13.47s4.9-13.48 10.93-13.48c6.04 0 10.93 6.04 10.93 13.48s-4.89 13.47-10.93 13.47" fill="#6e716d"/><path d="M754.11 138.36c-3.14 2.42-9.4-.43-13.98-6.36-4.58-5.94-5.74-12.72-2.6-15.14 3.14-2.43 9.4.42 13.98 6.36 4.58 5.93 5.75 12.71 2.6 15.14m8.16-31.22c-1.98 1.52-6.5-1-10.08-5.64s-4.88-9.64-2.9-11.17c1.98-1.53 6.5 1 10.07 5.63 3.59 4.65 4.89 9.65 2.9 11.18" fill="#6c6c6c"/><path d="M769.03 133.65c-2.12 1.33-6.6-2.02-10.01-7.47-3.42-5.45-4.47-10.95-2.34-12.28 2.12-1.32 6.6 2.02 10.01 7.47 3.42 5.46 4.46 10.95 2.34 12.28" fill="#8e928e"/><path d="M781.95 135.55c-1.93 1.01-5.64-2.25-8.27-7.27-2.64-5.03-3.22-9.93-1.3-10.94 1.93-1.01 5.64 2.25 8.28 7.27 2.64 5.03 3.21 9.93 1.29 10.94" fill="#5c992d"/><path d="M792.15 172.83c-2.12.5-5.06-4.38-6.56-10.89-1.5-6.5-.99-12.17 1.14-12.66 2.12-.5 5.05 4.38 6.55 10.9 1.5 6.5 1 12.16-1.13 12.65m5.08 41.99c-2.6 0-4.7-5.41-4.7-12.09 0-6.67 2.1-12.08 4.7-12.08 2.59 0 4.68 5.4 4.68 12.08s-2.1 12.09-4.68 12.09" fill="#6c6c6c"/><path d="M796.07 256.31c-2.58-.24-4.15-5.83-3.51-12.47.64-6.65 3.24-11.84 5.82-11.59s4.15 5.84 3.51 12.48c-.63 6.65-3.24 11.83-5.82 11.58m-13.77 38.76c-2.58-1.13-2.5-7 .2-13.1 2.68-6.12 6.93-10.16 9.5-9.03 2.58 1.13 2.49 7-.2 13.1-2.67 6.12-6.94 10.16-9.5 9.03" fill="#5c992d"/><path d="M770.32 326.58c-2.33-1.57-1.2-7.33 2.54-12.86 3.73-5.54 8.64-8.75 10.97-7.18 2.33 1.57 1.2 7.33-2.54 12.87-3.73 5.53-8.65 8.74-10.97 7.17" fill="#6c6c6c"/><path d="M760.55 312.98c-3.8-2.56-3.84-9.12-.1-14.65 3.73-5.53 9.82-7.95 13.62-5.39 3.79 2.56 3.84 9.12.1 14.65-3.72 5.54-9.83 7.95-13.62 5.39m-25.75 6.97c-3.46-3-2.71-9.52 1.66-14.56 4.37-5.05 10.72-6.7 14.17-3.71 3.46 3 2.72 9.52-1.65 14.56-4.37 5.04-10.72 6.7-14.18 3.7" fill="#6e716d"/><path d="M715.97 349.69c-2.63-3.74.25-10.3 6.44-14.66 6.19-4.35 13.34-4.85 15.97-1.1 2.63 3.74-.25 10.3-6.44 14.65s-13.34 4.85-15.97 1.1" fill="#5c992d"/><path d="M773.03 271.48c-3.42-1.97-3.5-8.26-.16-14.05 3.34-5.77 8.82-8.86 12.25-6.88 3.43 1.98 3.5 8.27.16 14.05-3.34 5.78-8.82 8.86-12.25 6.88" fill="#6e716d"/><path d="M802.86 189.67c-1.2.13-2.6-3.77-3.12-8.7s.03-9.03 1.23-9.16c1.2-.12 2.6 3.77 3.12 8.7.52 4.94-.03 9.04-1.23 9.16m2.57 43.73c-1.2-.07-1.97-4.14-1.7-9.09s1.47-8.91 2.67-8.85c1.2.07 1.97 4.14 1.7 9.09s-1.47 8.91-2.67 8.84" fill="#6c6c6c"/><path d="M796.64 273.41c-1.13-.43-.6-4.54 1.16-9.17 1.77-4.63 4.12-8.04 5.25-7.6 1.13.43.6 4.53-1.17 9.16s-4.11 8.04-5.24 7.61" fill="#5c992d"/><path d="M751.9 351.04c-1.12-.98.6-4.8 3.85-8.56 3.25-3.74 6.8-5.99 7.92-5.01 1.12.97-.6 4.8-3.85 8.55-3.25 3.75-6.79 6-7.91 5.02" fill="#6c6c6c"/><path d="M706.6 79.4c-.61 3.58-7.08 5.47-14.43 4.22-7.36-1.26-12.83-5.19-12.22-8.78.62-3.6 7.08-5.48 14.44-4.23 7.36 1.26 12.82 5.19 12.21 8.78M589.42 139.1a13.5 13.5 0 1 1-27 0 13.5 13.5 0 0 1 27 0" fill="#5c992d"/><path d="M554.19 154.91a13.5 13.5 0 1 1-27 0 13.5 13.5 0 0 1 27 0m2.6-31.7c0 7.83-6.08 13.84-13.2 13.46-6.74-.37-11.94-6.38-11.94-13.46 0-7.08 5.2-13.1 11.94-13.46 7.12-.38 13.2 5.63 13.2 13.46" fill="#c3c9c2"/><path d="M524.29 176.74c0 8.02-5.28 14.51-11.79 14.51-6.5 0-11.78-6.5-11.78-14.5 0-8.02 5.27-14.52 11.78-14.52s11.79 6.5 11.79 14.51" fill="#bfc6be"/><path d="M470.25 157.67c-1.81 7.23-5.6 12.5-8.47 11.79-2.87-.73-3.72-7.17-1.9-14.4 1.82-7.22 5.61-12.5 8.48-11.78 2.86.72 3.71 7.16 1.9 14.4" fill="#929292"/><path d="M496.75 139.2c-2.7 7.2-8.35 11.75-12.62 10.14-4.27-1.6-5.53-8.73-2.83-15.93 2.7-7.2 8.35-11.75 12.62-10.14 4.26 1.6 5.53 8.73 2.83 15.93" fill="#5c992d"/><path d="M440.9 190.55c-1.15 6.77-3.18 12.07-4.52 11.84-1.34-.23-1.5-5.9-.34-12.67s3.18-12.07 4.52-11.84c1.35.23 1.5 5.9.34 12.67" fill="#6c6c6c"/><path d="M579.93 245.75a13.5 13.5 0 1 1-26.99 0 13.5 13.5 0 0 1 27 0" fill="#c3c9c2"/><path d="M699.5 304.44a13.5 13.5 0 1 1-26.99 0 13.5 13.5 0 0 1 27 0" fill="#5c992d"/><path d="M657.95 322.89a13.5 13.5 0 1 1-27 0 13.5 13.5 0 0 1 27 0m-28.66-21.12a13.5 13.5 0 1 1-27 0 13.5 13.5 0 0 1 27 0m-35.86 5.56a13.5 13.5 0 1 1-26.99 0 13.5 13.5 0 0 1 27 0m-38.67 2.57c0 7.76-6.82 13.54-14.57 12.94-7.1-.54-12.42-6.32-12.42-12.94 0-6.62 5.33-12.4 12.42-12.94 7.75-.59 14.57 5.18 14.57 12.94m68.48 25.58c0 7.53-7.05 13.13-15.06 12.55-7.34-.53-12.85-6.13-12.85-12.55 0-6.43 5.5-12.03 12.85-12.55 8-.58 15.06 5.02 15.06 12.55" fill="#8c928e"/><path d="M652.8 353.83c0 7.53-7.05 13.13-15.06 12.56-7.34-.53-12.85-6.13-12.85-12.56 0-6.42 5.51-12.02 12.85-12.55 8.01-.58 15.07 5.02 15.07 12.55m-41.54 7.52c0 5.64-5.29 9.84-11.29 9.4-5.5-.4-9.64-4.59-9.64-9.4 0-4.82 4.14-9.02 9.64-9.41 6-.44 11.3 3.76 11.3 9.4m134.6-2.51c0 4.13-3.88 7.21-8.28 6.9-4.04-.3-7.07-3.37-7.07-6.9 0-3.53 3.03-6.61 7.07-6.9 4.4-.32 8.28 2.76 8.28 6.9" fill="#6c6c6c"/><path d="M531.1 278.06c.3 8.2-6.26 14.63-14 14.02-7.1-.56-12.17-6.91-11.87-13.93.3-6.73 5.47-12.37 12.03-12.89 7.1-.56 13.54 5 13.83 12.8" fill="#5c992d"/><path d="M719.84 325.26c-4.57 5.28-11.71 6.6-15.94 2.93-4.22-3.67-3.94-10.92.64-16.2 4.58-5.28 11.72-6.6 15.94-2.93 4.23 3.66 3.94 10.92-.64 16.2" fill="#6e716d"/><path d="M677.09 345.38c-5.43 4.4-12.69 4.44-16.2.1-3.53-4.35-1.98-11.43 3.46-15.83 5.43-4.4 12.69-4.45 16.2-.1 3.52 4.34 1.97 11.43-3.46 15.83" fill="#8c928e"/><path d="M762.6 285.48c-4.89 5.63-12.68 6.87-17.41 2.77s-4.61-12 .27-17.63c4.89-5.63 12.68-6.87 17.41-2.77 4.74 4.1 4.61 12-.27 17.63" fill="#6e716d"/><path d="M625.9 119.85a13.5 13.5 0 1 1-27 0 13.5 13.5 0 0 1 27 0" fill="#bec6bd"/><path d="M639.4 90.04c0 7.06-6.05 12.78-13.5 12.78-7.46 0-13.5-5.72-13.5-12.78s6.04-12.78 13.5-12.78c7.45 0 13.5 5.72 13.5 12.78m-46.43 14.68a12.79 12.79 0 1 1-25.57 0 12.79 12.79 0 0 1 25.57 0M609.1 81.1c-1.12 6.11-7.24 10.42-14.05 9.86-7.16-.59-12.84-6.35-12.3-13.17.56-7.18 7.7-12.15 15.48-10.8 7.36 1.27 12.04 7.7 10.87 14.11m-50.15 20.74c-4.56 5.1-11.88 6.02-16.35 2.02-4.48-3.98-4.4-11.36.16-16.48 4.56-5.1 11.89-6.02 16.36-2.03 4.47 4 4.4 11.37-.17 16.49m-38.13 46.49c-4.57 5.11-11.89 6.02-16.36 2.03-4.47-3.99-4.4-11.37.17-16.48 4.56-5.11 11.88-6.02 16.35-2.03 4.47 3.99 4.4 11.36-.16 16.48m-24.74 22.47c-.3 7.3-5.38 13.04-11.37 12.8-5.99-.24-10.6-6.35-10.32-13.66.3-7.3 5.38-13.03 11.38-12.8 5.98.25 10.6 6.36 10.3 13.66" fill="#c3c9c2"/><path d="M475.7 197.84c-.3 7.3-4.13 13.08-8.56 12.9-4.44-.17-7.8-6.24-7.51-13.54.3-7.3 4.12-13.08 8.56-12.9 4.44.17 7.8 6.24 7.5 13.54m12.33 33.8c1.05 7.73-2.3 14.56-7.5 15.27-5.18.7-10.24-4.98-11.3-12.7-1.05-7.73 2.3-14.57 7.5-15.28 5.18-.7 10.24 4.99 11.3 12.71m9.68 38.27c1 7.43-2.38 14.01-7.57 14.72-5.2.7-10.22-4.74-11.23-12.16-1-7.42 2.38-14 7.57-14.71 5.19-.7 10.21 4.73 11.23 12.15" fill="#929292"/><path d="M546.41 331.94c5.66 4.9 7.47 12.09 4.04 16.04-3.43 3.96-10.8 3.2-16.47-1.71-5.65-4.9-7.46-12.09-4.03-16.05 3.43-3.95 10.8-3.19 16.46 1.72" fill="#8c928e"/><path d="M455.12 257.95c1.05 7.72-.5 14.31-3.47 14.71-2.97.4-6.23-5.53-7.28-13.25-1.05-7.73.5-14.32 3.47-14.72 2.97-.4 6.23 5.53 7.28 13.26m14.04 34.38c3.33 6.35 3.88 12.62 1.22 14-2.65 1.4-7.5-2.62-10.83-8.97-3.32-6.34-3.87-12.62-1.21-14 2.65-1.4 7.5 2.62 10.82 8.97m21.6 9.63c2.96 6.53 2.92 12.93-.1 14.3-3 1.36-7.85-2.82-10.81-9.35-2.96-6.52-2.92-12.92.1-14.29 3-1.36 7.85 2.82 10.8 9.34m19.88 29.02c5.07 5.06 7.4 10.93 5.24 13.1-2.17 2.18-8.05-.17-13.11-5.24-5.07-5.06-7.41-10.93-5.24-13.1 2.17-2.18 8.04.17 13.1 5.24m24.58 24.93c5.07 5.07 7.18 11.18 4.72 13.64-2.47 2.47-8.58.36-13.64-4.7-5.07-5.07-7.18-11.18-4.71-13.65 2.47-2.46 8.57-.35 13.64 4.71m-27.83-6.01c5.06 5.06 7.4 10.93 5.23 13.1-2.17 2.18-8.04-.16-13.1-5.23-5.07-5.07-7.42-10.94-5.24-13.11 2.17-2.18 8.04.17 13.1 5.24m-24.53-7.08c4.33 4.33 7.1 8.58 6.2 9.49-.92.9-5.16-1.87-9.49-6.2-4.33-4.32-7.1-8.57-6.2-9.48.92-.9 5.16 1.86 9.49 6.2" fill="#6c6c6c"/><path d="M486 325.85c4.3 6.1 6.21 12.16 4.28 13.51-1.93 1.36-6.98-2.49-11.27-8.59-4.3-6.1-6.2-12.16-4.28-13.52 1.93-1.35 6.98 2.5 11.27 8.6" fill="#5c992d"/><path d="M449.8 285.14c1.72 6.04 2.02 11.25.66 11.64-1.35.39-3.84-4.2-5.57-10.24-1.72-6.04-2.02-11.25-.67-11.63 1.35-.39 3.85 4.2 5.57 10.23m-9.59-35.07c.35 6.27-.49 11.42-1.9 11.5-1.4.09-2.83-4.93-3.2-11.2-.36-6.28.48-11.42 1.88-11.5 1.41-.09 2.84 4.93 3.21 11.2" fill="#6c6c6c"/><path d="M477.78 126.88c-3.33 6.5-8.47 10.53-11.47 9-3-1.54-2.73-8.06.6-14.57 3.33-6.5 8.46-10.53 11.47-9 3 1.54 2.73 8.06-.6 14.56m27.39-20.21c-4.87 4.86-10.8 6.81-13.26 4.36-2.46-2.46-.51-8.4 4.36-13.27 4.86-4.86 10.8-6.81 13.26-4.36 2.45 2.47.5 8.4-4.36 13.27" fill="#929292"/><path d="M492.2 95.88c-4.37 4.37-8.91 6.92-10.14 5.7-1.23-1.23 1.32-5.78 5.7-10.15 4.37-4.38 8.92-6.93 10.14-5.7 1.23 1.23-1.32 5.77-5.7 10.15m25.88-18.47c-4.74 3.97-9.5 6.11-10.61 4.78-1.12-1.33 1.82-5.63 6.57-9.6 4.74-3.98 9.49-6.12 10.6-4.79 1.12 1.33-1.82 5.63-6.56 9.61m31.97-13.84c-6 3.75-11.82 5.27-13 3.4-1.16-1.88 2.75-6.45 8.75-10.2 6-3.75 11.8-5.27 12.98-3.4 1.17 1.89-2.74 6.45-8.73 10.2" fill="#6c6c6c"/><path d="M581.09 56.55c-6.9 1.58-12.89 1.12-13.39-1.03-.49-2.16 4.7-5.2 11.59-6.79 6.9-1.59 12.88-1.12 13.38 1.04.5 2.15-4.69 5.19-11.58 6.78" fill="#5c992d"/><path d="M568.13 47.95c-4.61 1.07-8.6.9-8.88-.35-.29-1.26 3.22-3.14 7.84-4.2 4.61-1.07 8.59-.91 8.88.35.29 1.26-3.22 3.14-7.84 4.2m61.48-8.9c-4.73.24-8.61-.43-8.66-1.5-.06-1.07 3.73-2.13 8.47-2.37 4.73-.24 8.6.43 8.66 1.5.06 1.07-3.74 2.13-8.47 2.37m62.83 12.46c-3.58-1.7-6.18-3.75-5.8-4.56.4-.81 3.61-.09 7.2 1.62 3.59 1.71 6.18 3.76 5.8 4.57-.39.8-3.6.08-7.2-1.63M721.7 71.4c-4.52-3.73-7.74-7.31-7.17-8 .58-.7 4.7 1.76 9.24 5.48 4.53 3.73 7.74 7.3 7.17 8-.57.7-4.7-1.76-9.24-5.49m16.98 8.82c-3.32-2.72-5.54-5.5-4.98-6.19.58-.7 3.73.95 7.04 3.68 3.32 2.73 5.54 5.5 4.97 6.2-.57.69-3.72-.96-7.03-3.69M635.85 50.9c-7.06.35-12.9-1.4-13.02-3.9-.13-2.5 5.5-4.82 12.56-5.18 7.07-.36 12.9 1.38 13.02 3.89.13 2.5-5.5 4.82-12.56 5.18m28.23-3.17c-6.1-1.04-10.78-3.53-10.43-5.56.34-2.03 5.58-2.83 11.68-1.79 6.11 1.04 10.78 3.54 10.44 5.56-.35 2.03-5.58 2.83-11.7 1.79m28.23 16.05c-5.98-1.62-10.39-4.54-9.85-6.52.53-2 5.82-2.3 11.8-.68 5.98 1.62 10.4 4.54 9.86 6.53-.54 1.99-5.82 2.29-11.8.67" fill="#6c6c6c"/><path d="M607.05 64c-6.28.31-11.56-2.97-11.78-7.34-.22-4.37 4.7-8.16 10.98-8.48 6.29-.32 11.56 2.96 11.79 7.33.22 4.37-4.7 8.17-10.99 8.48" fill="#929292"/><path d="M536.03 87.31c-4.87 4.87-11.13 6.5-14 3.64-2.85-2.86-1.22-9.13 3.65-14 4.86-4.86 11.12-6.49 13.98-3.63 2.86 2.86 1.23 9.13-3.63 14" fill="#fff"/><path d="M536.03 87.31c-4.87 4.87-11.13 6.5-14 3.64-2.85-2.86-1.22-9.13 3.65-14 4.86-4.86 11.12-6.49 13.98-3.63 2.86 2.86 1.23 9.13-3.63 14" fill="#c3c9c2"/><path d="M443.9 220.64c-.3 7.3-2.8 13.13-5.6 13.02-2.79-.1-4.82-6.12-4.52-13.42.29-7.3 2.79-13.14 5.58-13.03 2.8.11 4.82 6.13 4.53 13.43m11.77-31.01c-.27 6.73-2.75 12.1-5.54 11.98-2.8-.1-4.84-5.65-4.57-12.39.27-6.73 2.75-12.1 5.54-11.98 2.8.1 4.84 5.65 4.57 12.39" fill="#6c6c6c"/><path d="M572.67 78.64c-4.74 3.66-11.18 3.27-14.38-.88-3.2-4.15-1.95-10.48 2.79-14.14s11.19-3.27 14.38.88c3.2 4.15 1.96 10.48-2.79 14.14" fill="#929292"/><path d="M454.05 153.15c-2.46 6.41-5.47 11.22-6.75 10.73-1.26-.48-.31-6.08 2.14-12.49s5.47-11.22 6.74-10.73c1.27.48.32 6.07-2.13 12.49" fill="#6c6c6c"/></svg>